<svg width="24" height="24" viewBox="0 0 24 24" fill="none" xmlns="http://www.w3.org/2000/svg">
<path fill-rule="evenodd" clip-rule="evenodd" d="M9.70711 6.29289C10.0976 6.68342 10.0976 7.31658 9.70711 7.70711L6.41421 11H20C20.5523 11 21 11.4477 21 12C21 12.5523 20.5523 13 20 13H6.41421L6.42617 13.012L6.43917 13.025L6.45219 13.038L6.46522 13.051L6.47827 13.0641L6.49133 13.0771L6.50441 13.0902L6.5175 13.1033L6.53061 13.1164L6.54372 13.1295L6.55685 13.1426L6.57 13.1558L6.58315 13.1689L6.59632 13.1821L6.6095 13.1953L6.62269 13.2085L6.63589 13.2217L6.64911 13.2349L6.66233 13.2481L6.67556 13.2613L6.68881 13.2746L6.70206 13.2878L6.71532 13.3011L6.72859 13.3144L6.74187 13.3277L6.75516 13.3409L6.76845 13.3542L6.78176 13.3675L6.79507 13.3809L6.80839 13.3942L6.82171 13.4075L6.83504 13.4208L6.84838 13.4342L6.86172 13.4475L6.87507 13.4609L6.88842 13.4742L6.90178 13.4876L6.91514 13.5009L6.92851 13.5143L6.94188 13.5277L6.95525 13.541L6.96863 13.5544L6.98201 13.5678L6.99539 13.5812L7.00878 13.5946L7.02217 13.608L7.03556 13.6213L7.04895 13.6347L7.06234 13.6481L7.07573 13.6615L7.08912 13.6749L7.10252 13.6883L7.11591 13.7017L7.1293 13.7151L7.14269 13.7285L7.15608 13.7419L7.16947 13.7553L7.18286 13.7686L7.19624 13.782L7.20963 13.7954L7.223 13.8088L7.23638 13.8222L7.24976 13.8355L7.26313 13.8489L7.27649 13.8623L7.28985 13.8756L7.30321 13.889L7.31656 13.9023L7.32991 13.9157L7.34325 13.929L7.35659 13.9424L7.36992 13.9557L7.38324 13.969L7.39656 13.9823L7.40987 13.9957L7.42317 14.009L7.43646 14.0223L7.44975 14.0355L7.46303 14.0488L7.4763 14.0621L7.48956 14.0753L7.50281 14.0886L7.51605 14.1018L7.52928 14.1151L7.54251 14.1283L7.55572 14.1415L7.56892 14.1547L7.58211 14.1679L7.59528 14.1811L7.60845 14.1942L7.6216 14.2074L7.63475 14.2205L7.64788 14.2337L7.66099 14.2468L7.67409 14.2599L7.68718 14.273L7.70026 14.286L7.71332 14.2991L7.72636 14.3122L7.7394 14.3252L7.75241 14.3382L7.76541 14.3512L7.7784 14.3642L7.79137 14.3772L7.80432 14.3901L7.81725 14.403L7.83017 14.416L7.84307 14.4289L7.85596 14.4417L7.86882 14.4546L7.88167 14.4675L7.8945 14.4803L7.90731 14.4931L7.9201 14.5059L7.93287 14.5187L7.94562 14.5314L7.95835 14.5441L7.97106 14.5568L7.98375 14.5695L7.99641 14.5822L8.00906 14.5948L8.02168 14.6075L8.03429 14.6201L8.04687 14.6327L8.05942 14.6452L8.07196 14.6577L8.08447 14.6703L8.09696 14.6827L8.10942 14.6952L8.12186 14.7076L8.13427 14.7201L8.14666 14.7325L8.15903 14.7448L8.17137 14.7572L8.18368 14.7695L8.19597 14.7818L8.20823 14.794L8.22046 14.8062L8.23267 14.8185L8.24485 14.8306L8.257 14.8428L8.26912 14.8549L8.28122 14.867L8.29328 14.8791L8.30532 14.8911L8.31733 14.9031L8.32931 14.9151L8.34126 14.927L8.35318 14.939L8.36506 14.9509L8.37692 14.9627L8.38875 14.9745L8.40054 14.9863L8.4123 14.9981L8.42404 15.0098L8.43573 15.0215L8.4474 15.0332L8.45903 15.0448L8.47063 15.0564L8.4822 15.068L8.49373 15.0795L8.50522 15.091L8.51669 15.1025L8.52811 15.1139L8.53951 15.1253L8.55086 15.1367L8.56219 15.148L8.57347 15.1593L8.58472 15.1705L8.59593 15.1817L8.6071 15.1929L8.61824 15.204L8.62934 15.2151L8.6404 15.2262L8.65143 15.2372L8.66241 15.2482L8.67336 15.2591L8.68426 15.27L8.69513 15.2809L8.70595 15.2917L8.71674 15.3025L8.72749 15.3133L8.73819 15.324L8.74885 15.3346L8.75948 15.3453L8.77006 15.3558L8.7806 15.3664L8.79109 15.3769L8.80154 15.3873L8.81195 15.3977L8.82232 15.4081L8.83264 15.4184L8.84292 15.4287L8.85316 15.4389L8.86335 15.4491L8.87349 15.4593L8.88359 15.4694L8.89365 15.4794L8.90366 15.4894L8.91362 15.4994L8.92354 15.5093L8.9334 15.5192L8.94323 15.529L8.953 15.5388L8.96273 15.5485L8.97241 15.5582L8.98204 15.5678L8.99162 15.5774L9.00115 15.5869L9.01063 15.5964L9.02007 15.6059L9.02945 15.6152L9.03879 15.6246L9.04807 15.6339L9.0573 15.6431L9.06648 15.6523L9.07561 15.6614L9.08469 15.6705L9.09371 15.6795L9.10269 15.6885L9.11161 15.6974L9.12048 15.7063L9.12929 15.7151L9.13805 15.7238L9.14676 15.7325L9.15541 15.7412L9.164 15.7498L9.17255 15.7583L9.18103 15.7668L9.18947 15.7753L9.19784 15.7836L9.20616 15.7919L9.21442 15.8002L9.22263 15.8084L9.23078 15.8166L9.23887 15.8247L9.2469 15.8327L9.25488 15.8407L9.2628 15.8486L9.27066 15.8564L9.27846 15.8642L9.2862 15.872L9.29388 15.8797L9.3015 15.8873L9.30906 15.8948L9.31656 15.9023L9.324 15.9098L9.33137 15.9172L9.33869 15.9245L9.34595 15.9317L9.35314 15.9389L9.36027 15.9461L9.36733 15.9531L9.37434 15.9601L9.38128 15.9671L9.38816 15.9739L9.39497 15.9808L9.40172 15.9875L9.4084 15.9942L9.41502 16.0008L9.42157 16.0074L9.42806 16.0138L9.43448 16.0203L9.44084 16.0266L9.44713 16.0329L9.45335 16.0391L9.45951 16.0453L9.4656 16.0514L9.47162 16.0574L9.47757 16.0634L9.48345 16.0692L9.48927 16.0751L9.49501 16.0808L9.50069 16.0865L9.5063 16.0921L9.51184 16.0976L9.5173 16.1031L9.5227 16.1085L9.52802 16.1138L9.53328 16.1191L9.53846 16.1242L9.54357 16.1294L9.54861 16.1344L9.55358 16.1394L9.55847 16.1443L9.56329 16.1491L9.56804 16.1538L9.57271 16.1585L9.57731 16.1631L9.58184 16.1676L9.58629 16.1721L9.59066 16.1764L9.59496 16.1807L9.59918 16.185L9.60333 16.1891L9.60741 16.1932L9.6114 16.1972L9.61532 16.2011L9.61916 16.2049L9.62293 16.2087L9.62661 16.2124L9.63022 16.216L9.63375 16.2195L9.6372 16.223L9.64057 16.2264L9.64387 16.2297L9.64708 16.2329L9.65021 16.236L9.65327 16.2391L9.65624 16.242L9.65913 16.2449L9.66194 16.2477L9.66467 16.2505L9.66732 16.2531L9.66988 16.2557L9.67236 16.2581L9.67476 16.2605L9.67708 16.2629L9.67931 16.2651L9.68146 16.2672L9.68353 16.2693L9.68551 16.2713L9.6874 16.2732L9.68921 16.275L9.69094 16.2767L9.69258 16.2784L9.69413 16.2799L9.6956 16.2814L9.69698 16.2828L9.69828 16.2841L9.69949 16.2853L9.7006 16.2864L9.70164 16.2874L9.70258 16.2884L9.70344 16.2892L9.7042 16.29L9.70488 16.2907L9.70547 16.2913L9.70597 16.2918L9.70638 16.2922L9.7067 16.2925L9.70692 16.2927L9.70706 16.2928L9 17L8.29285 17.7071L8.29271 17.7069L8.29248 17.7067L8.29216 17.7064L8.29176 17.706L8.29126 17.7055L8.29067 17.7049L8.28999 17.7042L8.28922 17.7034L8.28837 17.7026L8.28742 17.7016L8.28639 17.7006L8.28527 17.6995L8.28406 17.6983L8.28277 17.697L8.28139 17.6956L8.27992 17.6941L8.27837 17.6926L8.27673 17.6909L8.275 17.6892L8.27319 17.6874L8.27129 17.6855L8.26931 17.6835L8.26725 17.6815L8.2651 17.6793L8.26287 17.6771L8.26055 17.6748L8.25815 17.6724L8.25567 17.6699L8.2531 17.6673L8.25046 17.6647L8.24773 17.6619L8.24492 17.6591L8.24203 17.6562L8.23905 17.6533L8.236 17.6502L8.23287 17.6471L8.22965 17.6439L8.22636 17.6406L8.22299 17.6372L8.21954 17.6338L8.21601 17.6302L8.2124 17.6266L8.20871 17.6229L8.20495 17.6192L8.20111 17.6153L8.19719 17.6114L8.19319 17.6074L8.18912 17.6033L8.18497 17.5992L8.18075 17.595L8.17645 17.5907L8.17207 17.5863L8.16762 17.5818L8.1631 17.5773L8.1585 17.5727L8.15382 17.568L8.14908 17.5633L8.14426 17.5585L8.13936 17.5536L8.1344 17.5486L8.12936 17.5436L8.12425 17.5385L8.11907 17.5333L8.11381 17.528L8.10849 17.5227L8.10309 17.5173L8.09762 17.5118L8.09208 17.5063L8.08648 17.5007L8.0808 17.495L8.07506 17.4893L8.06924 17.4835L8.06336 17.4776L8.0574 17.4716L8.05138 17.4656L8.0453 17.4595L8.03914 17.4534L8.03292 17.4471L8.02663 17.4408L8.02027 17.4345L8.01385 17.4281L8.00736 17.4216L8.00081 17.415L7.99419 17.4084L7.9875 17.4017L7.98076 17.395L7.97394 17.3882L7.96707 17.3813L7.96012 17.3743L7.95312 17.3673L7.94605 17.3603L7.93892 17.3531L7.93173 17.3459L7.92448 17.3387L7.91716 17.3314L7.90978 17.324L7.90234 17.3166L7.89484 17.3091L7.88728 17.3015L7.87966 17.2939L7.87198 17.2862L7.86424 17.2785L7.85644 17.2707L7.84858 17.2628L7.84067 17.2549L7.83269 17.2469L7.82466 17.2389L7.81657 17.2308L7.80842 17.2226L7.80021 17.2144L7.79195 17.2062L7.78363 17.1978L7.77525 17.1895L7.76682 17.181L7.75833 17.1725L7.74979 17.164L7.74119 17.1554L7.73254 17.1468L7.72384 17.138L7.71508 17.1293L7.70626 17.1205L7.69739 17.1116L7.68847 17.1027L7.6795 17.0937L7.67048 17.0847L7.6614 17.0756L7.65227 17.0665L7.64309 17.0573L7.63386 17.0481L7.62457 17.0388L7.61524 17.0295L7.60585 17.0201L7.59642 17.0106L7.58694 17.0012L7.5774 16.9916L7.56782 16.982L7.55819 16.9724L7.54851 16.9627L7.53879 16.953L7.52901 16.9432L7.51919 16.9334L7.50932 16.9235L7.49941 16.9136L7.48944 16.9037L7.47943 16.8936L7.46938 16.8836L7.45928 16.8735L7.44914 16.8633L7.43894 16.8532L7.42871 16.8429L7.41843 16.8326L7.40811 16.8223L7.39774 16.812L7.38733 16.8015L7.37688 16.7911L7.36638 16.7806L7.35584 16.7701L7.34526 16.7595L7.33464 16.7489L7.32398 16.7382L7.31327 16.7275L7.30253 16.7167L7.29174 16.706L7.28091 16.6951L7.27005 16.6843L7.25914 16.6734L7.2482 16.6624L7.23721 16.6514L7.22619 16.6404L7.21513 16.6293L7.20403 16.6182L7.19289 16.6071L7.18172 16.5959L7.17051 16.5847L7.15926 16.5735L7.14797 16.5622L7.13665 16.5509L7.12529 16.5395L7.1139 16.5281L7.10247 16.5167L7.09101 16.5052L7.07951 16.4937L7.06798 16.4822L7.05642 16.4706L7.04482 16.459L7.03319 16.4474L7.02152 16.4357L7.00982 16.424L6.99809 16.4123L6.98633 16.4005L6.97453 16.3887L6.96271 16.3769L6.95085 16.3651L6.93896 16.3532L6.92704 16.3413L6.9151 16.3293L6.90312 16.3173L6.89111 16.3053L6.87907 16.2933L6.867 16.2812L6.85491 16.2691L6.84279 16.257L6.83063 16.2448L6.81846 16.2327L6.80625 16.2205L6.79401 16.2082L6.78175 16.196L6.76947 16.1837L6.75715 16.1714L6.74482 16.159L6.73245 16.1467L6.72006 16.1343L6.70765 16.1219L6.69521 16.1094L6.68274 16.097L6.67026 16.0845L6.65775 16.072L6.64521 16.0594L6.63265 16.0469L6.62007 16.0343L6.60747 16.0217L6.59485 16.0091L6.5822 15.9964L6.56953 15.9837L6.55684 15.9711L6.54413 15.9583L6.5314 15.9456L6.51865 15.9329L6.50588 15.9201L6.49309 15.9073L6.48028 15.8945L6.46745 15.8817L6.45461 15.8688L6.44174 15.856L6.42886 15.8431L6.41596 15.8302L6.40304 15.8173L6.3901 15.8043L6.37715 15.7914L6.36418 15.7784L6.3512 15.7654L6.3382 15.7524L6.32518 15.7394L6.31215 15.7264L6.2991 15.7133L6.28604 15.7003L6.27297 15.6872L6.25988 15.6741L6.24678 15.661L6.23366 15.6479L6.22053 15.6347L6.20739 15.6216L6.19424 15.6085L6.18107 15.5953L6.16789 15.5821L6.1547 15.5689L6.1415 15.5557L6.12829 15.5425L6.11507 15.5293L6.10184 15.5161L6.0886 15.5028L6.07535 15.4896L6.06208 15.4763L6.04882 15.463L6.03554 15.4498L6.02225 15.4365L6.00896 15.4232L5.99565 15.4099L5.98234 15.3966L5.96903 15.3832L5.9557 15.3699L5.94237 15.3566L5.92904 15.3433L5.9157 15.3299L5.90235 15.3166L5.889 15.3032L5.87564 15.2899L5.86228 15.2765L5.84891 15.2631L5.83554 15.2498L5.82217 15.2364L5.80879 15.223L5.79541 15.2096L5.78203 15.1962L5.76864 15.1829L5.75526 15.1695L5.74187 15.1561L5.72848 15.1427L5.71509 15.1293L5.70169 15.1159L5.6883 15.1025L5.67491 15.0891L5.66152 15.0757L5.64812 15.0623L5.63473 15.0489L5.62134 15.0356L5.60795 15.0222L5.59457 15.0088L5.58118 14.9954L5.5678 14.982L5.55442 14.9686L5.54104 14.9553L5.52766 14.9419L5.51429 14.9285L5.50093 14.9151L5.48757 14.9018L5.47421 14.8884L5.46085 14.8751L5.44751 14.8617L5.43416 14.8484L5.42083 14.835L5.4075 14.8217L5.39417 14.8084L5.38085 14.7951L5.36754 14.7818L5.35424 14.7685L5.34094 14.7552L5.32766 14.7419L5.31438 14.7286L5.30111 14.7153L5.28784 14.7021L5.27459 14.6888L5.26135 14.6756L5.24812 14.6623L5.23489 14.6491L5.22168 14.6359L5.20848 14.6227L5.19529 14.6095L5.18211 14.5963L5.16894 14.5832L5.15578 14.57L5.14264 14.5569L5.12951 14.5437L5.11639 14.5306L5.10329 14.5175L5.0902 14.5044L5.07712 14.4913L5.06406 14.4783L5.05101 14.4652L5.03798 14.4522L5.02496 14.4392L5.01195 14.4262L4.99897 14.4132L4.986 14.4002L4.97304 14.3873L4.9601 14.3743L4.94718 14.3614L4.93428 14.3485L4.92139 14.3356L4.90853 14.3227L4.89568 14.3099L4.88285 14.2971L4.87003 14.2842L4.85724 14.2715L4.84447 14.2587L4.83171 14.2459L4.81898 14.2332L4.80627 14.2205L4.79358 14.2078L4.78091 14.1951L4.76826 14.1825L4.75563 14.1698L4.74302 14.1572L4.73044 14.1447L4.71788 14.1321L4.70534 14.1196L4.69283 14.107L4.68034 14.0945L4.66787 14.0821L4.65543 14.0696L4.64301 14.0572L4.63061 14.0448L4.61825 14.0325L4.6059 14.0201L4.59359 14.0078L4.5813 13.9955L4.56903 13.9832L4.55679 13.971L4.54458 13.9588L4.5324 13.9466L4.52024 13.9345L4.50812 13.9223L4.49602 13.9102L4.48395 13.8982L4.47191 13.8861L4.45989 13.8741L4.44791 13.8621L4.43596 13.8502L4.42403 13.8382L4.41214 13.8264L4.40028 13.8145L4.38845 13.8027L4.37665 13.7909L4.36488 13.7791L4.35315 13.7674L4.34145 13.7557L4.32978 13.744L4.31814 13.7324L4.30653 13.7207L4.29496 13.7092L4.28343 13.6976L4.27193 13.6861L4.26046 13.6747L4.24903 13.6632L4.23763 13.6518L4.22627 13.6405L4.21494 13.6292L4.20365 13.6179L4.1924 13.6066L4.18118 13.5954L4.17 13.5842L4.15886 13.5731L4.14775 13.562L4.13669 13.5509L4.12566 13.5399L4.11467 13.5289L4.10372 13.5179L4.0928 13.507L4.08193 13.4961L4.0711 13.4853L4.06031 13.4745L4.04956 13.4638L4.03885 13.4531L4.02818 13.4424L4.01755 13.4318L4.00696 13.4212L3.99642 13.4106L3.98592 13.4001L3.97546 13.3897L3.96504 13.3793L3.95467 13.3689L3.94434 13.3586L3.93405 13.3483L3.92381 13.338L3.91361 13.3278L3.90346 13.3177L3.89336 13.3076L3.8833 13.2975L3.87328 13.2875L3.86331 13.2775L3.85339 13.2676L3.84351 13.2577L3.83368 13.2479L3.8239 13.2381L3.81417 13.2284L3.80448 13.2187L3.79485 13.2091L3.78526 13.1995L3.77572 13.1899L3.76623 13.1804L3.75679 13.171L3.7474 13.1616L3.73805 13.1523L3.72876 13.143L3.71953 13.1337L3.71034 13.1246L3.7012 13.1154L3.69211 13.1063L3.68308 13.0973L3.6741 13.0883L3.66517 13.0794L3.6563 13.0705L3.64748 13.0617L3.63871 13.0529L3.63 13.0442L3.62134 13.0355L3.61273 13.0269L3.60418 13.0184L3.59569 13.0099L3.58725 13.0015L3.57886 12.9931L3.57053 12.9847L3.56226 12.9765L3.55405 12.9683L3.54589 12.9601L3.53779 12.952L3.52975 12.944L3.52177 12.936L3.51384 12.9281L3.50597 12.9202L3.49817 12.9124L3.49042 12.9046L3.48273 12.8969L3.4751 12.8893L3.46753 12.8817L3.46002 12.8742L3.45257 12.8668L3.44519 12.8594L3.43786 12.8521L3.4306 12.8448L3.4234 12.8376L3.41626 12.8305L3.40918 12.8234L3.40217 12.8164L3.39522 12.8094L3.38833 12.8025L3.38151 12.7957L3.37475 12.789L3.36806 12.7823L3.36143 12.7756L3.35487 12.7691L3.34837 12.7626L3.34194 12.7562L3.33557 12.7498L3.32927 12.7435L3.32304 12.7373L3.31688 12.7311L3.31078 12.725L3.30475 12.719L3.29879 12.713L3.29289 12.7071C2.90237 12.3166 2.90237 11.6834 3.29289 11.2929L8.29289 6.29289C8.68342 5.90237 9.31658 5.90237 9.70711 6.29289ZM9 17L8.29289 17.7071C8.68342 18.0976 9.31658 18.0976 9.70711 17.7071C10.0976 17.3166 10.0976 16.6834 9.70711 16.2929L9 17Z" fill="currentColor"/>
</svg>
