<svg width="16" height="16" viewBox="0 0 16 16" fill="none" xmlns="http://www.w3.org/2000/svg">
<path fill-rule="evenodd" clip-rule="evenodd" d="M9.64645 4.64645C9.45118 4.84171 9.45118 5.15829 9.64645 5.35355L11.7929 7.5H3C2.72386 7.5 2.5 7.72386 2.5 8C2.5 8.27614 2.72386 8.5 3 8.5H11.8141C11.5121 8.80378 11.1798 9.13454 10.8669 9.44458C10.5393 9.76901 10.2352 10.0686 10.0128 10.287L9.74816 10.5468L9.67567 10.6178L9.65679 10.6363L9.65199 10.641L9.65078 10.6422L9.65049 10.6425L9.65041 10.6425L10 11L10.3496 11.3574L10.3497 11.3573L10.35 11.357L10.3513 11.3558L10.3562 11.351L10.3752 11.3324L10.4481 11.261L10.7137 11.0003C10.9367 10.7812 11.2419 10.4807 11.5706 10.155C12.2252 9.50659 12.9821 8.74981 13.3646 8.3421C13.5493 8.14524 13.5444 7.83732 13.3536 7.64645L10.3536 4.64645C10.1583 4.45118 9.84171 4.45118 9.64645 4.64645ZM10 11L10.3496 11.3575C10.1522 11.5505 9.83562 11.547 9.64254 11.3496C9.44946 11.1522 9.45298 10.8356 9.65039 10.6425L10 11Z" fill="currentColor"/>
</svg>
