<svg xmlns="http://www.w3.org/2000/svg" width="24" height="24" viewBox="0 0 24 24" fill="none">
  <path
    d="M10.1562 19.4512C9.931 19.4751 9.72932 19.3107 9.70557 19.084L8.97152 12.0635C8.94786 11.8369 9.11114 11.6338 9.33632 11.6099L9.74397 11.5667C9.96915 11.5429 10.1709 11.7073 10.1946 11.9339L10.9286 18.9544C10.9524 19.1811 10.7891 19.3841 10.5639 19.408L10.1562 19.4512Z"
    fill="currentColor" />
  <path
    d="M13.8456 19.408C13.6204 19.3841 13.4571 19.1811 13.4808 18.9544L14.2149 11.9339C14.2386 11.7073 14.4403 11.5429 14.6655 11.5667L15.0731 11.6099C15.2983 11.6338 15.4617 11.8369 15.4379 12.0635L14.7039 19.084C14.6802 19.3107 14.4784 19.4751 14.2533 19.4512L13.8456 19.408Z"
    fill="currentColor" />
  <path fill-rule="evenodd" clip-rule="evenodd"
    d="M10.2201 0.857422C9.72816 0.857422 9.28348 1.15258 9.08968 1.60781L8.17934 3.74631H4.21128C3.30568 3.74631 2.57153 4.4854 2.57153 5.39711V7.46059C2.57153 8.3019 3.19668 8.99625 4.00483 9.09842L6.53954 22.4796C6.61618 22.8654 6.95267 23.1431 7.3435 23.1431H17.4436C17.8494 23.1431 18.1942 22.8442 18.2543 22.4402L20.0973 9.08222C20.8555 8.93702 21.4287 8.26619 21.4287 7.46059V5.39711C21.4287 4.4854 20.6945 3.74631 19.789 3.74631H15.8196L14.9092 1.60781C14.7154 1.15258 14.2708 0.857422 13.7788 0.857422H10.2201ZM14.0356 3.74631L13.7215 3.00847C13.5923 2.70498 13.2958 2.50822 12.9679 2.50822H11.031C10.7031 2.50822 10.4067 2.70498 10.2774 3.00847L9.96336 3.74631H14.0356ZM18.4024 9.47308C18.4311 9.26668 18.2704 9.08265 18.0621 9.08316L6.09808 9.11042C5.88363 9.11094 5.72226 9.30594 5.76192 9.51671L7.88416 20.7937C7.9604 21.1989 8.31426 21.4924 8.72651 21.4924H15.9909C16.4188 21.4924 16.7812 21.1767 16.84 20.7528L18.4024 9.47308ZM18.969 7.46059C19.4218 7.46059 19.789 7.09105 19.789 6.6352V6.2225C19.789 5.76665 19.4218 5.39711 18.969 5.39711H5.03116C4.57835 5.39711 4.21128 5.76665 4.21128 6.2225V6.6352C4.21128 7.09105 4.57835 7.46059 5.03116 7.46059H18.969Z"
    fill="currentColor" />
</svg>