<svg width="24" height="24" viewBox="0 0 24 24" fill="none" xmlns="http://www.w3.org/2000/svg">
<path fill-rule="evenodd" clip-rule="evenodd" d="M12.0519 1.25H11.9479C11.0494 1.24997 10.3002 1.24995 9.70538 1.32991C9.07759 1.41432 8.5108 1.59999 8.05533 2.05546C7.59986 2.51093 7.41419 3.07773 7.32978 3.70552C7.24982 4.3003 7.24984 5.0495 7.24987 5.94798V6.02571C5.22869 6.09184 4.01498 6.32802 3.17145 7.17156C1.99988 8.34314 1.99988 10.2288 1.99988 14C1.99988 17.7712 1.99988 19.6569 3.17145 20.8284C4.34302 22 6.22863 22 9.99986 22H13.9999C17.771 22 19.6567 22 20.8282 20.8284C21.9998 19.6569 21.9998 17.7712 21.9998 14C21.9998 10.2288 21.9998 8.34314 20.8282 7.17156C19.9847 6.32802 18.771 6.09184 16.7499 6.02571V5.948C16.7499 5.04953 16.75 4.3003 16.67 3.70552C16.5856 3.07773 16.3999 2.51093 15.9444 2.05546C15.489 1.59999 14.9222 1.41432 14.2944 1.32991C13.6996 1.24995 12.9504 1.24997 12.0519 1.25ZM15.2499 6.00188V5.99999C15.2499 5.03598 15.2483 4.38843 15.1834 3.9054C15.1213 3.44393 15.0141 3.24644 14.8838 3.11612C14.7535 2.9858 14.556 2.87858 14.0945 2.81654C13.6115 2.7516 12.9639 2.75 11.9999 2.75C11.0359 2.75 10.3883 2.7516 9.90525 2.81654C9.44379 2.87858 9.24631 2.9858 9.11599 3.11612C8.98567 3.24644 8.87845 3.44393 8.81641 3.9054C8.75147 4.38843 8.74987 5.03598 8.74987 5.99999V6.00188C9.1419 5.99999 9.55793 5.99999 9.99986 5.99999H13.9999C14.4418 5.99999 14.8579 5.99999 15.2499 6.00188ZM16.9999 8.99999C16.9999 9.55228 16.5522 9.99999 15.9999 9.99999C15.4476 9.99999 14.9999 9.55228 14.9999 8.99999C14.9999 8.44771 15.4476 7.99999 15.9999 7.99999C16.5522 7.99999 16.9999 8.44771 16.9999 8.99999ZM7.99987 9.99999C8.55215 9.99999 8.99987 9.55228 8.99987 8.99999C8.99987 8.44771 8.55215 7.99999 7.99987 7.99999C7.44759 7.99999 6.99987 8.44771 6.99987 8.99999C6.99987 9.55228 7.44759 9.99999 7.99987 9.99999Z" fill="currentColor"/>
</svg>
