<svg width="24" height="24" viewBox="0 0 24 24" fill="none" xmlns="http://www.w3.org/2000/svg">
<path d="M1.98975 14C1.98975 10.2288 1.98975 8.34315 3.16131 7.17157C4.33289 6 6.2185 6 9.98973 6H13.9897C17.7609 6 19.6466 6 20.8181 7.17157C21.9897 8.34315 21.9897 10.2288 21.9897 14C21.9897 17.7712 21.9897 19.6569 20.8181 20.8284C19.6466 22 17.7609 22 13.9897 22H9.98973C6.2185 22 4.33289 22 3.16131 20.8284C1.98975 19.6569 1.98975 17.7712 1.98975 14Z" stroke="currentColor" stroke-width="2"/>
<path d="M15.9897 5.99999C15.9897 4.11438 15.9897 3.17157 15.4039 2.58579C14.8181 2 13.8753 2 11.9897 2C10.1041 2 9.16131 2 8.57553 2.58579C7.98975 3.17157 7.98975 4.11438 7.98975 5.99999" stroke="currentColor" stroke-width="2"/>
<path d="M16.9897 9C16.9897 9.55228 16.542 10 15.9897 10C15.4374 10 14.9897 9.55228 14.9897 9C14.9897 8.44772 15.4374 8 15.9897 8C16.542 8 16.9897 8.44772 16.9897 9Z" fill="currentColor"/>
<path d="M8.98974 9C8.98974 9.55228 8.54202 10 7.98974 10C7.43747 10 6.98975 9.55228 6.98975 9C6.98975 8.44772 7.43747 8 7.98974 8C8.54202 8 8.98974 8.44772 8.98974 9Z" fill="currentColor"/>
</svg>
