<svg width="24" height="24" viewBox="0 0 24 24" fill="none" xmlns="http://www.w3.org/2000/svg">
<path fill-rule="evenodd" clip-rule="evenodd" d="M15.6543 3.73846C14.4337 3.72785 13.2579 4.19706 12.3799 5.04502L12.3696 5.05515L11.1122 6.30519C10.7205 6.69458 10.7187 7.32774 11.1081 7.7194C11.4975 8.11106 12.1306 8.11291 12.5223 7.72352L13.7741 6.47898C14.2744 5.99825 14.943 5.73235 15.6369 5.73838C16.3331 5.74443 16.999 6.02367 17.4913 6.51594C17.9836 7.00822 18.2628 7.67416 18.2689 8.37032C18.2749 9.06381 18.0093 9.73202 17.5292 10.2322L15.3428 12.4186L15.3426 12.4187C15.0735 12.688 14.7495 12.8962 14.3928 13.0293C14.0361 13.1623 13.6549 13.2171 13.2752 13.1899C12.8954 13.1627 12.526 13.0542 12.1918 12.8716C11.8577 12.6891 11.5668 12.4368 11.3387 12.132C11.0079 11.6897 10.3812 11.5994 9.93899 11.9302C9.49674 12.261 9.40639 12.8877 9.7372 13.3299C10.137 13.8644 10.6471 14.3067 11.2329 14.6268C11.8187 14.9468 12.4665 15.1371 13.1323 15.1848C13.7981 15.2325 14.4664 15.1364 15.0918 14.9031C15.7172 14.6698 16.2852 14.3048 16.7571 13.8327L18.95 11.6397L18.9622 11.6273C19.8102 10.7494 20.2794 9.57349 20.2688 8.35294C20.2582 7.13238 19.7686 5.96482 18.9055 5.10173C18.0424 4.23864 16.8749 3.74906 15.6543 3.73846ZM10.8679 8.81498C10.202 8.7673 9.53376 8.86337 8.90834 9.09667C8.28297 9.32995 7.71509 9.69498 7.24319 10.167L7.24306 10.1671L5.05013 12.3601L5.03794 12.3725C4.18998 13.2504 3.72077 14.4263 3.73138 15.6469C3.74198 16.8674 4.23156 18.035 5.09465 18.8981C5.95774 19.7612 7.1253 20.2507 8.34586 20.2614C9.56641 20.272 10.7423 19.8028 11.6203 18.9548L11.6327 18.9426L12.8827 17.6926C13.2732 17.302 13.2732 16.6689 12.8827 16.2783C12.4922 15.8878 11.859 15.8878 11.4685 16.2783L10.2251 17.5217C9.72495 18.0019 9.05673 18.2675 8.36324 18.2614C7.66708 18.2554 7.00114 17.9761 6.50886 17.4839C6.01659 16.9916 5.73735 16.3257 5.7313 15.6295C5.72528 14.936 5.99082 14.2678 6.47097 13.7677L8.6574 11.5812L8.65753 11.5811C8.9267 11.3118 9.25063 11.1036 9.60734 10.9705C9.96406 10.8375 10.3452 10.7827 10.725 10.8099C11.1047 10.8371 11.4742 10.9456 11.8083 11.1282C12.1424 11.3107 12.4334 11.563 12.6614 11.8678C12.9922 12.3101 13.6189 12.4004 14.0612 12.0696C14.5034 11.7388 14.5938 11.1121 14.263 10.6699C13.8631 10.1354 13.353 9.69308 12.7672 9.37303C12.1814 9.05299 11.5337 8.86267 10.8679 8.81498Z" fill="currentColor"/>
</svg>
