<svg width="24" height="24" viewBox="0 0 24 24" fill="none" xmlns="http://www.w3.org/2000/svg">
<g clip-path="url(#clip0_1770_10676)">
<path fill-rule="evenodd" clip-rule="evenodd" d="M0.93222 12C0.93222 5.88747 5.88744 0.932251 12 0.932251C18.1126 0.932251 23.0678 5.88747 23.0678 12C23.0678 18.1126 18.1126 23.0678 12 23.0678C5.88744 23.0678 0.93222 18.1126 0.93222 12ZM16.0631 10.4699C16.4536 10.0793 16.4536 9.44617 16.0631 9.05564C15.6725 8.66512 15.0394 8.66512 14.6488 9.05564L10.4746 13.2299L9.35119 12.1065C8.96067 11.716 8.3275 11.716 7.93698 12.1065C7.54645 12.497 7.54645 13.1302 7.93698 13.5207L9.76748 15.3512C9.95502 15.5388 10.2094 15.6441 10.4746 15.6441C10.7398 15.6441 10.9942 15.5388 11.1817 15.3512L16.0631 10.4699Z" fill="#3AC270"/>
</g>
<defs>
<clipPath id="clip0_1770_10676">
<rect width="24" height="24" fill="white"/>
</clipPath>
</defs>
</svg>
