<svg width="24" height="24" viewBox="0 0 24 24" fill="none" xmlns="http://www.w3.org/2000/svg">
<path fill-rule="evenodd" clip-rule="evenodd" d="M12.3598 18.7682C11.9356 18.4146 11.8782 17.7841 12.2318 17.3598L16.6983 12L12.2318 6.64016C11.8782 6.21588 11.9356 5.58532 12.3598 5.23175C12.7841 4.87819 13.4147 4.93551 13.7682 5.35979L18.7682 11.3598C19.0773 11.7306 19.0773 12.2693 18.7682 12.6402L13.7682 18.6402C13.4147 19.0644 12.7841 19.1218 12.3598 18.7682Z" fill="currentColor"/>
<path fill-rule="evenodd" clip-rule="evenodd" d="M5.35984 18.7682C4.93556 18.4146 4.87824 17.7841 5.2318 17.3598L9.69832 12L5.2318 6.64016C4.87824 6.21588 4.93556 5.58532 5.35984 5.23175C5.78412 4.87819 6.41468 4.93551 6.76825 5.35979L11.7682 11.3598C12.0773 11.7306 12.0773 12.2693 11.7682 12.6402L6.76825 18.6402C6.41468 19.0644 5.78412 19.1218 5.35984 18.7682Z" fill="currentColor"/>
</svg>
