<svg width="24" height="24" viewBox="0 0 24 24" fill="none" xmlns="http://www.w3.org/2000/svg">
<g clip-path="url(#clip0_118_395)">
<path d="M7.85839 2.07006C6.79439 2.12026 6.06779 2.29006 5.43259 2.53966C4.77519 2.79586 4.21799 3.13966 3.66359 3.69606C3.10919 4.25246 2.76779 4.81006 2.51339 5.46846C2.26719 6.10506 2.10039 6.83226 2.05339 7.89686C2.00639 8.96146 1.99599 9.30366 2.00119 12.0193C2.00639 14.7349 2.01839 15.0753 2.06999 16.1421C2.12079 17.2059 2.28999 17.9323 2.53959 18.5677C2.79619 19.2251 3.13959 19.7821 3.69619 20.3367C4.25279 20.8913 4.80999 21.2319 5.46999 21.4867C6.10599 21.7325 6.83339 21.9001 7.89779 21.9467C8.96219 21.9933 9.30479 22.0041 12.0196 21.9989C14.7344 21.9937 15.0762 21.9817 16.1428 21.9311C17.2094 21.8805 17.932 21.7101 18.5676 21.4617C19.225 21.2045 19.7824 20.8617 20.3366 20.3049C20.8908 19.7481 21.232 19.1901 21.4862 18.5313C21.7326 17.8953 21.9 17.1679 21.9462 16.1043C21.9928 15.0369 22.0038 14.6961 21.9986 11.9809C21.9934 9.26566 21.9812 8.92526 21.9306 7.85886C21.88 6.79246 21.7106 6.06826 21.4612 5.43246C21.2042 4.77506 20.8612 4.21846 20.3048 3.66346C19.7484 3.10846 19.19 2.76746 18.5314 2.51386C17.895 2.26766 17.168 2.09986 16.1036 2.05386C15.0392 2.00786 14.6966 1.99606 11.9808 2.00126C9.265 2.00646 8.92499 2.01806 7.85839 2.07006ZM7.97519 20.1477C7.00019 20.1053 6.47079 19.9433 6.11799 19.8077C5.65079 19.6277 5.31799 19.4101 4.96639 19.0619C4.61479 18.7137 4.39879 18.3797 4.21639 17.9135C4.07939 17.5607 3.91439 17.0319 3.86879 16.0569C3.81919 15.0031 3.80879 14.6867 3.80299 12.0169C3.79719 9.34706 3.80739 9.03106 3.85359 7.97686C3.89519 7.00266 4.05819 6.47266 4.19359 6.12006C4.37359 5.65226 4.59039 5.32006 4.93939 4.96866C5.28839 4.61726 5.62139 4.40086 6.08799 4.21846C6.44039 4.08086 6.96919 3.91726 7.94379 3.87086C8.99839 3.82086 9.31439 3.81086 11.9838 3.80506C14.6532 3.79926 14.97 3.80926 16.025 3.85566C16.9992 3.89806 17.5294 4.05946 17.8816 4.19566C18.349 4.37566 18.6816 4.59186 19.033 4.94146C19.3844 5.29106 19.601 5.62286 19.7834 6.09046C19.9212 6.44186 20.0848 6.97046 20.1308 7.94566C20.181 9.00026 20.1924 9.31646 20.1972 11.9857C20.202 14.6549 20.1926 14.9719 20.1464 16.0257C20.1038 17.0007 19.9422 17.5303 19.8064 17.8835C19.6264 18.3505 19.4094 18.6835 19.0602 19.0347C18.711 19.3859 18.3784 19.6023 17.9116 19.7847C17.5596 19.9221 17.0302 20.0861 16.0564 20.1325C15.0018 20.1821 14.6858 20.1925 12.0154 20.1983C9.34499 20.2041 9.02999 20.1933 7.97539 20.1477M16.1274 6.65546C16.1278 6.89281 16.1986 7.12472 16.3308 7.32185C16.463 7.51897 16.6507 7.67247 16.8701 7.76292C17.0896 7.85336 17.3309 7.8767 17.5636 7.82998C17.7963 7.78326 18.0099 7.66857 18.1775 7.50043C18.345 7.33229 18.4589 7.11824 18.5048 6.88536C18.5506 6.65248 18.5264 6.41123 18.4352 6.19211C18.3439 5.973 18.1897 5.78587 17.9921 5.65439C17.7945 5.52291 17.5623 5.45299 17.325 5.45346C17.0068 5.4541 16.7019 5.58108 16.4773 5.80649C16.2527 6.03189 16.1269 6.33727 16.1274 6.65546ZM6.86539 12.0101C6.87099 14.8461 9.17419 17.1399 12.0096 17.1345C14.845 17.1291 17.1404 14.8261 17.135 11.9901C17.1296 9.15406 14.8258 6.85966 11.99 6.86526C9.15419 6.87086 6.85999 9.17446 6.86539 12.0101ZM8.66659 12.0065C8.66529 11.3472 8.85952 10.7023 9.22471 10.1534C9.5899 9.60452 10.1097 9.17624 10.7183 8.92274C11.3269 8.66924 11.997 8.6019 12.6438 8.72924C13.2907 8.85658 13.8853 9.17287 14.3524 9.63813C14.8195 10.1034 15.1381 10.6967 15.268 11.3431C15.3979 11.9894 15.3333 12.6598 15.0822 13.2694C14.8311 13.879 14.4049 14.4004 13.8574 14.7678C13.31 15.1352 12.6659 15.332 12.0066 15.3333C11.5688 15.3342 11.1352 15.2489 10.7304 15.0822C10.3256 14.9155 9.95763 14.6706 9.64747 14.3617C9.33731 14.0528 9.09105 13.6858 8.92275 13.2817C8.75445 12.8775 8.66741 12.4442 8.66659 12.0065Z" fill="currentColor"/>
</g>
<defs>
<clipPath id="clip0_118_395">
<rect width="20" height="20" fill="currentColor" transform="translate(2 2)"/>
</clipPath>
</defs>
</svg>
