<svg width="24" height="24" viewBox="0 0 24 24" fill="none" xmlns="http://www.w3.org/2000/svg">
<path fill-rule="evenodd" clip-rule="evenodd" d="M5.0201 2.00098H18.9799C20.6479 2.00098 22 3.35312 22 5.02108V18.9789C22 20.6468 20.6479 21.999 18.9799 21.999H5.0201C3.35214 21.999 2 20.6468 2 18.9789V5.02108C2 3.35312 3.35214 2.00098 5.0201 2.00098ZM8.3992 18.7849V9.6965H5.3784V18.7849H8.3992ZM6.8892 8.4549C7.9426 8.4549 8.5983 7.75701 8.5983 6.8849C8.57866 5.99311 7.94264 5.3146 6.9092 5.3146C5.8759 5.3146 5.2002 5.99312 5.2002 6.8849C5.2002 7.75706 5.85573 8.4549 6.8695 8.4549H6.8892ZM13.092 18.7848H10.0712L10.0713 18.7847C10.0713 18.7847 10.1109 10.5491 10.0713 9.69626H13.0921V10.9831C13.4935 10.3638 14.2121 9.48306 15.8145 9.48306C17.802 9.48306 19.2923 10.782 19.2923 13.5736V18.7848H16.2717V13.9227C16.2717 12.7009 15.8344 11.8675 14.7413 11.8675C13.9068 11.8675 13.4098 12.4295 13.1914 12.9723C13.1116 13.1664 13.092 13.4378 13.092 13.7094V18.7848Z" fill="currentColor"/>
</svg>
