<svg width="24" height="24" viewBox="0 0 24 24" fill="none" xmlns="http://www.w3.org/2000/svg">
<path fill-rule="evenodd" clip-rule="evenodd" d="M2 12C2 6.47734 6.47734 2 12 2C17.5227 2 22 6.47734 22 12C22 17.5227 17.5227 22 12 22H3.44844C2.91406 22 2.64609 21.3539 3.02422 20.9758L4.92891 19.0711C3.11953 17.2617 2 14.7617 2 12ZM15.6563 7.99844C14.868 7.99844 14.2078 7.45078 14.0344 6.71562V6.71719C13.0781 6.85234 12.3406 7.67578 12.3406 8.66797V8.67422C13.8211 8.72969 15.1742 9.14688 16.2461 9.81016C16.6398 9.50703 17.1328 9.32656 17.668 9.32656C18.9578 9.32656 20.0031 10.3719 20.0031 11.6617C20.0031 12.5922 19.4578 13.3961 18.6695 13.7711C18.5961 16.4844 15.6383 18.6672 12.0047 18.6672C8.37109 18.6672 5.41719 16.4867 5.33984 13.7758C4.54531 13.4031 3.99531 12.5969 3.99531 11.6609C3.99531 10.3711 5.04063 9.32578 6.33047 9.32578C6.86797 9.32578 7.36328 9.50781 7.75781 9.81328C8.82031 9.15469 10.1586 8.7375 11.6242 8.67578V8.66719C11.6242 7.28203 12.6766 6.13906 14.0242 5.99453C14.1805 5.23594 14.8516 4.66562 15.6563 4.66562C16.5766 4.66562 17.3227 5.41172 17.3227 6.33203C17.3227 7.25234 16.5766 7.99844 15.6563 7.99844ZM8.91953 11.6461C8.26562 11.6461 7.70312 12.2961 7.66406 13.143C7.625 13.9898 8.19766 14.3344 8.85234 14.3344C9.50703 14.3344 9.99531 14.0266 10.0344 13.1797C10.0734 12.3328 9.57344 11.6461 8.91953 11.6461ZM16.3461 13.143C16.3078 12.2961 15.7453 11.6461 15.0906 11.6461C14.4359 11.6461 13.9367 12.3328 13.9758 13.1797C14.0148 14.0273 14.5039 14.3344 15.1578 14.3344C15.8117 14.3344 16.3852 13.9898 16.3461 13.143ZM14.4656 15.3563C14.5133 15.2422 14.4352 15.1148 14.3125 15.1023C13.593 15.0297 12.8164 14.9898 12.0047 14.9898C11.193 14.9898 10.4156 15.0297 9.69687 15.1023C9.57422 15.1148 9.49609 15.2422 9.54375 15.3563C9.94687 16.318 10.8961 16.9937 12.0047 16.9937C13.1133 16.9937 14.0633 16.318 14.4656 15.3563Z" fill="currentColor"/>
</svg>
