<svg width="24" height="24" viewBox="0 0 24 24" fill="none" xmlns="http://www.w3.org/2000/svg">
<path fill-rule="evenodd" clip-rule="evenodd" d="M3.37489 10.8878C8.74359 8.62988 12.3236 7.14132 14.1147 6.42211C19.2292 4.36861 20.2918 4.0119 20.9846 4.00013C21.137 3.99753 21.4775 4.03398 21.6982 4.20681C21.8845 4.35275 21.9358 4.54989 21.9603 4.68826C21.9849 4.82661 22.0154 5.14181 21.991 5.38811C21.7139 8.19921 20.5147 15.021 19.9046 18.1694C19.6465 19.5016 19.1382 19.9484 18.646 19.9921C17.5765 20.087 16.7645 19.3097 15.7286 18.6543C14.1078 17.6287 13.1921 16.9902 11.6187 15.9893C9.80053 14.8327 10.9792 14.197 12.0154 13.158C12.2866 12.886 16.9987 8.74869 17.0899 8.37329C17.1014 8.32632 17.112 8.15136 17.0042 8.05902C16.8965 7.96662 16.7377 7.99822 16.6229 8.02335C16.4603 8.05896 13.871 9.71106 8.85486 12.9798C8.11988 13.4669 7.45417 13.7044 6.8577 13.6919C6.20015 13.6782 4.93528 13.333 3.99498 13.0379C2.84166 12.6761 1.92503 12.4847 2.00485 11.87C2.04642 11.5499 2.5031 11.2225 3.37489 10.8878Z" fill="currentColor"/>
</svg>
