<svg width="24" height="24" viewBox="0 0 24 24" fill="none" xmlns="http://www.w3.org/2000/svg">
<path fill-rule="evenodd" clip-rule="evenodd" d="M20.9292 4.47788C21.9132 4.74128 22.6865 5.51455 22.9499 6.49854C23.4259 8.28025 23.4278 11.9998 23.4278 11.9998C23.4278 11.9998 23.4278 15.7194 22.9499 17.5012C22.6865 18.4851 21.9132 19.2584 20.9292 19.5218C19.1476 19.9997 12 19.9997 12 19.9997C12 19.9997 4.85244 19.9997 3.07073 19.5218C2.08675 19.2584 1.31348 18.4851 1.05008 17.5012C0.572193 15.7194 0.572193 11.9998 0.572193 11.9998C0.572193 11.9998 0.572193 8.28025 1.05008 6.49854C1.31348 5.51455 2.08675 4.74128 3.07073 4.47788C4.85244 4 12 4 12 4C12 4 19.1476 4 20.9292 4.47788ZM15.6467 12.0004L9.70887 15.4283V8.57238L15.6467 12.0004Z" fill="currentColor"/>
</svg>
