<svg width="24" height="24" viewBox="0 0 24 24" fill="none" xmlns="http://www.w3.org/2000/svg">
<path fill-rule="evenodd" clip-rule="evenodd" d="M1.10001 12C1.10001 5.98007 5.9801 1.09998 12 1.09998C18.0199 1.09998 22.9 5.98007 22.9 12C22.9 18.0199 18.0199 22.9 12 22.9C5.9801 22.9 1.10001 18.0199 1.10001 12ZM12 6.59998C12.5523 6.59998 13 7.04769 13 7.59998V12C13 12.5523 12.5523 13 12 13C11.4477 13 11 12.5523 11 12V7.59998C11 7.04769 11.4477 6.59998 12 6.59998ZM12 15.4C12.5523 15.4 13 15.8477 13 16.4V16.401C13 16.9533 12.5523 17.401 12 17.401C11.4477 17.401 11 16.9533 11 16.401V16.4C11 15.8477 11.4477 15.4 12 15.4Z" fill="currentColor"/>
</svg>