<svg width="24" height="24" viewBox="0 0 24 24" fill="none" xmlns="http://www.w3.org/2000/svg">
<path d="M17.1577 21.1946C16.0644 22.2474 14.8581 22.0833 13.7082 21.5869C12.4858 21.0805 11.3682 21.0485 10.0772 21.5869C8.46946 22.2754 7.61617 22.0753 6.64789 21.1946C1.18118 15.6104 1.98807 7.10388 8.20117 6.78364C9.70805 6.8637 10.7631 7.61027 11.6506 7.67232C12.9699 7.40611 14.2327 6.64353 15.6448 6.74361C17.3413 6.87971 18.6101 7.54422 19.4574 8.73913C15.9675 10.8207 16.7946 15.3842 20 16.6652C19.3585 18.3364 18.5355 19.9877 17.1557 21.2086L17.1577 21.1946ZM11.5296 6.72359C11.3662 4.24171 13.3935 2.20015 15.7255 2C16.0462 4.86218 13.1031 7.00381 11.5296 6.72359Z" fill="currentColor"/>
</svg>
