<svg width="362" height="86" viewBox="0 0 362 86" fill="none" xmlns="http://www.w3.org/2000/svg">
<rect width="362" height="86" rx="12" fill="white"/>
<path d="M17.0043 31V20.8182H20.902C21.6378 20.8182 22.2493 20.9342 22.7365 21.1662C23.227 21.3949 23.5933 21.7081 23.8352 22.1058C24.0805 22.5036 24.2031 22.9543 24.2031 23.4581C24.2031 23.8724 24.1236 24.227 23.9645 24.522C23.8054 24.8137 23.5916 25.0507 23.3232 25.233C23.0547 25.4152 22.7547 25.5462 22.4233 25.6257V25.7251C22.7846 25.745 23.1309 25.8561 23.4624 26.0582C23.7971 26.2571 24.0705 26.5388 24.2827 26.9034C24.4948 27.268 24.6009 27.7088 24.6009 28.2259C24.6009 28.7528 24.4732 29.2268 24.218 29.6477C23.9628 30.0653 23.5784 30.3951 23.0646 30.6371C22.5509 30.879 21.9046 31 21.1257 31H17.0043ZM18.8487 29.4588H20.8324C21.5019 29.4588 21.9841 29.3312 22.2791 29.076C22.5774 28.8175 22.7266 28.486 22.7266 28.0817C22.7266 27.7801 22.652 27.5083 22.5028 27.2663C22.3537 27.0211 22.1416 26.8288 21.8665 26.6896C21.5914 26.5471 21.2633 26.4759 20.8821 26.4759H18.8487V29.4588ZM18.8487 25.1484H20.6733C20.9915 25.1484 21.2782 25.0904 21.5334 24.9744C21.7886 24.8551 21.9891 24.6877 22.1349 24.4723C22.2841 24.2536 22.3587 23.995 22.3587 23.6967C22.3587 23.3023 22.2195 22.9775 21.9411 22.7223C21.666 22.4671 21.2566 22.3395 20.7131 22.3395H18.8487V25.1484ZM30.9931 27.7884V23.3636H32.7928V31H31.0478V29.6428H30.9682C30.7959 30.0703 30.5125 30.42 30.1181 30.6918C29.727 30.9635 29.2447 31.0994 28.6713 31.0994C28.1709 31.0994 27.7284 30.9884 27.3439 30.7663C26.9628 30.541 26.6645 30.2145 26.449 29.7869C26.2336 29.3561 26.1259 28.8357 26.1259 28.2259V23.3636H27.9256V27.9474C27.9256 28.4313 28.0582 28.8158 28.3233 29.1009C28.5885 29.3859 28.9365 29.5284 29.3674 29.5284C29.6325 29.5284 29.8894 29.4638 30.138 29.3345C30.3865 29.2053 30.5904 29.013 30.7495 28.7578C30.9119 28.4993 30.9931 28.1761 30.9931 27.7884ZM40.679 25.3821L39.0384 25.5611C38.992 25.3954 38.9107 25.2396 38.7947 25.0938C38.6821 24.9479 38.5296 24.8303 38.3374 24.7408C38.1451 24.6513 37.9098 24.6065 37.6314 24.6065C37.2569 24.6065 36.942 24.6877 36.6868 24.8501C36.4349 25.0125 36.3106 25.223 36.3139 25.4815C36.3106 25.7036 36.3918 25.8842 36.5575 26.0234C36.7266 26.1626 37.005 26.277 37.3928 26.3665L38.6953 26.6449C39.4179 26.8007 39.9548 27.0476 40.3061 27.3857C40.6607 27.7237 40.8397 28.1662 40.843 28.7131C40.8397 29.1937 40.6989 29.6179 40.4205 29.9858C40.1454 30.3504 39.7625 30.6354 39.272 30.8409C38.7815 31.0464 38.218 31.1491 37.5817 31.1491C36.647 31.1491 35.8946 30.9536 35.3246 30.5625C34.7545 30.1681 34.4148 29.6196 34.3054 28.9169L36.0604 28.7479C36.1399 29.0926 36.3089 29.3527 36.5675 29.5284C36.826 29.7041 37.1624 29.7919 37.5767 29.7919C38.0043 29.7919 38.3473 29.7041 38.6058 29.5284C38.8677 29.3527 38.9986 29.1357 38.9986 28.8771C38.9986 28.6584 38.9141 28.4777 38.745 28.3352C38.5793 28.1927 38.3208 28.0833 37.9695 28.0071L36.6669 27.7337C35.9344 27.5812 35.3925 27.3243 35.0412 26.9631C34.6899 26.5985 34.5159 26.1378 34.5192 25.581C34.5159 25.1103 34.6435 24.7027 34.902 24.358C35.1638 24.0099 35.5268 23.7415 35.9908 23.5526C36.4581 23.3603 36.9967 23.2642 37.6065 23.2642C38.5014 23.2642 39.2057 23.4548 39.7195 23.8359C40.2365 24.2171 40.5563 24.7325 40.679 25.3821ZM42.3271 31V23.3636H44.1268V31H42.3271ZM43.2319 22.2798C42.9469 22.2798 42.7016 22.1854 42.4961 21.9964C42.2906 21.8042 42.1879 21.5739 42.1879 21.3054C42.1879 21.0336 42.2906 20.8033 42.4961 20.6143C42.7016 20.4221 42.9469 20.326 43.2319 20.326C43.5202 20.326 43.7655 20.4221 43.9677 20.6143C44.1732 20.8033 44.2759 21.0336 44.2759 21.3054C44.2759 21.5739 44.1732 21.8042 43.9677 21.9964C43.7655 22.1854 43.5202 22.2798 43.2319 22.2798ZM47.7772 26.5256V31H45.9775V23.3636H47.6976V24.6612H47.7871C47.9628 24.2337 48.2428 23.8939 48.6273 23.642C49.0151 23.3902 49.494 23.2642 50.0641 23.2642C50.5911 23.2642 51.0501 23.3769 51.4412 23.6023C51.8356 23.8277 52.1406 24.1541 52.356 24.5817C52.5748 25.0092 52.6825 25.5279 52.6792 26.1378V31H50.8794V26.4162C50.8794 25.9058 50.7469 25.5064 50.4817 25.218C50.2199 24.9297 49.8569 24.7855 49.3929 24.7855C49.0781 24.7855 48.798 24.8551 48.5527 24.9943C48.3108 25.1302 48.1202 25.3274 47.981 25.5859C47.8451 25.8445 47.7772 26.1577 47.7772 26.5256ZM57.8894 31.1491C57.1238 31.1491 56.4625 30.9901 55.9057 30.6719C55.3522 30.3504 54.9263 29.8963 54.628 29.3097C54.3297 28.7197 54.1806 28.0253 54.1806 27.2266C54.1806 26.4411 54.3297 25.7517 54.628 25.1584C54.9296 24.5618 55.3506 24.0978 55.8908 23.7663C56.431 23.4316 57.0658 23.2642 57.7949 23.2642C58.2656 23.2642 58.7097 23.3404 59.1273 23.4929C59.5482 23.642 59.9194 23.8741 60.2409 24.1889C60.5658 24.5038 60.821 24.9048 61.0066 25.392C61.1922 25.8759 61.285 26.4527 61.285 27.1222V27.674H55.0257V26.4609H59.5598C59.5565 26.1162 59.4819 25.8097 59.3361 25.5412C59.1903 25.2694 58.9864 25.0556 58.7246 24.8999C58.4661 24.7441 58.1645 24.6662 57.8198 24.6662C57.4519 24.6662 57.1287 24.7557 56.8503 24.9347C56.5719 25.1103 56.3548 25.3423 56.199 25.6307C56.0466 25.9157 55.9687 26.2289 55.9654 26.5703V27.6293C55.9654 28.0734 56.0466 28.4545 56.209 28.7727C56.3714 29.0876 56.5984 29.3295 56.8901 29.4986C57.1818 29.6643 57.5231 29.7472 57.9142 29.7472C58.1761 29.7472 58.4131 29.7107 58.6252 29.6378C58.8373 29.5616 59.0212 29.4505 59.177 29.3047C59.3328 29.1589 59.4505 28.9782 59.53 28.7628L61.2104 28.9517C61.1043 29.3958 60.9022 29.7836 60.6039 30.1151C60.3089 30.4432 59.931 30.6984 59.4703 30.8807C59.0096 31.0597 58.4827 31.1491 57.8894 31.1491ZM68.843 25.3821L67.2024 25.5611C67.156 25.3954 67.0748 25.2396 66.9588 25.0938C66.8461 24.9479 66.6937 24.8303 66.5014 24.7408C66.3092 24.6513 66.0739 24.6065 65.7955 24.6065C65.4209 24.6065 65.1061 24.6877 64.8509 24.8501C64.599 25.0125 64.4747 25.223 64.478 25.4815C64.4747 25.7036 64.5559 25.8842 64.7216 26.0234C64.8906 26.1626 65.169 26.277 65.5568 26.3665L66.8594 26.6449C67.5819 26.8007 68.1188 27.0476 68.4702 27.3857C68.8248 27.7237 69.0038 28.1662 69.0071 28.7131C69.0038 29.1937 68.8629 29.6179 68.5845 29.9858C68.3094 30.3504 67.9266 30.6354 67.4361 30.8409C66.9455 31.0464 66.3821 31.1491 65.7457 31.1491C64.8111 31.1491 64.0587 30.9536 63.4886 30.5625C62.9186 30.1681 62.5788 29.6196 62.4695 28.9169L64.2244 28.7479C64.304 29.0926 64.473 29.3527 64.7315 29.5284C64.9901 29.7041 65.3265 29.7919 65.7408 29.7919C66.1683 29.7919 66.5114 29.7041 66.7699 29.5284C67.0317 29.3527 67.1626 29.1357 67.1626 28.8771C67.1626 28.6584 67.0781 28.4777 66.9091 28.3352C66.7434 28.1927 66.4848 28.0833 66.1335 28.0071L64.831 27.7337C64.0985 27.5812 63.5566 27.3243 63.2053 26.9631C62.8539 26.5985 62.6799 26.1378 62.6832 25.581C62.6799 25.1103 62.8075 24.7027 63.0661 24.358C63.3279 24.0099 63.6908 23.7415 64.1548 23.5526C64.6222 23.3603 65.1607 23.2642 65.7706 23.2642C66.6655 23.2642 67.3698 23.4548 67.8835 23.8359C68.4006 24.2171 68.7204 24.7325 68.843 25.3821ZM76.5266 25.3821L74.886 25.5611C74.8396 25.3954 74.7584 25.2396 74.6424 25.0938C74.5297 24.9479 74.3772 24.8303 74.185 24.7408C73.9928 24.6513 73.7575 24.6065 73.479 24.6065C73.1045 24.6065 72.7897 24.6877 72.5344 24.8501C72.2826 25.0125 72.1583 25.223 72.1616 25.4815C72.1583 25.7036 72.2395 25.8842 72.4052 26.0234C72.5742 26.1626 72.8526 26.277 73.2404 26.3665L74.543 26.6449C75.2655 26.8007 75.8024 27.0476 76.1538 27.3857C76.5084 27.7237 76.6874 28.1662 76.6907 28.7131C76.6874 29.1937 76.5465 29.6179 76.2681 29.9858C75.993 30.3504 75.6102 30.6354 75.1197 30.8409C74.6291 31.0464 74.0657 31.1491 73.4293 31.1491C72.4947 31.1491 71.7423 30.9536 71.1722 30.5625C70.6022 30.1681 70.2624 29.6196 70.1531 28.9169L71.908 28.7479C71.9876 29.0926 72.1566 29.3527 72.4151 29.5284C72.6737 29.7041 73.0101 29.7919 73.4244 29.7919C73.8519 29.7919 74.195 29.7041 74.4535 29.5284C74.7153 29.3527 74.8462 29.1357 74.8462 28.8771C74.8462 28.6584 74.7617 28.4777 74.5927 28.3352C74.427 28.1927 74.1684 28.0833 73.8171 28.0071L72.5146 27.7337C71.7821 27.5812 71.2402 27.3243 70.8888 26.9631C70.5375 26.5985 70.3635 26.1378 70.3668 25.581C70.3635 25.1103 70.4911 24.7027 70.7496 24.358C71.0115 24.0099 71.3744 23.7415 71.8384 23.5526C72.3058 23.3603 72.8443 23.2642 73.4542 23.2642C74.3491 23.2642 75.0534 23.4548 75.5671 23.8359C76.0842 24.2171 76.404 24.7325 76.5266 25.3821Z" fill="#535862"/>
<path d="M20.7841 61.8276V47.2821H21.7159V61.8276H20.7841ZM23.4716 51.9355C23.4186 51.4393 23.1951 51.053 22.8011 50.7765C22.411 50.4999 21.9034 50.3617 21.2784 50.3617C20.839 50.3617 20.4621 50.428 20.1477 50.5605C19.8333 50.6931 19.5928 50.873 19.4261 51.1003C19.2595 51.3276 19.1742 51.5871 19.1705 51.8787C19.1705 52.1212 19.2254 52.3314 19.3352 52.5094C19.4489 52.6874 19.6023 52.839 19.7955 52.964C19.9886 53.0852 20.2027 53.1874 20.4375 53.2708C20.6723 53.3541 20.9091 53.4242 21.1477 53.481L22.2386 53.7537C22.678 53.856 23.1004 53.9943 23.5057 54.1685C23.9148 54.3427 24.2803 54.5624 24.6023 54.8276C24.928 55.0927 25.1856 55.4128 25.375 55.7878C25.5644 56.1628 25.6591 56.6022 25.6591 57.106C25.6591 57.7878 25.4848 58.3882 25.1364 58.9071C24.7879 59.4223 24.2841 59.8257 23.625 60.1174C22.9697 60.4052 22.1761 60.5492 21.2443 60.5492C20.339 60.5492 19.553 60.409 18.8864 60.1287C18.2235 59.8484 17.7045 59.4393 17.3295 58.9015C16.9583 58.3636 16.7576 57.7083 16.7273 56.9355H18.8011C18.8314 57.3408 18.9564 57.678 19.1761 57.9469C19.3958 58.2158 19.6818 58.4166 20.0341 58.5492C20.3902 58.6818 20.7879 58.748 21.2273 58.748C21.6856 58.748 22.0871 58.6799 22.4318 58.5435C22.7803 58.4033 23.053 58.2102 23.25 57.964C23.447 57.714 23.5473 57.4223 23.5511 57.089C23.5473 56.7859 23.4583 56.5359 23.2841 56.339C23.1098 56.1382 22.8655 55.9715 22.5511 55.839C22.2405 55.7026 21.8769 55.5814 21.4602 55.4753L20.1364 55.1344C19.178 54.8882 18.4205 54.5151 17.8636 54.0151C17.3106 53.5113 17.0341 52.8427 17.0341 52.0094C17.0341 51.3238 17.2197 50.7234 17.5909 50.2083C17.9659 49.6931 18.4754 49.2935 19.1193 49.0094C19.7633 48.7215 20.4924 48.5776 21.3068 48.5776C22.1326 48.5776 22.8561 48.7215 23.4773 49.0094C24.1023 49.2935 24.5928 49.6893 24.9489 50.1969C25.3049 50.7007 25.4886 51.2802 25.5 51.9355H23.4716ZM32.1577 48.7367V60.373H30.0497V50.7878H29.9815L27.2599 52.5265V50.5946L30.152 48.7367H32.1577ZM39.2884 60.5321C38.4702 60.5321 37.7429 60.392 37.1065 60.1117C36.474 59.8314 35.974 59.4412 35.6065 58.9412C35.2391 58.4412 35.044 57.8636 35.0213 57.2083H37.1577C37.1766 57.5227 37.2808 57.7973 37.4702 58.0321C37.6596 58.2632 37.9115 58.4431 38.2259 58.5719C38.5402 58.7007 38.8925 58.7651 39.2827 58.7651C39.6993 58.7651 40.0687 58.6931 40.3906 58.5492C40.7126 58.4015 40.9645 58.1969 41.1463 57.9355C41.3281 57.6742 41.4171 57.373 41.4134 57.0321C41.4171 56.6799 41.3262 56.3693 41.1406 56.1003C40.955 55.8314 40.6861 55.6212 40.3338 55.4696C39.9853 55.3181 39.5649 55.2424 39.0724 55.2424H38.044V53.6174H39.0724C39.4777 53.6174 39.8319 53.5473 40.1349 53.4071C40.4418 53.267 40.6823 53.07 40.8565 52.8162C41.0308 52.5587 41.116 52.2613 41.1122 51.9242C41.116 51.5946 41.0421 51.3087 40.8906 51.0662C40.7429 50.82 40.5327 50.6287 40.2599 50.4924C39.991 50.356 39.6747 50.2878 39.3111 50.2878C38.955 50.2878 38.6255 50.3522 38.3224 50.481C38.0194 50.6098 37.7751 50.7935 37.5895 51.0321C37.4039 51.267 37.3054 51.5473 37.294 51.873H35.2656C35.2808 51.2215 35.4683 50.6496 35.8281 50.1571C36.1918 49.6609 36.6766 49.2746 37.2827 48.998C37.8887 48.7177 38.5687 48.5776 39.3224 48.5776C40.099 48.5776 40.7732 48.7234 41.3452 49.0151C41.9209 49.303 42.366 49.6912 42.6804 50.1799C42.9948 50.6685 43.152 51.2083 43.152 51.7992C43.1558 52.4545 42.9626 53.0037 42.5724 53.4469C42.1861 53.8901 41.6785 54.1799 41.0497 54.3162V54.4071C41.8679 54.5208 42.4948 54.8238 42.9304 55.3162C43.3698 55.8049 43.5876 56.4128 43.5838 57.1401C43.5838 57.7916 43.3982 58.3749 43.027 58.8901C42.6596 59.4015 42.152 59.803 41.5043 60.0946C40.8603 60.3863 40.1217 60.5321 39.2884 60.5321ZM49.5795 60.5321C48.822 60.5321 48.1439 60.3901 47.5455 60.106C46.947 59.8181 46.4716 59.4242 46.1193 58.9242C45.7708 58.4242 45.5852 57.8522 45.5625 57.2083H47.608C47.6458 57.6855 47.8523 58.0757 48.2273 58.3787C48.6023 58.678 49.053 58.8276 49.5795 58.8276C49.9924 58.8276 50.3598 58.7329 50.6818 58.5435C51.0038 58.3541 51.2576 58.0908 51.4432 57.7537C51.6288 57.4166 51.7197 57.0321 51.7159 56.6003C51.7197 56.1609 51.6269 55.7708 51.4375 55.4299C51.2481 55.089 50.9886 54.8219 50.6591 54.6287C50.3295 54.4318 49.9508 54.3333 49.5227 54.3333C49.1742 54.3295 48.8314 54.3939 48.4943 54.5265C48.1572 54.659 47.8902 54.8333 47.6932 55.0492L45.7898 54.7367L46.3977 48.7367H53.1477V50.498H48.142L47.8068 53.5833H47.875C48.0909 53.3295 48.3958 53.1193 48.7898 52.9526C49.1837 52.7821 49.6155 52.6969 50.0852 52.6969C50.7898 52.6969 51.4186 52.8636 51.9716 53.1969C52.5246 53.5265 52.9602 53.981 53.2784 54.5605C53.5966 55.1401 53.7557 55.803 53.7557 56.5492C53.7557 57.3181 53.5777 58.0037 53.2216 58.606C52.8693 59.2045 52.3788 59.6761 51.75 60.0208C51.125 60.3617 50.4015 60.5321 49.5795 60.5321ZM56.0852 60.373L61.0341 50.5776V50.498H55.2898V48.7367H63.2159V50.5378L58.2727 60.373H56.0852ZM64.3395 60.498C63.9948 60.498 63.6993 60.3768 63.4531 60.1344C63.2069 59.892 63.0857 59.5965 63.0895 59.248C63.0857 58.9071 63.2069 58.6155 63.4531 58.373C63.6993 58.1306 63.9948 58.0094 64.3395 58.0094C64.6728 58.0094 64.9626 58.1306 65.2088 58.373C65.4588 58.6155 65.5857 58.9071 65.5895 59.248C65.5857 59.4791 65.5251 59.6893 65.4077 59.8787C65.294 60.0681 65.1425 60.2196 64.9531 60.3333C64.7675 60.4431 64.563 60.498 64.3395 60.498ZM71.5384 60.5946C70.6027 60.5946 69.7997 60.3579 69.1293 59.8844C68.4626 59.4071 67.9493 58.7196 67.5895 57.8219C67.2334 56.9204 67.0554 55.8352 67.0554 54.5662C67.0592 53.2973 67.2391 52.2177 67.5952 51.3276C67.955 50.4337 68.4683 49.7518 69.1349 49.2821C69.8054 48.8124 70.6065 48.5776 71.5384 48.5776C72.4702 48.5776 73.2713 48.8124 73.9418 49.2821C74.6122 49.7518 75.1255 50.4337 75.4815 51.3276C75.8414 52.2215 76.0213 53.3011 76.0213 54.5662C76.0213 55.839 75.8414 56.9261 75.4815 57.8276C75.1255 58.7253 74.6122 59.4109 73.9418 59.8844C73.2751 60.3579 72.474 60.5946 71.5384 60.5946ZM71.5384 58.8162C72.2656 58.8162 72.8395 58.4583 73.2599 57.7424C73.6842 57.0227 73.8963 55.964 73.8963 54.5662C73.8963 53.642 73.7997 52.8655 73.6065 52.2367C73.4134 51.6079 73.1406 51.1344 72.7884 50.8162C72.4361 50.4943 72.0194 50.3333 71.5384 50.3333C70.8149 50.3333 70.2429 50.6931 69.8224 51.4128C69.402 52.1287 69.1899 53.1799 69.1861 54.5662C69.1823 55.4943 69.2751 56.2746 69.4645 56.9071C69.6577 57.5397 69.9304 58.017 70.2827 58.339C70.6349 58.6571 71.0535 58.8162 71.5384 58.8162ZM82.2102 60.5946C81.2746 60.5946 80.4716 60.3579 79.8011 59.8844C79.1345 59.4071 78.6212 58.7196 78.2614 57.8219C77.9053 56.9204 77.7273 55.8352 77.7273 54.5662C77.7311 53.2973 77.911 52.2177 78.267 51.3276C78.6269 50.4337 79.1402 49.7518 79.8068 49.2821C80.4773 48.8124 81.2784 48.5776 82.2102 48.5776C83.142 48.5776 83.9432 48.8124 84.6136 49.2821C85.2841 49.7518 85.7973 50.4337 86.1534 51.3276C86.5133 52.2215 86.6932 53.3011 86.6932 54.5662C86.6932 55.839 86.5133 56.9261 86.1534 57.8276C85.7973 58.7253 85.2841 59.4109 84.6136 59.8844C83.947 60.3579 83.1458 60.5946 82.2102 60.5946ZM82.2102 58.8162C82.9375 58.8162 83.5114 58.4583 83.9318 57.7424C84.3561 57.0227 84.5682 55.964 84.5682 54.5662C84.5682 53.642 84.4716 52.8655 84.2784 52.2367C84.0852 51.6079 83.8125 51.1344 83.4602 50.8162C83.108 50.4943 82.6913 50.3333 82.2102 50.3333C81.4867 50.3333 80.9148 50.6931 80.4943 51.4128C80.0739 52.1287 79.8617 53.1799 79.858 54.5662C79.8542 55.4943 79.947 56.2746 80.1364 56.9071C80.3295 57.5397 80.6023 58.017 80.9545 58.339C81.3068 58.6571 81.7254 58.8162 82.2102 58.8162Z" fill="#181D27"/>
<rect x="96.166" y="40.249" width="89.4145" height="28.2487" rx="14.1244" fill="#E8FAF3"/>
<path d="M109.74 56.9758V51.0781H111.078V56.9758H109.74ZM107.46 54.696V53.3579H113.357V54.696H107.46ZM121.012 59.4644V48.5554H121.711V59.4644H121.012ZM123.028 52.0454C122.988 51.6733 122.82 51.3835 122.525 51.1761C122.232 50.9687 121.851 50.865 121.383 50.865C121.053 50.865 120.77 50.9147 120.535 51.0142C120.299 51.1136 120.118 51.2485 119.993 51.419C119.868 51.5894 119.805 51.784 119.802 52.0028C119.802 52.1846 119.843 52.3423 119.925 52.4758C120.01 52.6093 120.126 52.723 120.27 52.8167C120.415 52.9076 120.576 52.9843 120.752 53.0468C120.928 53.1093 121.106 53.1619 121.285 53.2045L122.103 53.409C122.432 53.4858 122.749 53.5894 123.053 53.7201C123.36 53.8508 123.634 54.0156 123.876 54.2144C124.12 54.4133 124.313 54.6534 124.455 54.9346C124.597 55.2159 124.668 55.5454 124.668 55.9233C124.668 56.4346 124.537 56.8849 124.276 57.2741C124.015 57.6605 123.637 57.963 123.143 58.1818C122.651 58.3977 122.056 58.5056 121.357 58.5056C120.678 58.5056 120.089 58.4005 119.589 58.1903C119.091 57.9801 118.702 57.6733 118.421 57.2698C118.143 56.8664 117.992 56.375 117.969 55.7954H119.525C119.547 56.0994 119.641 56.3522 119.806 56.5539C119.971 56.7556 120.185 56.9062 120.449 57.0056C120.716 57.1051 121.015 57.1548 121.344 57.1548C121.688 57.1548 121.989 57.1036 122.248 57.0014C122.509 56.8963 122.714 56.7514 122.861 56.5667C123.009 56.3792 123.084 56.1605 123.087 55.9105C123.084 55.6832 123.018 55.4957 122.887 55.348C122.756 55.1974 122.573 55.0724 122.337 54.973C122.104 54.8707 121.831 54.7798 121.519 54.7002L120.526 54.4446C119.807 54.2599 119.239 53.9801 118.822 53.6051C118.407 53.2272 118.199 52.7258 118.199 52.1008C118.199 51.5866 118.339 51.1363 118.617 50.75C118.898 50.3636 119.28 50.0639 119.763 49.8508C120.246 49.6349 120.793 49.5269 121.404 49.5269C122.023 49.5269 122.566 49.6349 123.032 49.8508C123.501 50.0639 123.868 50.3608 124.135 50.7414C124.403 51.1193 124.54 51.5539 124.549 52.0454H123.028ZM125.992 58.3735V57.2315L129.022 54.2613C129.312 53.9687 129.553 53.7088 129.747 53.4815C129.94 53.2542 130.085 53.034 130.181 52.821C130.278 52.6079 130.326 52.3806 130.326 52.1392C130.326 51.8636 130.264 51.6278 130.139 51.4318C130.014 51.2329 129.842 51.0795 129.623 50.9715C129.404 50.8636 129.156 50.8096 128.877 50.8096C128.59 50.8096 128.339 50.8693 128.123 50.9886C127.907 51.1051 127.74 51.2713 127.62 51.4872C127.504 51.7031 127.445 51.9602 127.445 52.2585H125.941C125.941 51.7045 126.068 51.223 126.32 50.8139C126.573 50.4048 126.921 50.088 127.365 49.8636C127.811 49.6392 128.322 49.5269 128.899 49.5269C129.484 49.5269 129.998 49.6363 130.441 49.8551C130.884 50.0738 131.228 50.3735 131.472 50.7542C131.72 51.1349 131.843 51.5696 131.843 52.0582C131.843 52.3849 131.781 52.7059 131.656 53.0213C131.531 53.3366 131.311 53.686 130.995 54.0696C130.683 54.4531 130.244 54.9176 129.678 55.463L128.174 56.9929V57.0525H131.975V58.3735H125.992ZM135.274 57.1804L135.218 57.6491C135.178 58.0071 135.107 58.3707 135.005 58.74C134.906 59.1122 134.801 59.4545 134.69 59.767C134.579 60.0795 134.49 60.3252 134.421 60.5042H133.382C133.421 60.3309 133.475 60.0951 133.544 59.7968C133.615 59.4985 133.683 59.1633 133.748 58.7911C133.813 58.419 133.857 58.0411 133.88 57.6576L133.91 57.1804H135.274ZM137.023 58.3735L140.735 51.0269V50.9673H136.426V49.6463H142.371V50.9971L138.664 58.3735H137.023ZM142.885 56.7542V55.4971L146.589 49.6463H147.637V51.436H146.998L144.505 55.3863V55.4545H149.674V56.7542H142.885ZM147.049 58.3735V56.3707L147.066 55.8082V49.6463H148.557V58.3735H147.049ZM154.167 58.4929C153.554 58.4929 153.008 58.3877 152.531 58.1775C152.057 57.9673 151.682 57.6747 151.406 57.2997C151.131 56.9247 150.984 56.4914 150.967 56H152.569C152.584 56.2358 152.662 56.4417 152.804 56.6179C152.946 56.7911 153.135 56.9261 153.371 57.0227C153.606 57.1193 153.871 57.1676 154.163 57.1676C154.476 57.1676 154.753 57.1136 154.994 57.0056C155.236 56.8948 155.425 56.7414 155.561 56.5454C155.697 56.3494 155.764 56.1235 155.761 55.8679C155.764 55.6036 155.696 55.3707 155.557 55.169C155.417 54.9673 155.216 54.8096 154.952 54.696C154.69 54.5823 154.375 54.5255 154.006 54.5255H153.234V53.3068H154.006C154.309 53.3068 154.575 53.2542 154.802 53.1491C155.032 53.044 155.213 52.8963 155.344 52.7059C155.474 52.5127 155.538 52.2897 155.535 52.0369C155.538 51.7897 155.483 51.5752 155.369 51.3934C155.258 51.2088 155.101 51.0653 154.896 50.963C154.694 50.8608 154.457 50.8096 154.184 50.8096C153.917 50.8096 153.67 50.8579 153.443 50.9545C153.216 51.0511 153.032 51.1889 152.893 51.3679C152.754 51.544 152.68 51.7542 152.672 51.9985H151.15C151.162 51.5099 151.302 51.0809 151.572 50.7116C151.845 50.3394 152.209 50.0497 152.663 49.8423C153.118 49.6321 153.628 49.5269 154.193 49.5269C154.775 49.5269 155.281 49.6363 155.71 49.8551C156.142 50.071 156.476 50.3622 156.711 50.7286C156.947 51.0951 157.065 51.5 157.065 51.9431C157.068 52.4346 156.923 52.8465 156.631 53.1789C156.341 53.5113 155.96 53.7286 155.488 53.8309V53.8991C156.102 53.9843 156.572 54.2116 156.899 54.5809C157.229 54.9474 157.392 55.4034 157.389 55.9488C157.389 56.4375 157.25 56.875 156.971 57.2613C156.696 57.6448 156.315 57.946 155.829 58.1647C155.346 58.3835 154.792 58.4929 154.167 58.4929ZM159.561 58.4673C159.303 58.4673 159.081 58.3764 158.896 58.1946C158.712 58.0127 158.621 57.7911 158.624 57.5298C158.621 57.2741 158.712 57.0554 158.896 56.8735C159.081 56.6917 159.303 56.6008 159.561 56.6008C159.811 56.6008 160.029 56.6917 160.213 56.8735C160.401 57.0554 160.496 57.2741 160.499 57.5298C160.496 57.7031 160.45 57.8608 160.362 58.0028C160.277 58.1448 160.164 58.2585 160.021 58.3437C159.882 58.4261 159.729 58.4673 159.561 58.4673ZM164.96 58.5397C164.259 58.5397 163.656 58.3622 163.154 58.0071C162.654 57.6491 162.269 57.1335 161.999 56.4602C161.732 55.784 161.598 54.9701 161.598 54.0184C161.601 53.0667 161.736 52.2571 162.003 51.5894C162.273 50.919 162.658 50.4076 163.158 50.0554C163.661 49.7031 164.262 49.5269 164.96 49.5269C165.659 49.5269 166.26 49.7031 166.763 50.0554C167.266 50.4076 167.651 50.919 167.918 51.5894C168.188 52.2599 168.323 53.0696 168.323 54.0184C168.323 54.973 168.188 55.7883 167.918 56.4644C167.651 57.1377 167.266 57.6519 166.763 58.0071C166.263 58.3622 165.662 58.5397 164.96 58.5397ZM164.96 57.2059C165.506 57.2059 165.936 56.9375 166.252 56.4005C166.57 55.8608 166.729 55.0667 166.729 54.0184C166.729 53.3252 166.656 52.7429 166.512 52.2713C166.367 51.7997 166.162 51.4446 165.898 51.2059C165.634 50.9644 165.321 50.8437 164.96 50.8437C164.418 50.8437 163.989 51.1136 163.673 51.6534C163.358 52.1903 163.199 52.9786 163.196 54.0184C163.193 54.7144 163.263 55.2997 163.405 55.7741C163.55 56.2485 163.754 56.6065 164.019 56.848C164.283 57.0866 164.597 57.2059 164.96 57.2059ZM173.288 49.6463V58.3735H171.707V51.1846H171.656L169.615 52.4886V51.0397L171.784 49.6463H173.288Z" fill="#12B76A"/>
<path d="M330.689 36.876L336.813 43.0003L330.689 49.1247" stroke="#636466" stroke-width="2.04145"/>
</svg>
