<svg width="56" height="56" viewBox="0 0 56 56" fill="none" xmlns="http://www.w3.org/2000/svg">
<rect width="56" height="56" rx="28" fill="#EFEEEE"/>
<path fill-rule="evenodd" clip-rule="evenodd" d="M20.7929 21.2929C21.1834 20.9024 21.8166 20.9024 22.2071 21.2929L27.5 26.5858L32.7929 21.2929C33.1834 20.9024 33.8166 20.9024 34.2071 21.2929C34.5976 21.6834 34.5976 22.3166 34.2071 22.7071L28.9142 28L34.2071 33.2929C34.5976 33.6834 34.5976 34.3166 34.2071 34.7071C33.8166 35.0976 33.1834 35.0976 32.7929 34.7071L27.5 29.4142L22.2071 34.7071C21.8166 35.0976 21.1834 35.0976 20.7929 34.7071C20.4024 34.3166 20.4024 33.6834 20.7929 33.2929L26.0858 28L20.7929 22.7071C20.4024 22.3166 20.4024 21.6834 20.7929 21.2929Z" fill="#0A0A0A"/>
</svg>
