<svg width="24" height="24" viewBox="0 0 24 24" fill="none" xmlns="http://www.w3.org/2000/svg">
<path d="M12 5.33333V18.6667M8.66667 15.5353L9.64319 16.2678C10.9449 17.2441 13.0554 17.2441 14.3571 16.2678C15.6588 15.2915 15.6588 13.7085 14.3571 12.7322C13.7061 12.244 12.853 12 11.9999 12C11.1944 12 10.3891 11.756 9.77455 11.2678C8.54555 10.2915 8.54555 8.70857 9.77455 7.73226C11.0035 6.75595 12.9961 6.75595 14.2251 7.73226L14.6861 8.09847M22 12C22 17.5228 17.5228 22 12 22C6.47715 22 2 17.5228 2 12C2 6.47715 6.47715 2 12 2C17.5228 2 22 6.47715 22 12Z" stroke="currentColor" stroke-width="2" stroke-linecap="round" stroke-linejoin="round"/>
</svg>
