<svg width="24" height="16" viewBox="0 0 24 16" fill="none" xmlns="http://www.w3.org/2000/svg">
<g clip-path="url(#clip0_38454_176)">
<path d="M19.9832 1.33997C18.4721 0.70497 16.8768 0.254475 15.2381 0C15.0139 0.367934 14.811 0.746489 14.6303 1.13408C12.8848 0.892656 11.1097 0.892656 9.36423 1.13408C9.18343 0.746529 8.98054 0.367978 8.75639 0C7.11666 0.256624 5.52034 0.708188 4.00769 1.3433C1.0047 5.42134 0.190639 9.39809 0.59767 13.3184C2.3563 14.511 4.3247 15.418 6.41732 16C6.88851 15.4183 7.30546 14.8012 7.66374 14.1553C6.98324 13.922 6.32644 13.6342 5.70094 13.2951C5.86556 13.1856 6.02657 13.0726 6.18214 12.9631C8.0022 13.7487 9.9887 14.156 12 14.156C14.0113 14.156 15.9978 13.7487 17.8178 12.9631C17.9752 13.0809 18.1362 13.1939 18.299 13.2951C17.6723 13.6347 17.0143 13.9231 16.3326 14.1569C16.6904 14.8026 17.1074 15.4192 17.579 16C19.6734 15.4204 21.6433 14.5138 23.4023 13.32C23.8799 8.77377 22.5864 4.83354 19.9832 1.33997ZM8.17931 10.9074C7.04505 10.9074 6.10797 9.96264 6.10797 8.80033C6.10797 7.63802 7.01249 6.68493 8.17569 6.68493C9.3389 6.68493 10.2687 7.63802 10.2488 8.80033C10.2289 9.96264 9.33528 10.9074 8.17931 10.9074ZM15.8207 10.9074C14.6846 10.9074 13.7511 9.96264 13.7511 8.80033C13.7511 7.63802 14.6556 6.68493 15.8207 6.68493C16.9857 6.68493 17.9083 7.63802 17.8884 8.80033C17.8685 9.96264 16.9766 10.9074 15.8207 10.9074Z" fill="currentColor"/>
</g>
<defs>
<clipPath id="clip0_38454_176">
<rect width="23" height="16" fill="white" transform="translate(0.5)"/>
</clipPath>
</defs>
</svg>
