<svg width="20" height="20" viewBox="0 0 20 20" fill="none" xmlns="http://www.w3.org/2000/svg">
<path d="M9.99992 11.667L9.29281 12.3741L9.99992 13.0812L10.707 12.3741L9.99992 11.667ZM10.9999 4.16699C10.9999 3.61471 10.5522 3.16699 9.99992 3.16699C9.44763 3.16699 8.99992 3.61471 8.99992 4.16699L10.9999 4.16699ZM5.83325 7.50033L5.12615 8.20743L9.29281 12.3741L9.99992 11.667L10.707 10.9599L6.54036 6.79322L5.83325 7.50033ZM9.99992 11.667L10.707 12.3741L14.8737 8.20743L14.1666 7.50033L13.4595 6.79322L9.29281 10.9599L9.99992 11.667ZM9.99992 11.667L10.9999 11.667L10.9999 4.16699L9.99992 4.16699L8.99992 4.16699L8.99992 11.667L9.99992 11.667Z" fill="currentColor"/>
<path d="M4.16675 13.333L4.16675 14.1663C4.16675 15.0868 4.91294 15.833 5.83341 15.833L14.1667 15.833C15.0872 15.833 15.8334 15.0868 15.8334 14.1663V13.333" stroke="currentColor" stroke-width="2"/>
</svg>
