<svg width="24" height="24" viewBox="0 0 24 24" fill="none" xmlns="http://www.w3.org/2000/svg">
<g clip-path="url(#clip0_118_379)">
<path d="M21.7875 12.225C21.7875 11.5667 21.7292 10.9417 21.6292 10.3334H12.2125V14.0917H17.6042C17.3625 15.325 16.6542 16.3667 15.6042 17.075V19.575H18.8208C20.7042 17.8334 21.7875 15.2667 21.7875 12.225Z" fill="currentColor"/>
<path d="M12.2125 22C14.9125 22 17.1708 21.1 18.8208 19.575L15.6042 17.075C14.7042 17.675 13.5625 18.0417 12.2125 18.0417C9.60416 18.0417 7.39583 16.2833 6.60416 13.9083H3.28749V16.4833C4.92916 19.75 8.30416 22 12.2125 22Z" fill="currentColor"/>
<path d="M6.60416 13.9084C6.39583 13.3084 6.28749 12.6667 6.28749 12.0001C6.28749 11.3334 6.40416 10.6917 6.60416 10.0917V7.51672H3.28749C2.60416 8.86672 2.21249 10.3834 2.21249 12.0001C2.21249 13.6167 2.60416 15.1334 3.28749 16.4834L6.60416 13.9084Z" fill="currentColor"/>
<path d="M12.2125 5.95833C13.6875 5.95833 15.0042 6.46667 16.0458 7.45834L18.8958 4.60833C17.1708 2.99167 14.9125 2 12.2125 2C8.30416 2 4.92916 4.25 3.28749 7.51667L6.60416 10.0917C7.39583 7.71667 9.60416 5.95833 12.2125 5.95833Z" fill="currentColor"/>
</g>
<defs>
<clipPath id="clip0_118_379">
<rect width="20" height="20" fill="white" transform="translate(2 2)"/>
</clipPath>
</defs>
</svg>
