<svg width="24" height="24" viewBox="0 0 24 24" fill="none" xmlns="http://www.w3.org/2000/svg">
<path fill-rule="evenodd" clip-rule="evenodd" d="M15.9202 13.7988C15.9725 13.5407 16 13.2736 16 13C16 10.7909 14.2091 9 12 9C11.7264 9 11.4593 9.02746 11.2012 9.07977L15.9202 13.7988ZM8.66676 10.788C8.24547 11.4216 8 12.1821 8 13C8 15.2091 9.79086 17 12 17C12.8179 17 13.5784 16.7545 14.212 16.3332L12.7381 14.8594C12.5098 14.9501 12.2607 15 12 15C10.8954 15 10 14.1046 10 13C10 12.7393 10.0499 12.4902 10.1406 12.2619L8.66676 10.788Z" fill="currentColor"/>
<path fill-rule="evenodd" clip-rule="evenodd" d="M16.5191 18.6405L15.0499 17.1712C14.0776 17.6805 13.0477 18 12 18C10.4742 18 8.98616 17.3224 7.65914 16.3677C6.34002 15.4186 5.26409 14.2558 4.58386 13.43C4.48409 13.3088 4.40958 13.2182 4.34785 13.1385C4.29899 13.0754 4.26786 13.0315 4.24756 13C4.26786 12.9685 4.29899 12.9246 4.34785 12.8615C4.40958 12.7818 4.48409 12.6912 4.58386 12.57C5.24928 11.7622 6.29335 10.6319 7.57331 9.69463L6.14458 8.2659C4.79643 9.29616 3.72247 10.47 3.04009 11.2985C3.01651 11.3272 2.99192 11.3566 2.96662 11.3869L2.96661 11.3869C2.65318 11.7624 2.22974 12.2696 2.22974 13C2.22974 13.7304 2.65318 14.2376 2.9666 14.6131L2.96682 14.6133C2.99205 14.6435 3.01657 14.6729 3.04009 14.7015C3.77996 15.5998 4.98018 16.9041 6.49111 17.9912C7.99416 19.0725 9.89008 20 12 20C13.67 20 15.206 19.419 16.5191 18.6405ZM8.80682 6.6855C9.79062 6.26871 10.8643 6 12 6C14.1099 6 16.0059 6.92747 17.5089 8.00885C19.0198 9.0959 20.2201 10.4002 20.9599 11.2985C20.9835 11.3272 21.0081 11.3566 21.0334 11.3869L21.0334 11.3869C21.3468 11.7624 21.7703 12.2696 21.7703 13C21.7703 13.7304 21.3468 14.2376 21.0334 14.6131C21.0081 14.6434 20.9835 14.6728 20.9599 14.7015C20.4733 15.2923 19.7874 16.0589 18.945 16.8237L17.529 15.4077C18.3089 14.708 18.9539 13.9912 19.4162 13.43C19.5159 13.3088 19.5904 13.2182 19.6522 13.1385C19.701 13.0754 19.7322 13.0315 19.7525 13C19.7322 12.9685 19.701 12.9246 19.6522 12.8615C19.5904 12.7818 19.5159 12.6912 19.4162 12.57C18.7359 11.7442 17.66 10.5814 16.3409 9.63233C15.0139 8.6776 13.5258 8 12 8C11.449 8 10.9029 8.08837 10.3676 8.24624L8.80682 6.6855Z" fill="currentColor"/>
<path d="M5 3L21 19" stroke="currentColor" stroke-width="2"/>
</svg>
