<svg width="48" height="48" viewBox="0 0 48 48" fill="none" xmlns="http://www.w3.org/2000/svg">
<rect width="48" height="48" rx="12" fill="#181D27"/>
<g clip-path="url(#clip0_40006447_40044)">
<path d="M16.8073 15.6772L17.197 18.0152C17.4483 19.5229 18.1643 20.9143 19.2451 21.9951L21.25 24L20.7765 24.9469C20.5119 25.4763 20.6156 26.1156 21.0341 26.5341L22.6806 28.1806C22.9385 28.4385 23.0833 28.7882 23.0833 29.1529V30.4835C23.0833 31.0043 23.3776 31.4805 23.8434 31.7134L24.0303 31.8068C24.5596 32.0715 25.1989 31.9677 25.6174 31.5492L26.5007 30.6659C27.8635 29.3032 28.8302 27.5957 29.2977 25.726C29.4214 25.2312 29.251 24.7091 28.8591 24.3826L27.2344 23.0286C26.9269 22.7724 26.5229 22.6628 26.1281 22.7287L24.698 22.967C24.26 23.04 23.8136 22.897 23.4997 22.583L23.1389 22.2223C22.602 21.6853 22.602 20.8147 23.1389 20.2777L23.2992 20.1174C23.7177 19.6989 24.3571 19.5952 24.8864 19.8599L25.6246 20.2289C25.7619 20.2976 25.9133 20.3333 26.0668 20.3333C26.8018 20.3333 27.2799 19.5598 26.9512 18.9023L26.75 18.5L28.2847 17.4769C29.0811 16.9459 29.7252 16.2164 30.1532 15.3603L30.3315 15.0037M16.8073 15.6772C14.4754 17.6942 13 20.6748 13 24C13 30.0751 17.9249 35 24 35C30.0751 35 35 30.0751 35 24C35 20.282 33.1554 16.9949 30.3315 15.0037M16.8073 15.6772C18.7358 14.0091 21.2501 13 24 13C26.3571 13 28.5411 13.7414 30.3315 15.0037" stroke="#FAFCFF" stroke-width="2" stroke-linecap="round" stroke-linejoin="round"/>
</g>
<defs>
<clipPath id="clip0_40006447_40044">
<rect width="24" height="24" fill="white" transform="translate(12 12)"/>
</clipPath>
</defs>
</svg>
