<svg width="20" height="20" viewBox="0 0 20 20" fill="none" xmlns="http://www.w3.org/2000/svg">
<path d="M2.08301 2.0835L3.66634 3.66683M17.9163 2.0835L16.333 3.66683M17.9163 17.9168L16.333 16.3335M2.08301 17.9168L3.66634 16.3335M2.08301 13.1668H3.27051M6.83301 2.0835V3.271M17.9163 6.8335H16.7288M13.1663 17.9168V16.7293M14.7497 13.1668H17.5205M13.1663 2.0835V5.25016M2.08301 6.8335H5.24967M6.83301 17.9168V14.7502M13.1663 10.0002C13.1663 11.7491 11.7486 13.1668 9.99967 13.1668C8.25077 13.1668 6.83301 11.7491 6.83301 10.0002C6.83301 8.25126 8.25077 6.8335 9.99967 6.8335C11.7486 6.8335 13.1663 8.25126 13.1663 10.0002Z" stroke="white" stroke-width="1.58333" stroke-linecap="round" stroke-linejoin="round"/>
</svg>
