<svg xmlns="http://www.w3.org/2000/svg" width="48" height="48" viewBox="0 0 48 48" fill="none">
  <path fill-rule="evenodd" clip-rule="evenodd"
    d="M27.9675 5.08322C28.1422 5.42186 28.1856 5.85553 28.2723 6.72288C28.4365 8.36461 28.5185 9.18547 28.8621 9.63585C29.2979 10.2072 30.0068 10.5008 30.7189 10.405C31.2803 10.3294 31.9188 9.80704 33.1957 8.76226C33.8704 8.2103 34.2077 7.93432 34.5706 7.81837C35.0316 7.67109 35.5304 7.69597 35.9744 7.88838C36.3241 8.03987 36.6322 8.34805 37.2486 8.9644L39.0355 10.7513C39.6519 11.3677 39.9601 11.6759 40.1116 12.0255C40.304 12.4696 40.3288 12.9683 40.1816 13.4293C40.0656 13.7922 39.7896 14.1296 39.2377 14.8042C38.1928 16.0812 37.6704 16.7197 37.5949 17.2811C37.4991 17.9932 37.7927 18.702 38.364 19.1379C38.8144 19.4814 39.6353 19.5635 41.2771 19.7277C42.1445 19.8144 42.5782 19.8578 42.9168 20.0325C43.3469 20.2543 43.682 20.6246 43.8599 21.0746C44 21.4289 44 21.8648 44 22.7365V25.2638C44 26.1352 44 26.571 43.86 26.9252C43.682 27.3754 43.3469 27.7458 42.9166 27.9676C42.5781 28.1422 42.1445 28.1856 41.2773 28.2723L41.2772 28.2723C39.636 28.4364 38.8154 28.5185 38.3651 28.8618C37.7935 29.2977 37.4998 30.0068 37.5957 30.7192C37.6713 31.2804 38.1935 31.9187 39.238 33.1952C39.7897 33.8696 40.0656 34.2068 40.1816 34.5696C40.329 35.0307 40.3041 35.5297 40.1115 35.9739C39.9601 36.3233 39.652 36.6314 39.0358 37.2475L37.2487 39.0347C36.6323 39.6511 36.3241 39.9592 35.9745 40.1107C35.5305 40.3031 35.0317 40.328 34.5707 40.1807C34.2078 40.0648 33.8705 39.7888 33.1958 39.2369L33.1958 39.2368C31.9189 38.1921 31.2804 37.6697 30.719 37.5942C30.0068 37.4984 29.298 37.792 28.8622 38.3633C28.5186 38.8136 28.4365 39.6346 28.2723 41.2766C28.1856 42.1444 28.1422 42.5783 27.9674 42.917C27.7456 43.3469 27.3755 43.6819 26.9256 43.8598C26.5712 44 26.1352 44 25.2633 44H22.7365C21.8648 44 21.4289 44 21.0746 43.8599C20.6246 43.682 20.2543 43.3469 20.0325 42.9168C19.8578 42.5782 19.8144 42.1445 19.7277 41.2771C19.5635 39.6353 19.4814 38.8144 19.1378 38.364C18.702 37.7927 17.9933 37.4992 17.2811 37.5949C16.7197 37.6704 16.0812 38.1929 14.8042 39.2377L14.8041 39.2377C14.1295 39.7897 13.7921 40.0657 13.4292 40.1817C12.9682 40.3289 12.4695 40.3041 12.0254 40.1117C11.6758 39.9602 11.3676 39.652 10.7512 39.0356L8.96434 37.2487C8.34796 36.6323 8.03977 36.3241 7.88828 35.9745C7.69588 35.5305 7.671 35.0317 7.81826 34.5707C7.93422 34.2078 8.21021 33.8705 8.76221 33.1958C9.80702 31.9188 10.3294 31.2803 10.4049 30.7189C10.5007 30.0067 10.2071 29.2979 9.63585 28.8621C9.18547 28.5185 8.3646 28.4365 6.72286 28.2723C5.85553 28.1856 5.42186 28.1422 5.08322 27.9675C4.65312 27.7457 4.31803 27.3754 4.14009 26.9254C4 26.571 4 26.1352 4 25.2636V22.7367C4 21.8648 4 21.4288 4.14017 21.0744C4.3181 20.6245 4.65308 20.2544 5.08305 20.0326C5.42176 19.8578 5.85554 19.8144 6.7231 19.7277H6.72311H6.72312C8.36529 19.5635 9.18638 19.4814 9.63683 19.1376C10.2079 18.7018 10.5014 17.9933 10.4057 17.2813C10.3303 16.7197 9.8077 16.081 8.76255 14.8036C8.21033 14.1287 7.93422 13.7912 7.81827 13.4281C7.67113 12.9673 7.696 12.4688 7.88826 12.0249C8.03976 11.6751 8.34806 11.3668 8.96467 10.7502L10.7513 8.96354C11.3677 8.34714 11.6759 8.03895 12.0255 7.88746C12.4696 7.69507 12.9683 7.67019 13.4293 7.81744C13.7922 7.93339 14.1296 8.20944 14.8044 8.76153C16.0812 9.80621 16.7196 10.3285 17.2809 10.4041C17.9932 10.5001 18.7023 10.2064 19.1381 9.63484C19.4815 9.18453 19.5636 8.36389 19.7277 6.72261C19.8144 5.85551 19.8578 5.42197 20.0324 5.08341C20.2542 4.65315 20.6246 4.31796 21.0748 4.14002C21.4291 4 21.8648 4 22.7362 4H25.2636C26.1352 4 26.5711 4 26.9254 4.1401C27.3754 4.31803 27.7457 4.65312 27.9675 5.08322ZM24 32C28.4183 32 32 28.4183 32 24C32 19.5817 28.4183 16 24 16C19.5817 16 16 19.5817 16 24C16 28.4183 19.5817 32 24 32Z"
    fill="#636466" />
</svg>