<svg width="25" height="24" viewBox="0 0 25 24" fill="none" xmlns="http://www.w3.org/2000/svg">
<g clip-path="url(#clip0_10618_2327)">
<path fill-rule="evenodd" clip-rule="evenodd" d="M0.5 12C0.5 18.6274 5.87258 24 12.5 24C19.1274 24 24.5 18.6274 24.5 12C24.5 5.37258 19.1274 0 12.5 0C5.87258 0 0.5 5.37258 0.5 12ZM10.04 3.3915C10.8588 3.60438 12.0962 4.2918 13.01 5.04138C13.241 5.23086 13.7259 5.68494 14.0875 6.0504C14.4492 6.41592 14.7536 6.70638 14.7641 6.69588C14.7973 6.66264 15.0299 5.98182 15.1146 5.67C15.1593 5.505 15.2289 5.06532 15.2692 4.6929L15.284 4.55663C15.317 4.25148 15.5795 4.02325 15.8863 4.0329C16.1947 4.0426 16.4489 4.28243 16.4739 4.59C16.5721 5.79996 17.0337 7.00968 17.7739 7.99728C18.0672 8.38842 18.8501 9.1494 19.2605 9.44214C19.6554 9.72378 20.5155 10.148 21.02 10.3099C21.4787 10.4572 22.3827 10.6195 22.745 10.6198C22.8859 10.6199 23 10.7341 23 10.875V11.19V11.445C23 11.619 22.859 11.76 22.685 11.76C21.9946 11.7601 20.7262 12.1053 20.0298 12.4828C19.4961 12.7722 18.9086 13.1741 18.6903 13.3994C18.5701 13.5234 18.5214 13.7 18.5611 13.8681L18.6452 14.2242C19.2738 16.8856 18.984 19.0375 17.8458 20.1605C17.6281 20.3752 17.3283 20.6101 17.1794 20.6825C15.8695 21.3193 14.0133 21.1078 11.9 20.081C11.2836 19.7815 10.3986 19.2683 9.98 18.9679C8.9189 18.2061 8.2043 17.606 7.3991 16.8009C5.1599 14.5616 3.6605 12.0241 3.25358 9.78486C2.97536 8.25354 3.23576 7.10688 4.04636 6.29442C4.5182 5.8215 4.9022 5.64984 5.99 5.42568C6.07154 5.40888 6.18296 5.2461 6.33776 4.91772C6.7139 4.1196 7.35896 3.57462 8.22146 3.32628C8.5892 3.22044 9.509 3.25338 10.04 3.3915ZM8.54 3.84804C8.09546 3.92082 7.6352 4.15428 7.32566 4.46388C7.037 4.7526 6.70004 5.32692 6.77834 5.39676C6.80678 5.42208 7.046 5.47314 7.31 5.51022C7.98182 5.6046 8.07254 5.62494 8.57672 5.79414C10.0164 6.27744 11.5749 7.15674 12.9276 8.24892L13.1264 8.40947C13.2957 8.54611 13.5425 8.52513 13.6863 8.3619C14.0086 7.99614 14.42 7.38828 14.42 7.27782C14.42 7.14444 12.8791 5.63802 12.32 5.2248C11.2756 4.4529 10.3881 4.02492 9.51512 3.87222C9.22628 3.8217 8.963 3.78348 8.93 3.7872C8.897 3.79098 8.7215 3.81834 8.54 3.84804ZM5.54 6.08814C4.64234 6.34548 4.15676 6.79722 3.85598 7.65486C3.66476 8.19996 3.67682 9.24984 3.88364 10.067C4.65986 13.1339 7.36634 16.5914 10.6834 18.7536C11.1936 19.0862 12.3198 19.7002 12.355 19.6649C12.366 19.654 12.1806 19.4976 11.943 19.3175C11.4159 18.9181 10.2574 17.7722 9.76076 17.1593C7.94048 14.9125 6.53858 12.0425 6.0536 9.57C5.77778 8.16354 5.73776 7.02732 5.93276 6.135C5.96654 5.9805 5.93054 5.97618 5.54 6.08814ZM6.44882 6.41658C5.8094 10.2884 9.05804 16.7672 12.9268 19.3355C15.5441 21.073 17.5754 20.6884 18.2362 18.33C18.3876 17.7901 18.4195 16.2116 18.2946 15.4463C18.144 14.5243 18.0549 14.13 17.9968 14.13C17.9151 14.13 17.391 14.9186 17.1496 15.4047C16.7557 16.198 16.5372 16.9786 16.4778 17.805C16.4577 18.0839 16.2256 18.3 15.9459 18.3H15.8909C15.5771 18.3 15.3135 18.0639 15.2791 17.752L15.2684 17.655C15.2293 17.3002 15.1309 16.7805 15.0497 16.5C14.8629 15.8543 14.3922 14.9059 14.0054 14.3957C13.6332 13.9047 12.9322 13.2343 12.4458 12.904C11.5452 12.2924 10.3084 11.8532 9.275 11.7781C8.99601 11.7579 8.78 11.5256 8.78 11.2459V11.1811V10.875C8.78 10.7342 8.89416 10.62 9.035 10.6199C9.38852 10.6198 10.2337 10.4651 10.6957 10.316C11.4788 10.0632 12.5335 9.498 12.8485 9.16236C12.923 9.08297 12.9136 8.95684 12.8281 8.88942L12.4374 8.5812C11.2807 7.66884 9.69686 6.76734 8.59292 6.39318C7.98872 6.18834 7.13732 6.00294 6.79382 6.00132C6.63466 6.00056 6.49851 6.11552 6.47259 6.27256L6.44882 6.41658Z" fill="white"/>
</g>
<defs>
<clipPath id="clip0_10618_2327">
<rect width="24" height="24" fill="white" transform="translate(0.5)"/>
</clipPath>
</defs>
</svg>
