<svg width="26" height="26" viewBox="0 0 26 26" fill="none" xmlns="http://www.w3.org/2000/svg">
<path fill-rule="evenodd" clip-rule="evenodd" d="M13.6427 1H10.3572H10.3572C9.2734 0.999991 8.39925 0.999983 7.69138 1.05782C6.96253 1.11737 6.32234 1.24318 5.73005 1.54497C4.78924 2.02434 4.02434 2.78924 3.54497 3.73005C3.24318 4.32234 3.11737 4.96253 3.05782 5.69138C2.99998 6.39925 2.99999 7.27341 3 8.35718V8.35719V18.9988C3 19.9486 3.149 20.7598 3.51173 21.3849C3.90252 22.0584 4.50192 22.4441 5.19266 22.552C5.82945 22.6516 6.47206 22.506 7.02665 22.2957C7.59355 22.0808 8.15538 21.7649 8.66718 21.4237C8.80102 21.3345 8.88886 21.2911 8.9437 21.2702C8.96957 21.2604 8.98549 21.2566 8.99315 21.2551L8.99917 21.2541L9.0005 21.254L9.00212 21.2539L9.00389 21.254L9.00634 21.2544L9.01159 21.2553C9.01956 21.257 9.03563 21.2612 9.06149 21.2714C9.11656 21.2931 9.20226 21.3367 9.33282 21.4237C10.1919 21.9965 11.0153 22.456 11.9532 22.4676C12.0973 22.4694 12.2393 22.4606 12.3796 22.4422C12.1785 21.8142 12.0529 21.1524 12.0134 20.4675C12.0014 20.4678 11.9896 20.4679 11.9779 20.4677C11.6793 20.464 11.2891 20.3242 10.4422 19.7596C10.0511 19.4989 9.58276 19.259 9.02001 19.254C8.45391 19.2489 7.97353 19.4825 7.55778 19.7596C7.12409 20.0488 6.69912 20.281 6.31765 20.4256C5.92387 20.5749 5.65655 20.6003 5.50159 20.576C5.40058 20.5603 5.32642 20.5273 5.24158 20.3811C5.12869 20.1866 5 19.7771 5 18.9988V8.4C5 7.26339 5.00078 6.47108 5.05118 5.85424C5.10062 5.24907 5.1928 4.90139 5.32698 4.63803C5.6146 4.07354 6.07354 3.6146 6.63803 3.32698C6.90139 3.1928 7.24907 3.10062 7.85424 3.05118C8.47108 3.00078 9.2634 3 10.4 3H13.5999C14.7365 3 15.5288 3.00078 16.1457 3.05118C16.7508 3.10062 17.0985 3.1928 17.3619 3.32698C17.9264 3.6146 18.3853 4.07354 18.6729 4.63803L18.6745 4.64112C18.8078 4.9041 18.8995 5.25144 18.9487 5.85424C18.9991 6.47108 18.9999 7.26339 18.9999 8.4V12.0619C19.3275 12.021 19.6613 12 20 12C20.3386 12 20.6723 12.021 20.9999 12.0619V8.35717C20.9999 7.27339 20.9999 6.39925 20.9421 5.69138C20.9394 5.65892 20.9367 5.62663 20.9337 5.59451C20.9399 5.52876 20.9396 5.46142 20.9323 5.39322C20.8643 4.75967 20.7256 4.26123 20.4549 3.73005C19.9756 2.78924 19.2107 2.02434 18.2699 1.54497C17.6776 1.24318 17.0374 1.11737 16.3085 1.05782C15.6007 0.999983 14.7265 0.999991 13.6427 1H13.6427ZM7 9C7 8.44772 7.44772 8 8 8H13C13.5523 8 14 8.44772 14 9C14 9.55229 13.5523 10 13 10H8C7.44772 10 7 9.55229 7 9ZM8 12C7.44772 12 7 12.4477 7 13C7 13.5523 7.44772 14 8 14H11C11.5523 14 12 13.5523 12 13C12 12.4477 11.5523 12 11 12H8Z" fill="currentColor"/>
<path fill-rule="evenodd" clip-rule="evenodd" d="M20 14C16.6863 14 14 16.6863 14 20C14 23.3137 16.6863 26 20 26C23.3137 26 26 23.3137 26 20C26 16.6863 23.3137 14 20 14ZM17.2876 17.9314C17.0337 18.1852 17.0337 18.5968 17.2876 18.8506C17.5414 19.1045 17.953 19.1045 18.2068 18.8506L19.3502 17.7072V23.8626C19.3502 24.2216 19.6412 24.5126 20.0002 24.5126C20.3592 24.5126 20.6502 24.2216 20.6502 23.8626V17.7072L21.7936 18.8506C22.0475 19.1045 22.459 19.1045 22.7129 18.8506C22.9667 18.5968 22.9667 18.1852 22.7129 17.9314L20.4598 15.6784C20.206 15.4245 19.7944 15.4245 19.5406 15.6784L17.2876 17.9314Z" fill="currentColor"/>
</svg>
