<svg width="362" height="86" viewBox="0 0 362 86" fill="none" xmlns="http://www.w3.org/2000/svg">
<rect width="362" height="86" rx="12" fill="white"/>
<path d="M17.1418 31V20.6072H20.8463C21.6548 20.6072 22.3247 20.7543 22.8558 21.0486C23.387 21.343 23.7845 21.7456 24.0484 22.2564C24.3122 22.7639 24.4442 23.3356 24.4442 23.9716C24.4442 24.611 24.3106 25.1862 24.0433 25.697C23.7794 26.2045 23.3802 26.6071 22.8457 26.9048C22.3145 27.1991 21.6464 27.3463 20.8412 27.3463H18.2937V26.0167H20.6991C21.21 26.0167 21.6244 25.9288 21.9424 25.7528C22.2604 25.5735 22.4938 25.3299 22.6427 25.0221C22.7915 24.7142 22.866 24.3641 22.866 23.9716C22.866 23.5792 22.7915 23.2307 22.6427 22.9263C22.4938 22.6218 22.2587 22.3833 21.9373 22.2107C21.6193 22.0382 21.1998 21.9519 20.6788 21.9519H18.7099V31H17.1418ZM29.4224 31.1573C28.6544 31.1573 27.993 30.9932 27.4382 30.6651C26.8868 30.3335 26.4605 29.8684 26.1594 29.2696C25.8617 28.6674 25.7128 27.962 25.7128 27.1534C25.7128 26.355 25.8617 25.6513 26.1594 25.0424C26.4605 24.4334 26.88 23.9581 27.4179 23.6164C27.9592 23.2747 28.5918 23.1039 29.3158 23.1039C29.7556 23.1039 30.1819 23.1766 30.5946 23.3221C31.0074 23.4676 31.3778 23.6959 31.706 24.0072C32.0341 24.3184 32.2929 24.7227 32.4824 25.22C32.6719 25.7139 32.7666 26.3144 32.7666 27.0215V27.5594H26.5705V26.4227H31.2797C31.2797 26.0235 31.1985 25.6699 31.0361 25.3621C30.8737 25.0508 30.6454 24.8056 30.3511 24.6263C30.0601 24.447 29.7184 24.3573 29.326 24.3573C28.8997 24.3573 28.5276 24.4622 28.2096 24.6719C27.8949 24.8783 27.6514 25.149 27.4788 25.4839C27.3097 25.8154 27.2251 26.1757 27.2251 26.5648V27.4528C27.2251 27.9738 27.3164 28.417 27.4991 28.7824C27.6852 29.1478 27.944 29.4269 28.2755 29.6197C28.6071 29.8092 28.9944 29.9039 29.4376 29.9039C29.7252 29.9039 29.9874 29.8633 30.2242 29.7821C30.461 29.6975 30.6657 29.5723 30.8382 29.4066C31.0108 29.2408 31.1427 29.0361 31.234 28.7925L32.6702 29.0513C32.5551 29.4742 32.3488 29.8447 32.0511 30.1627C31.7567 30.4773 31.3863 30.7226 30.9397 30.8985C30.4965 31.071 29.9908 31.1573 29.4224 31.1573ZM34.4501 31V23.2054H35.9167V24.4436H35.9978C36.1399 24.0241 36.3903 23.6942 36.7489 23.454C37.1109 23.2104 37.5202 23.0887 37.977 23.0887C38.0717 23.0887 38.1833 23.092 38.3119 23.0988C38.4438 23.1056 38.547 23.114 38.6214 23.1242V24.5755C38.5605 24.5586 38.4523 24.54 38.2967 24.5197C38.141 24.496 37.9854 24.4842 37.8298 24.4842C37.4712 24.4842 37.1515 24.5603 36.8707 24.7125C36.5933 24.8614 36.3734 25.0694 36.211 25.3367C36.0486 25.6006 35.9674 25.9017 35.9674 26.24V31H34.4501ZM45.7754 25.1084L44.4002 25.3519C44.3427 25.176 44.2513 25.0086 44.1261 24.8495C44.0043 24.6905 43.8386 24.5603 43.6288 24.4588C43.4191 24.3573 43.1569 24.3066 42.8423 24.3066C42.4126 24.3066 42.054 24.403 41.7664 24.5958C41.4789 24.7853 41.3351 25.0305 41.3351 25.3316C41.3351 25.5921 41.4315 25.8019 41.6243 25.9609C41.8172 26.1199 42.1284 26.2501 42.5581 26.3516L43.7963 26.6358C44.5135 26.8016 45.048 27.057 45.3999 27.4021C45.7517 27.7472 45.9276 28.1954 45.9276 28.7469C45.9276 29.2137 45.7923 29.6298 45.5217 29.9952C45.2544 30.3572 44.8806 30.6414 44.4002 30.8478C43.9232 31.0541 43.37 31.1573 42.7408 31.1573C41.8679 31.1573 41.1558 30.9712 40.6043 30.5991C40.0529 30.2236 39.7146 29.6907 39.5894 29.0006L41.056 28.7773C41.1473 29.1596 41.3351 29.4489 41.6193 29.6451C41.9034 29.8379 42.2739 29.9343 42.7306 29.9343C43.2279 29.9343 43.6254 29.8311 43.9232 29.6248C44.2209 29.415 44.3697 29.1596 44.3697 28.8585C44.3697 28.6149 44.2784 28.4102 44.0957 28.2445C43.9164 28.0787 43.6407 27.9535 43.2685 27.869L41.9491 27.5797C41.2218 27.4139 40.6838 27.15 40.3354 26.7881C39.9903 26.4261 39.8178 25.9677 39.8178 25.4128C39.8178 24.9527 39.9463 24.5501 40.2034 24.2051C40.4606 23.86 40.8158 23.591 41.2691 23.3982C41.7225 23.202 42.2418 23.1039 42.827 23.1039C43.6694 23.1039 44.3325 23.2866 44.8163 23.6519C45.3001 24.0139 45.6198 24.4994 45.7754 25.1084ZM50.8792 31.1573C50.1485 31.1573 49.5107 30.9899 48.9661 30.6549C48.4214 30.32 47.9985 29.8514 47.6974 29.2493C47.3963 28.6471 47.2458 27.9434 47.2458 27.1382C47.2458 26.3296 47.3963 25.6226 47.6974 25.017C47.9985 24.4114 48.4214 23.9412 48.9661 23.6063C49.5107 23.2713 50.1485 23.1039 50.8792 23.1039C51.6099 23.1039 52.2477 23.2713 52.7923 23.6063C53.337 23.9412 53.7599 24.4114 54.061 25.017C54.3621 25.6226 54.5126 26.3296 54.5126 27.1382C54.5126 27.9434 54.3621 28.6471 54.061 29.2493C53.7599 29.8514 53.337 30.32 52.7923 30.6549C52.2477 30.9899 51.6099 31.1573 50.8792 31.1573ZM50.8843 29.8836C51.3579 29.8836 51.7503 29.7584 52.0616 29.5081C52.3728 29.2577 52.6029 28.9245 52.7517 28.5084C52.904 28.0922 52.9801 27.6338 52.9801 27.1331C52.9801 26.6358 52.904 26.1791 52.7517 25.763C52.6029 25.3435 52.3728 25.0069 52.0616 24.7531C51.7503 24.4994 51.3579 24.3725 50.8843 24.3725C50.4073 24.3725 50.0114 24.4994 49.6968 24.7531C49.3856 25.0069 49.1538 25.3435 49.0016 25.763C48.8527 26.1791 48.7783 26.6358 48.7783 27.1331C48.7783 27.6338 48.8527 28.0922 49.0016 28.5084C49.1538 28.9245 49.3856 29.2577 49.6968 29.5081C50.0114 29.7584 50.4073 29.8836 50.8843 29.8836ZM57.7236 26.3719V31H56.2063V23.2054H57.6627V24.474H57.7591C57.9384 24.0613 58.2192 23.7297 58.6015 23.4794C58.9872 23.229 59.4727 23.1039 60.0579 23.1039C60.5891 23.1039 61.0543 23.2155 61.4535 23.4388C61.8527 23.6587 62.1622 23.9869 62.3821 24.4233C62.602 24.8597 62.712 25.3993 62.712 26.0421V31H61.1947V26.2248C61.1947 25.6598 61.0475 25.2183 60.7532 24.9003C60.4588 24.5789 60.0546 24.4182 59.5403 24.4182C59.1885 24.4182 58.8756 24.4943 58.6015 24.6466C58.3309 24.7988 58.116 25.0221 57.957 25.3164C57.8014 25.6074 57.7236 25.9592 57.7236 26.3719ZM67.0153 31.1725C66.5213 31.1725 66.0748 31.0812 65.6756 30.8985C65.2763 30.7124 64.96 30.4435 64.7266 30.0916C64.4965 29.7398 64.3815 29.3085 64.3815 28.7976C64.3815 28.3578 64.4661 27.9958 64.6353 27.7116C64.8044 27.4275 65.0328 27.2025 65.3203 27.0367C65.6079 26.8709 65.9293 26.7458 66.2845 26.6612C66.6397 26.5766 67.0017 26.5123 67.3705 26.4684C67.8373 26.4142 68.2163 26.3702 68.5072 26.3364C68.7981 26.2992 69.0096 26.24 69.1415 26.1588C69.2735 26.0776 69.3394 25.9457 69.3394 25.763V25.7275C69.3394 25.2843 69.2143 24.9409 68.9639 24.6973C68.7169 24.4537 68.3482 24.3319 67.8576 24.3319C67.3468 24.3319 66.9442 24.4453 66.6499 24.6719C66.3589 24.8952 66.1576 25.1439 66.046 25.4179L64.62 25.0931C64.7892 24.6195 65.0361 24.2372 65.3609 23.9463C65.6891 23.6519 66.0663 23.4388 66.4926 23.3069C66.9188 23.1715 67.3671 23.1039 67.8373 23.1039C68.1486 23.1039 68.4784 23.1411 68.8269 23.2155C69.1787 23.2866 69.5069 23.4185 69.8114 23.6113C70.1192 23.8042 70.3713 24.0799 70.5675 24.4385C70.7637 24.7937 70.8618 25.2555 70.8618 25.8239V31H69.38V29.9343H69.3191C69.221 30.1305 69.0739 30.3234 68.8776 30.5128C68.6814 30.7023 68.4294 30.8596 68.1215 30.9848C67.8137 31.11 67.4449 31.1725 67.0153 31.1725ZM67.3451 29.9546C67.7646 29.9546 68.1232 29.8717 68.4209 29.706C68.722 29.5402 68.9504 29.3237 69.106 29.0564C69.265 28.7858 69.3445 28.4965 69.3445 28.1887V27.1839C69.2904 27.238 69.1855 27.2888 69.0299 27.3361C68.8776 27.3801 68.7034 27.419 68.5072 27.4528C68.311 27.4833 68.1198 27.512 67.9338 27.5391C67.7477 27.5628 67.5921 27.5831 67.4669 27.6C67.1726 27.6372 66.9036 27.6998 66.66 27.7878C66.4198 27.8757 66.227 28.0026 66.0815 28.1684C65.9394 28.3307 65.8684 28.5473 65.8684 28.8179C65.8684 29.1934 66.0071 29.4776 66.2845 29.6704C66.5619 29.8599 66.9155 29.9546 67.3451 29.9546ZM74.4001 20.6072V31H72.8828V20.6072H74.4001Z" fill="#181D27"/>
<path d="M20.8832 62.3577V47.5108H21.8344V62.3577H20.8832ZM23.6264 52.2607C23.5723 51.7542 23.3442 51.3598 22.9421 51.0776C22.5439 50.7953 22.0258 50.6542 21.3878 50.6542C20.9393 50.6542 20.5546 50.7219 20.2337 50.8572C19.9128 50.9925 19.6673 51.1762 19.4971 51.4081C19.327 51.6401 19.24 51.905 19.2362 52.2027C19.2362 52.4501 19.2922 52.6647 19.4044 52.8464C19.5203 53.0282 19.6769 53.1828 19.8741 53.3104C20.0713 53.4341 20.2898 53.5385 20.5295 53.6236C20.7692 53.7086 21.0108 53.7802 21.2544 53.8382L22.3679 54.1165C22.8164 54.2209 23.2475 54.3621 23.6612 54.5399C24.0788 54.7178 24.4519 54.942 24.7806 55.2127C25.1131 55.4833 25.376 55.81 25.5693 56.1928C25.7626 56.5756 25.8593 57.0241 25.8593 57.5383C25.8593 58.2342 25.6814 58.8471 25.3257 59.3768C24.97 59.9026 24.4558 60.3144 23.783 60.6121C23.1141 60.9059 22.3041 61.0528 21.353 61.0528C20.4289 61.0528 19.6267 60.9098 18.9462 60.6237C18.2696 60.3376 17.7399 59.92 17.3571 59.371C16.9782 58.8219 16.7733 58.153 16.7423 57.3643H18.8592C18.8901 57.778 19.0177 58.1221 19.242 58.3966C19.4662 58.6711 19.7581 58.8761 20.1177 59.0114C20.4811 59.1467 20.8871 59.2144 21.3356 59.2144C21.8034 59.2144 22.2133 59.1448 22.5651 59.0056C22.9208 58.8625 23.1992 58.6653 23.4003 58.414C23.6013 58.1588 23.7038 57.8611 23.7076 57.5209C23.7038 57.2116 23.6129 56.9564 23.4351 56.7553C23.2572 56.5504 23.0078 56.3803 22.6869 56.245C22.3699 56.1058 21.9987 55.9821 21.5734 55.8738L20.2221 55.5258C19.2439 55.2745 18.4706 54.8937 17.9023 54.3833C17.3378 53.8691 17.0555 53.1867 17.0555 52.3361C17.0555 51.6363 17.245 51.0234 17.6239 50.4976C18.0067 49.9718 18.5267 49.5639 19.184 49.2739C19.8413 48.98 20.5855 48.8331 21.4168 48.8331C22.2597 48.8331 22.9982 48.98 23.6322 49.2739C24.2702 49.5639 24.7709 49.9679 25.1343 50.486C25.4978 51.0002 25.6853 51.5918 25.6969 52.2607H23.6264ZM31.8836 61.0354C31.0214 61.0354 30.2558 60.8904 29.587 60.6005C28.9219 60.3105 28.4 59.9142 28.0211 59.4116C27.646 58.9051 27.4604 58.3309 27.4643 57.6891C27.4604 57.1903 27.5687 56.7321 27.7891 56.3146C28.0095 55.897 28.3072 55.549 28.6822 55.2707C29.0611 54.9884 29.4826 54.8086 29.9465 54.7313V54.6501C29.3356 54.5148 28.8407 54.2035 28.4618 53.7164C28.0868 53.2253 27.9012 52.6589 27.9051 52.0171C27.9012 51.4062 28.0713 50.861 28.4154 50.3816C28.7596 49.9022 29.2313 49.5252 29.8305 49.2507C30.4298 48.9723 31.1142 48.8331 31.8836 48.8331C32.6453 48.8331 33.3238 48.9723 33.9192 49.2507C34.5185 49.5252 34.9902 49.9022 35.3343 50.3816C35.6823 50.861 35.8563 51.4062 35.8563 52.0171C35.8563 52.6589 35.6649 53.2253 35.2821 53.7164C34.9032 54.2035 34.4141 54.5148 33.8149 54.6501V54.7313C34.2788 54.8086 34.6964 54.9884 35.0676 55.2707C35.4426 55.549 35.7403 55.897 35.9607 56.3146C36.1849 56.7321 36.2971 57.1903 36.2971 57.6891C36.2971 58.3309 36.1076 58.9051 35.7287 59.4116C35.3498 59.9142 34.8278 60.3105 34.1628 60.6005C33.5017 60.8904 32.7419 61.0354 31.8836 61.0354ZM31.8836 59.3768C32.3282 59.3768 32.7149 59.3014 33.0435 59.1506C33.3722 58.9959 33.6273 58.7794 33.8091 58.501C33.9908 58.2226 34.0836 57.9017 34.0874 57.5383C34.0836 57.1594 33.985 56.8249 33.7917 56.535C33.6022 56.2411 33.3412 56.0111 33.0087 55.8448C32.6801 55.6786 32.305 55.5954 31.8836 55.5954C31.4583 55.5954 31.0794 55.6786 30.7469 55.8448C30.4144 56.0111 30.1515 56.2411 29.9581 56.535C29.7687 56.8249 29.6759 57.1594 29.6798 57.5383C29.6759 57.9017 29.7648 58.2226 29.9465 58.501C30.1283 58.7755 30.3834 58.9901 30.7121 59.1448C31.0446 59.2994 31.4351 59.3768 31.8836 59.3768ZM31.8836 53.9658C32.247 53.9658 32.5679 53.8923 32.8463 53.7454C33.1286 53.5984 33.3509 53.3935 33.5133 53.1306C33.6757 52.8677 33.7588 52.5642 33.7627 52.2201C33.7588 51.8798 33.6776 51.5821 33.5191 51.3269C33.3606 51.0679 33.1402 50.8688 32.8579 50.7296C32.5757 50.5865 32.2509 50.515 31.8836 50.515C31.5086 50.515 31.178 50.5865 30.8919 50.7296C30.6096 50.8688 30.3892 51.0679 30.2307 51.3269C30.0761 51.5821 30.0007 51.8798 30.0045 52.2201C30.0007 52.5642 30.078 52.8677 30.2365 53.1306C30.3989 53.3897 30.6212 53.5946 30.9035 53.7454C31.1896 53.8923 31.5163 53.9658 31.8836 53.9658ZM42.594 61.0992C41.639 61.0992 40.8193 60.8576 40.1349 60.3743C39.4545 59.8871 38.9306 59.1854 38.5633 58.269C38.1998 57.3488 38.0181 56.2411 38.0181 54.9459C38.022 53.6506 38.2056 52.5487 38.5691 51.6401C38.9364 50.7277 39.4603 50.0317 40.1407 49.5523C40.8251 49.0728 41.6428 48.8331 42.594 48.8331C43.5451 48.8331 44.3628 49.0728 45.0472 49.5523C45.7315 50.0317 46.2554 50.7277 46.6189 51.6401C46.9862 52.5526 47.1698 53.6545 47.1698 54.9459C47.1698 56.245 46.9862 57.3546 46.6189 58.2748C46.2554 59.1912 45.7315 59.891 45.0472 60.3743C44.3667 60.8576 43.549 61.0992 42.594 61.0992ZM42.594 59.284C43.3363 59.284 43.9221 58.9186 44.3512 58.1878C44.7843 57.4532 45.0008 56.3726 45.0008 54.9459C45.0008 54.0025 44.9022 53.2099 44.705 52.5681C44.5078 51.9262 44.2294 51.4429 43.8699 51.1182C43.5103 50.7895 43.085 50.6252 42.594 50.6252C41.8555 50.6252 41.2717 50.9925 40.8425 51.7271C40.4133 52.4579 40.1968 53.5308 40.1929 54.9459C40.1891 55.8931 40.2838 56.6896 40.4771 57.3353C40.6743 57.981 40.9527 58.4682 41.3123 58.7968C41.6718 59.1216 42.0991 59.284 42.594 59.284ZM53.487 61.0992C52.532 61.0992 51.7123 60.8576 51.028 60.3743C50.3475 59.8871 49.8236 59.1854 49.4563 58.269C49.0929 57.3488 48.9112 56.2411 48.9112 54.9459C48.915 53.6506 49.0987 52.5487 49.4621 51.6401C49.8294 50.7277 50.3533 50.0317 51.0338 49.5523C51.7181 49.0728 52.5359 48.8331 53.487 48.8331C54.4381 48.8331 55.2559 49.0728 55.9402 49.5523C56.6246 50.0317 57.1485 50.7277 57.5119 51.6401C57.8792 52.5526 58.0629 53.6545 58.0629 54.9459C58.0629 56.245 57.8792 57.3546 57.5119 58.2748C57.1485 59.1912 56.6246 59.891 55.9402 60.3743C55.2598 60.8576 54.442 61.0992 53.487 61.0992ZM53.487 59.284C54.2294 59.284 54.8151 58.9186 55.2443 58.1878C55.6773 57.4532 55.8938 56.3726 55.8938 54.9459C55.8938 54.0025 55.7952 53.2099 55.5981 52.5681C55.4009 51.9262 55.1225 51.4429 54.7629 51.1182C54.4034 50.7895 53.978 50.6252 53.487 50.6252C52.7485 50.6252 52.1647 50.9925 51.7355 51.7271C51.3064 52.4579 51.0899 53.5308 51.086 54.9459C51.0821 55.8931 51.1769 56.6896 51.3702 57.3353C51.5674 57.981 51.8457 58.4682 52.2053 58.7968C52.5649 59.1216 52.9921 59.284 53.487 59.284ZM60.8438 61.0006C60.4919 61.0006 60.1904 60.8769 59.939 60.6295C59.6877 60.382 59.564 60.0804 59.5679 59.7247C59.564 59.3768 59.6877 59.079 59.939 58.8316C60.1904 58.5841 60.4919 58.4604 60.8438 58.4604C61.184 58.4604 61.4798 58.5841 61.7311 58.8316C61.9863 59.079 62.1158 59.3768 62.1197 59.7247C62.1158 59.9606 62.054 60.1752 61.9341 60.3685C61.8181 60.5618 61.6635 60.7165 61.4701 60.8324C61.2807 60.9446 61.0719 61.0006 60.8438 61.0006ZM68.1918 61.0992C67.2369 61.0992 66.4172 60.8576 65.7328 60.3743C65.0523 59.8871 64.5284 59.1854 64.1611 58.269C63.7977 57.3488 63.616 56.2411 63.616 54.9459C63.6198 53.6506 63.8035 52.5487 64.1669 51.6401C64.5342 50.7277 65.0581 50.0317 65.7386 49.5523C66.423 49.0728 67.2407 48.8331 68.1918 48.8331C69.143 48.8331 69.9607 49.0728 70.6451 49.5523C71.3294 50.0317 71.8533 50.7277 72.2168 51.6401C72.5841 52.5526 72.7677 53.6545 72.7677 54.9459C72.7677 56.245 72.5841 57.3546 72.2168 58.2748C71.8533 59.1912 71.3294 59.891 70.6451 60.3743C69.9646 60.8576 69.1468 61.0992 68.1918 61.0992ZM68.1918 59.284C68.9342 59.284 69.52 58.9186 69.9491 58.1878C70.3822 57.4532 70.5987 56.3726 70.5987 54.9459C70.5987 54.0025 70.5001 53.2099 70.3029 52.5681C70.1057 51.9262 69.8273 51.4429 69.4678 51.1182C69.1082 50.7895 68.6829 50.6252 68.1918 50.6252C67.4534 50.6252 66.8695 50.9925 66.4404 51.7271C66.0112 52.4579 65.7947 53.5308 65.7908 54.9459C65.787 55.8931 65.8817 56.6896 66.075 57.3353C66.2722 57.981 66.5506 58.4682 66.9101 58.7968C67.2697 59.1216 67.697 59.284 68.1918 59.284ZM79.0849 61.0992C78.1299 61.0992 77.3102 60.8576 76.6259 60.3743C75.9454 59.8871 75.4215 59.1854 75.0542 58.269C74.6908 57.3488 74.509 56.2411 74.509 54.9459C74.5129 53.6506 74.6966 52.5487 75.06 51.6401C75.4273 50.7277 75.9512 50.0317 76.6317 49.5523C77.316 49.0728 78.1338 48.8331 79.0849 48.8331C80.036 48.8331 80.8538 49.0728 81.5381 49.5523C82.2225 50.0317 82.7464 50.7277 83.1098 51.6401C83.4771 52.5526 83.6608 53.6545 83.6608 54.9459C83.6608 56.245 83.4771 57.3546 83.1098 58.2748C82.7464 59.1912 82.2225 59.891 81.5381 60.3743C80.8576 60.8576 80.0399 61.0992 79.0849 61.0992ZM79.0849 59.284C79.8272 59.284 80.413 58.9186 80.8422 58.1878C81.2752 57.4532 81.4917 56.3726 81.4917 54.9459C81.4917 54.0025 81.3931 53.2099 81.1959 52.5681C80.9988 51.9262 80.7204 51.4429 80.3608 51.1182C80.0012 50.7895 79.5759 50.6252 79.0849 50.6252C78.3464 50.6252 77.7626 50.9925 77.3334 51.7271C76.9043 52.4579 76.6877 53.5308 76.6839 54.9459C76.68 55.8931 76.7747 56.6896 76.9681 57.3353C77.1652 57.981 77.4436 58.4682 77.8032 58.7968C78.1628 59.1216 78.59 59.284 79.0849 59.284Z" fill="#181D27"/>
<rect x="93.166" y="40.749" width="87.4145" height="29.2487" rx="14.6244" fill="#E8FAF3"/>
<path d="M106.809 58.4468V52.4269H108.175V58.4468H106.809ZM104.482 56.1198V54.754H110.502V56.1198H104.482ZM115.277 60.9871V49.8519H115.99V60.9871H115.277ZM117.334 53.4143C117.294 53.0344 117.123 52.7386 116.821 52.5269C116.523 52.3152 116.134 52.2094 115.655 52.2094C115.319 52.2094 115.031 52.2601 114.79 52.3616C114.549 52.4631 114.365 52.6009 114.237 52.7749C114.11 52.9488 114.045 53.1475 114.042 53.3708C114.042 53.5563 114.084 53.7173 114.168 53.8536C114.255 53.9899 114.372 54.1059 114.52 54.2015C114.668 54.2943 114.832 54.3726 115.012 54.4364C115.191 54.5002 115.373 54.5539 115.555 54.5974L116.391 54.8062C116.727 54.8844 117.05 54.9903 117.361 55.1237C117.674 55.2571 117.954 55.4253 118.2 55.6282C118.449 55.8312 118.647 56.0763 118.792 56.3633C118.937 56.6504 119.009 56.9868 119.009 57.3725C119.009 57.8944 118.876 58.354 118.609 58.7513C118.342 59.1457 117.956 59.4545 117.452 59.6778C116.95 59.8982 116.343 60.0084 115.629 60.0084C114.936 60.0084 114.335 59.9011 113.824 59.6865C113.317 59.4719 112.92 59.1587 112.632 58.747C112.348 58.3352 112.195 57.8335 112.171 57.242H113.759C113.782 57.5523 113.878 57.8103 114.046 58.0162C114.214 58.2221 114.433 58.3758 114.703 58.4773C114.975 58.5788 115.28 58.6295 115.616 58.6295C115.967 58.6295 116.275 58.5773 116.538 58.4729C116.805 58.3656 117.014 58.2178 117.165 58.0293C117.316 57.8379 117.392 57.6146 117.395 57.3594C117.392 57.1274 117.324 56.936 117.191 56.7853C117.058 56.6316 116.87 56.504 116.63 56.4025C116.392 56.2981 116.114 56.2053 115.795 56.1241L114.781 55.8631C114.048 55.6746 113.468 55.389 113.041 55.0062C112.618 54.6206 112.406 54.1088 112.406 53.4708C112.406 52.9459 112.548 52.4863 112.833 52.092C113.12 51.6976 113.51 51.3917 114.003 51.1742C114.496 50.9538 115.054 50.8436 115.677 50.8436C116.309 50.8436 116.863 50.9538 117.339 51.1742C117.817 51.3917 118.193 51.6947 118.465 52.0833C118.738 52.4689 118.879 52.9126 118.887 53.4143H117.334ZM120.361 59.8735V58.7078L123.453 55.6761C123.749 55.3774 123.996 55.1121 124.193 54.8801C124.39 54.6481 124.538 54.4234 124.636 54.2059C124.735 53.9884 124.784 53.7564 124.784 53.5099C124.784 53.2287 124.721 52.988 124.593 52.7879C124.465 52.5849 124.29 52.4283 124.067 52.3181C123.843 52.2079 123.59 52.1528 123.305 52.1528C123.013 52.1528 122.756 52.2137 122.536 52.3355C122.315 52.4544 122.144 52.6241 122.022 52.8444C121.903 53.0648 121.844 53.3273 121.844 53.6317H120.309C120.309 53.0663 120.438 52.5748 120.696 52.1572C120.954 51.7396 121.309 51.4163 121.761 51.1872C122.217 50.9581 122.739 50.8436 123.327 50.8436C123.925 50.8436 124.449 50.9552 124.902 51.1785C125.354 51.4018 125.705 51.7077 125.954 52.0963C126.207 52.4849 126.333 52.9285 126.333 53.4273C126.333 53.7608 126.269 54.0885 126.141 54.4103C126.014 54.7322 125.789 55.0889 125.467 55.4804C125.148 55.8718 124.7 56.3459 124.123 56.9027L122.588 58.4642V58.5251H126.468V59.8735H120.361ZM131.333 59.8735L135.121 52.3747V52.3138H130.724V50.9654H136.792V52.3442L133.007 59.8735H131.333ZM137.317 58.2207V56.9375L141.097 50.9654H142.167V52.7923H141.514L138.97 56.8244V56.894H144.246V58.2207H137.317ZM141.567 59.8735V57.8292L141.584 57.255V50.9654H143.106V59.8735H141.567ZM148.833 59.9953C148.206 59.9953 147.65 59.888 147.162 59.6734C146.678 59.4589 146.295 59.1602 146.014 58.7774C145.733 58.3946 145.583 57.9524 145.566 57.4508H147.202C147.216 57.6914 147.296 57.9017 147.441 58.0815C147.586 58.2584 147.779 58.3961 148.019 58.4947C148.26 58.5933 148.53 58.6426 148.828 58.6426C149.147 58.6426 149.43 58.5875 149.677 58.4773C149.923 58.3642 150.116 58.2076 150.255 58.0075C150.394 57.8074 150.462 57.5769 150.459 57.3159C150.462 57.0462 150.393 56.8085 150.251 56.6026C150.109 56.3967 149.903 56.2358 149.633 56.1198C149.366 56.0038 149.044 55.9458 148.667 55.9458H147.88V54.7018H148.667C148.978 54.7018 149.249 54.6481 149.481 54.5408C149.716 54.4335 149.9 54.2827 150.033 54.0885C150.167 53.8913 150.232 53.6636 150.229 53.4056C150.232 53.1533 150.175 52.9343 150.059 52.7488C149.946 52.5603 149.785 52.4138 149.576 52.3094C149.371 52.205 149.128 52.1528 148.85 52.1528C148.577 52.1528 148.325 52.2021 148.093 52.3007C147.861 52.3993 147.674 52.54 147.532 52.7227C147.39 52.9024 147.315 53.117 147.306 53.3664H145.753C145.765 52.8676 145.908 52.4298 146.184 52.0528C146.462 51.6729 146.833 51.3772 147.297 51.1655C147.761 50.9509 148.282 50.8436 148.859 50.8436C149.453 50.8436 149.969 50.9552 150.407 51.1785C150.848 51.3989 151.189 51.6961 151.429 52.0702C151.67 52.4443 151.79 52.8575 151.79 53.3099C151.793 53.8115 151.645 54.232 151.347 54.5713C151.051 54.9105 150.662 55.1324 150.181 55.2368V55.3064C150.807 55.3934 151.287 55.6253 151.621 56.0023C151.957 56.3764 152.124 56.8418 152.121 57.3986C152.121 57.8973 151.979 58.3439 151.695 58.7383C151.413 59.1297 151.025 59.4371 150.529 59.6604C150.036 59.8837 149.471 59.9953 148.833 59.9953ZM154.338 59.9692C154.074 59.9692 153.848 59.8764 153.66 59.6908C153.471 59.5053 153.378 59.2791 153.381 59.0123C153.378 58.7513 153.471 58.528 153.66 58.3424C153.848 58.1569 154.074 58.0641 154.338 58.0641C154.593 58.0641 154.815 58.1569 155.004 58.3424C155.195 58.528 155.292 58.7513 155.295 59.0123C155.292 59.1892 155.246 59.3501 155.156 59.4951C155.069 59.6401 154.953 59.7561 154.808 59.8431C154.666 59.9272 154.509 59.9692 154.338 59.9692ZM159.849 60.0432C159.133 60.0432 158.518 59.8619 158.005 59.4995C157.495 59.1341 157.102 58.6078 156.826 57.9205C156.554 57.2304 156.417 56.3996 156.417 55.4282C156.42 54.4567 156.558 53.6303 156.831 52.9488C157.106 52.2645 157.499 51.7425 158.009 51.383C158.523 51.0234 159.136 50.8436 159.849 50.8436C160.563 50.8436 161.176 51.0234 161.689 51.383C162.203 51.7425 162.595 52.2645 162.868 52.9488C163.143 53.6332 163.281 54.4596 163.281 55.4282C163.281 56.4025 163.143 57.2347 162.868 57.9249C162.595 58.6121 162.203 59.137 161.689 59.4995C161.179 59.8619 160.566 60.0432 159.849 60.0432ZM159.849 58.6817C160.406 58.6817 160.845 58.4077 161.167 57.8596C161.492 57.3087 161.654 56.4982 161.654 55.4282C161.654 54.7206 161.581 54.1262 161.433 53.6448C161.285 53.1634 161.076 52.801 160.806 52.5574C160.537 52.3109 160.218 52.1876 159.849 52.1876C159.295 52.1876 158.858 52.4631 158.536 53.0141C158.214 53.5621 158.051 54.3668 158.049 55.4282C158.046 56.1386 158.117 56.736 158.262 57.2202C158.41 57.7045 158.618 58.0699 158.888 58.3163C159.158 58.5599 159.478 58.6817 159.849 58.6817ZM168.35 50.9654V59.8735H166.736V52.5356H166.684L164.6 53.8666V52.3877L166.814 50.9654H168.35Z" fill="#12B76A"/>
<path d="M330.689 36.876L336.813 43.0003L330.689 49.1247" stroke="#636466" stroke-width="2.04145"/>
</svg>
