<svg xmlns="http://www.w3.org/2000/svg" width="40" height="40" viewBox="0 0 40 40" fill="none">
  <path d="M29.7962 33.4832C26.9487 35.552 23.5194 36.6663 19.9998 36.6663C16.4801 36.6663 13.0508 35.552 10.2034 33.4832M27.306 5.01969C30.4694 6.56261 33.0632 9.0674 34.7156 12.1751C36.3679 15.2827 36.9941 18.8337 36.5042 22.3191M3.49547 22.319C3.00563 18.8336 3.63177 15.2826 5.28414 12.1749C6.93652 9.06724 9.53031 6.56245 12.6938 5.01953M19.057 10.9424L10.9426 19.0568C10.6126 19.3868 10.4476 19.5518 10.3857 19.7421C10.3314 19.9095 10.3314 20.0897 10.3857 20.2571C10.4476 20.4474 10.6126 20.6124 10.9426 20.9424L19.057 29.0568C19.387 29.3868 19.552 29.5518 19.7423 29.6136C19.9096 29.668 20.0899 29.668 20.2573 29.6136C20.4476 29.5518 20.6126 29.3868 20.9426 29.0568L29.057 20.9424C29.387 20.6124 29.552 20.4474 29.6138 20.2571C29.6682 20.0897 29.6682 19.9095 29.6138 19.7421C29.552 19.5518 29.387 19.3868 29.057 19.0568L20.9426 10.9424C20.6126 10.6124 20.4476 10.4474 20.2573 10.3856C20.0899 10.3312 19.9096 10.3312 19.7423 10.3856C19.552 10.4474 19.387 10.6124 19.057 10.9424Z" stroke="#535862" stroke-width="3.33333" stroke-linecap="round" stroke-linejoin="round"/>
</svg>
