<svg width="16" height="16" viewBox="0 0 16 16" fill="none" xmlns="http://www.w3.org/2000/svg">
    <path fill-rule="evenodd" clip-rule="evenodd"
          d="M8 16C12.4183 16 16 12.4183 16 8C16 3.58172 12.4183 0 8 0C3.58172 0 0 3.58172 0 8C0 12.4183 3.58172 16 8 16ZM7 4C7 3.44772 7.44772 3 8 3C8.55229 3 9 3.44772 9 4V8C9 8.55228 8.55229 9 8 9C7.44772 9 7 8.55228 7 8V4ZM7.98665 11C8.53894 11 8.98665 11.4477 8.98665 12C8.98665 12.5523 8.53894 13 7.98665 13H7.97332C7.42103 13 6.97332 12.5523 6.97332 12C6.97332 11.4477 7.42103 11 7.97332 11H7.98665Z"
          fill="currentColor"/>
</svg>
