<svg width="24" height="24" viewBox="0 0 24 24" fill="none" xmlns="http://www.w3.org/2000/svg">
<path d="M16 22L16.7071 22.7071L16 23.4142L15.2929 22.7071L16 22ZM15 7C15 6.44772 15.4477 6 16 6C16.5523 6 17 6.44772 17 7L15 7ZM21.7071 17.7071L16.7071 22.7071L15.2929 21.2929L20.2929 16.2929L21.7071 17.7071ZM15.2929 22.7071L10.2929 17.7071L11.7071 16.2929L16.7071 21.2929L15.2929 22.7071ZM15 22L15 7L17 7L17 22L15 22Z" fill="currentColor"/>
<path d="M8 2L8.70711 1.29289L8 0.585786L7.29289 1.29289L8 2ZM7 17C7 17.5523 7.44772 18 8 18C8.55228 18 9 17.5523 9 17L7 17ZM13.7071 6.29289L8.70711 1.29289L7.29289 2.70711L12.2929 7.70711L13.7071 6.29289ZM7.29289 1.29289L2.29289 6.29289L3.70711 7.70711L8.70711 2.70711L7.29289 1.29289ZM7 2L7 17L9 17L9 2L7 2Z" fill="currentColor"/>
</svg>
