<svg width="0" height="0"><symbol xmlns="http://www.w3.org/2000/svg" id="logo-heleket-footer" fill="none" viewBox="0 0 150 32"><path fill="#F21818" d="m2 22 10 5-3.5-4.5 4-11h6l4 11.5-4 4-4.5 4.5L29.5 24 21 0l-2.5 6.5H13L10 0 2 22Zm74.9 3.5h4.6L78 22.1h-1.1c-.363 0-.66-.123-.918-.382a1.234 1.234 0 0 1-.382-.918V6.5h-3.4v14.3c0 .866.204 1.665.618 2.385l.004.007.004.006a4.981 4.981 0 0 0 1.705 1.679l.008.005c.719.413 1.51.618 2.361.618Zm34.103 0h5.013l-9.303-7.581 8.072-6.619h-4.843l-8.055 6.727V6.5h-3.4v19h3.4v-3.623l2.287-1.873 6.829 5.496Zm28.404 0h-3.4V14.7h-3.6v-3.4h3.6V6.5h3.4v4.8H150v3.4h-10.593v10.8Z"/><path fill="#F21818" fill-rule="evenodd" d="M70.355 18.365a4.715 4.715 0 0 1-1.686 1.712l-.003.002c-.707.417-1.5.621-2.366.621h-8.299c.242.31.533.58.875.814.586.39 1.24.586 1.976.586H70v3.4h-9.148c-.975 0-1.897-.18-2.762-.543l-.01-.005a7.463 7.463 0 0 1-2.238-1.542l-.004-.005a7.317 7.317 0 0 1-1.494-2.24l-.001-.003A7.062 7.062 0 0 1 53.8 18.4c0-.974.18-1.89.544-2.74a7.236 7.236 0 0 1 1.494-2.265l.004-.005a7.112 7.112 0 0 1 2.243-1.52 6.796 6.796 0 0 1 2.767-.57H66.3c.867 0 1.66.213 2.368.646.711.41 1.275.975 1.686 1.686.433.707.646 1.5.646 2.368 0 .854-.214 1.646-.645 2.365ZM59.148 15.12a3.523 3.523 0 0 1 1.704-.419H66.3c.363 0 .66.123.918.382.26.258.382.555.382.918s-.123.66-.382.918a1.234 1.234 0 0 1-.918.382h-8.931a3.797 3.797 0 0 1 1.78-2.182Z" clip-rule="evenodd"/><path fill="#F21818" d="M49.336 25.5v-7.2H36.5v-3.4h12.836V7.7h3.4v17.8h-3.4Z"/><path fill="#F21818" d="M34 25.5h3.4V7.7H34v17.8Z"/><path fill="#F21818" fill-rule="evenodd" d="M96.055 18.365a4.715 4.715 0 0 1-1.686 1.712l-.003.002c-.707.417-1.5.621-2.366.621h-8.299c.242.31.533.58.875.814.586.39 1.24.586 1.976.586H95.7v3.4h-9.148c-.975 0-1.897-.18-2.762-.543l-.01-.005a7.463 7.463 0 0 1-2.238-1.542l-.004-.005a7.317 7.317 0 0 1-1.494-2.24l-.001-.003A7.062 7.062 0 0 1 79.5 18.4c0-.974.18-1.89.544-2.74a7.236 7.236 0 0 1 1.494-2.265l.004-.005a7.112 7.112 0 0 1 2.243-1.52 6.796 6.796 0 0 1 2.767-.57H92c.867 0 1.66.213 2.368.646.711.41 1.275.975 1.686 1.686.433.707.646 1.5.646 2.368 0 .854-.214 1.646-.645 2.365ZM84.848 15.12a3.523 3.523 0 0 1 1.704-.419H92c.363 0 .66.123.918.382.26.258.382.555.382.918s-.123.66-.382.918A1.234 1.234 0 0 1 92 17.3h-8.931c.112-.371.282-.716.507-1.036a3.812 3.812 0 0 1 1.272-1.146Zm45.707 3.245a4.717 4.717 0 0 1-1.686 1.712l-.003.002c-.707.417-1.5.621-2.366.621h-8.299c.242.31.533.58.875.814a3.48 3.48 0 0 0 1.976.586h9.148v3.4h-9.148c-.975 0-1.897-.18-2.762-.543l-.011-.005a7.47 7.47 0 0 1-2.237-1.542l-.004-.005a7.317 7.317 0 0 1-1.494-2.24l-.001-.003A7.064 7.064 0 0 1 114 18.4c0-.974.18-1.89.544-2.74a7.213 7.213 0 0 1 1.494-2.265l.004-.005a7.114 7.114 0 0 1 2.243-1.52 6.796 6.796 0 0 1 2.767-.57h5.448c.867 0 1.661.213 2.368.646a4.54 4.54 0 0 1 1.686 1.686c.433.707.646 1.5.646 2.368 0 .854-.214 1.646-.645 2.365Zm-11.207-3.246a3.524 3.524 0 0 1 1.704-.419h5.448c.363 0 .66.123.918.382.259.258.382.555.382.918s-.123.66-.382.918a1.232 1.232 0 0 1-.918.382h-8.931c.113-.371.282-.716.507-1.036a3.806 3.806 0 0 1 1.272-1.146Z" clip-rule="evenodd"/></symbol><symbol xmlns="http://www.w3.org/2000/svg" id="logo-heleket" fill="none" viewBox="0 0 116 20"><path fill="#F21818" d="M42.9 19.5h4.6L44 16.1h-1.1c-.363 0-.66-.123-.918-.382a1.234 1.234 0 0 1-.382-.918V.5h-3.4v14.3c0 .866.204 1.665.618 2.385l.004.007.004.006a4.981 4.981 0 0 0 1.705 1.679l.008.005c.719.413 1.51.618 2.361.618Zm34.103 0h5.013l-9.303-7.581L80.785 5.3h-4.843l-8.055 6.727V.5h-3.4v19h3.4v-3.623l2.287-1.873 6.829 5.496Zm28.404 0h-3.4V8.7h-3.6V5.3h3.6V.5h3.4v4.8H116v3.4h-10.593v10.8Z"/><path fill="#F21818" fill-rule="evenodd" d="M36.355 12.365a4.715 4.715 0 0 1-1.686 1.712l-.003.002c-.707.417-1.5.621-2.366.621h-8.299c.242.31.533.58.875.814.586.39 1.24.586 1.976.586H36v3.4h-9.148c-.975 0-1.897-.18-2.762-.543l-.01-.005a7.463 7.463 0 0 1-2.238-1.542l-.004-.005a7.317 7.317 0 0 1-1.494-2.24l-.001-.003A7.062 7.062 0 0 1 19.8 12.4c0-.974.18-1.89.544-2.74a7.235 7.235 0 0 1 1.494-2.265l.004-.005a7.111 7.111 0 0 1 2.243-1.52 6.796 6.796 0 0 1 2.767-.57H32.3c.867 0 1.66.213 2.368.646.711.41 1.275.975 1.686 1.686.433.707.646 1.5.646 2.368 0 .854-.214 1.646-.645 2.365ZM25.148 9.118a3.523 3.523 0 0 1 1.704-.418H32.3c.363 0 .66.123.918.382.26.258.382.555.382.918s-.123.66-.382.918a1.234 1.234 0 0 1-.918.382h-8.931a3.797 3.797 0 0 1 1.78-2.182Z" clip-rule="evenodd"/><path fill="#F21818" d="M15.336 19.5v-7.2H2.5V8.9h12.836V1.7h3.4v17.8h-3.4Z"/><path fill="#F21818" d="M0 19.5h3.4V1.7H0v17.8Z"/><path fill="#F21818" fill-rule="evenodd" d="M62.055 12.365a4.715 4.715 0 0 1-1.686 1.712l-.003.002c-.707.417-1.5.621-2.366.621h-8.299c.242.31.533.58.875.814.586.39 1.24.586 1.976.586H61.7v3.4h-9.148c-.975 0-1.897-.18-2.762-.543l-.01-.005a7.463 7.463 0 0 1-2.238-1.542l-.004-.005a7.317 7.317 0 0 1-1.494-2.24l-.001-.003A7.062 7.062 0 0 1 45.5 12.4c0-.974.18-1.89.544-2.74a7.235 7.235 0 0 1 1.494-2.265l.004-.005a7.111 7.111 0 0 1 2.243-1.52 6.796 6.796 0 0 1 2.767-.57H58c.867 0 1.66.213 2.368.646.711.41 1.275.975 1.686 1.686.433.707.646 1.5.646 2.368 0 .854-.214 1.646-.645 2.365ZM50.848 9.118a3.523 3.523 0 0 1 1.704-.418H58c.363 0 .66.123.918.382.26.258.382.555.382.918s-.123.66-.382.918A1.234 1.234 0 0 1 58 11.3h-8.931a3.797 3.797 0 0 1 1.78-2.182Zm45.707 3.247a4.715 4.715 0 0 1-1.686 1.712l-.003.002c-.707.417-1.5.621-2.366.621h-8.299c.242.31.533.58.875.814.586.39 1.24.586 1.976.586H96.2v3.4h-9.148c-.975 0-1.897-.18-2.762-.543l-.01-.005a7.463 7.463 0 0 1-2.238-1.542l-.004-.005a7.317 7.317 0 0 1-1.494-2.24l-.001-.003A7.062 7.062 0 0 1 80 12.4c0-.974.18-1.89.544-2.74a7.235 7.235 0 0 1 1.494-2.265l.004-.005a7.111 7.111 0 0 1 2.243-1.52 6.796 6.796 0 0 1 2.767-.57H92.5c.867 0 1.66.213 2.368.646.711.41 1.275.975 1.686 1.686.433.707.646 1.5.646 2.368 0 .854-.214 1.646-.645 2.365ZM85.348 9.118a3.523 3.523 0 0 1 1.704-.418H92.5c.363 0 .66.123.918.382.26.258.382.555.382.918s-.123.66-.382.918a1.234 1.234 0 0 1-.918.382h-8.931c.112-.371.282-.716.507-1.036a3.812 3.812 0 0 1 1.272-1.146Z" clip-rule="evenodd"/></symbol></svg>