<svg width="0" height="0"><symbol xmlns="http://www.w3.org/2000/svg" id="icon-discord" fill="none" viewBox="0 0 20 20"><path fill="#000" d="M16.058 4.442A14.152 14.152 0 0 0 12.5 3.334a.084.084 0 0 0-.058.025c-.15.275-.325.633-.442.908-1.326-.2-2.674-.2-4 0a8.355 8.355 0 0 0-.45-.908c-.008-.017-.033-.025-.058-.025a14.26 14.26 0 0 0-3.558 1.108c-.009 0-.017.009-.025.017-2.267 3.392-2.892 6.692-2.584 9.958 0 .017.009.034.025.042a14.46 14.46 0 0 0 4.367 2.208c.025.009.05 0 .058-.016.334-.459.634-.942.892-1.45.017-.034 0-.067-.033-.075-.475-.184-.925-.4-1.367-.65-.033-.017-.033-.067-.008-.092.091-.067.183-.142.275-.208a.051.051 0 0 1 .058-.009c2.867 1.309 5.958 1.309 8.792 0a.051.051 0 0 1 .058.009c.091.075.183.141.275.216.033.025.033.075-.008.092a8.93 8.93 0 0 1-1.367.65c-.034.008-.042.05-.034.075.267.508.567.992.892 1.45.025.008.05.017.075.008a14.417 14.417 0 0 0 4.375-2.208.046.046 0 0 0 .025-.042c.367-3.775-.608-7.05-2.583-9.958-.008-.008-.017-.017-.034-.017ZM7.1 12.426c-.858 0-1.575-.792-1.575-1.767 0-.975.7-1.767 1.575-1.767.884 0 1.584.8 1.575 1.767 0 .975-.7 1.767-1.575 1.767Zm5.809 0c-.859 0-1.575-.792-1.575-1.767 0-.975.7-1.767 1.575-1.767.883 0 1.583.8 1.574 1.767 0 .975-.691 1.767-1.575 1.767Z"/></symbol><symbol xmlns="http://www.w3.org/2000/svg" id="icon-facebook" fill="none" viewBox="0 0 20 20"><path fill="#000" d="M18.333 10c0-4.6-3.733-8.334-8.333-8.334a8.336 8.336 0 0 0-8.333 8.333c0 4.034 2.866 7.392 6.666 8.167v-5.667H6.667V10h1.666V7.916a2.92 2.92 0 0 1 2.917-2.917h2.083v2.5h-1.666a.836.836 0 0 0-.834.834v1.666h2.5v2.5h-2.5v5.792a8.332 8.332 0 0 0 7.5-8.292Z"/></symbol><symbol xmlns="http://www.w3.org/2000/svg" id="icon-inkedin" fill="none" viewBox="0 0 20 20"><path fill="#000" d="M15.833 2.5A1.666 1.666 0 0 1 17.5 4.167v11.666a1.666 1.666 0 0 1-1.667 1.667H4.167A1.667 1.667 0 0 1 2.5 15.833V4.167A1.667 1.667 0 0 1 4.167 2.5h11.666Zm-.416 12.917V11A2.717 2.717 0 0 0 12.7 8.283c-.708 0-1.533.434-1.933 1.084v-.925H8.442v6.975h2.325v-4.109a1.163 1.163 0 1 1 2.325 0v4.109h2.325ZM5.733 7.133a1.4 1.4 0 0 0 1.4-1.4 1.405 1.405 0 1 0-1.4 1.4Zm1.159 8.284V8.442H4.583v6.975h2.309Z"/></symbol><symbol xmlns="http://www.w3.org/2000/svg" id="icon-instagram" fill="none" viewBox="0 0 20 20"><path fill="#000" d="M6.5 1.666h7a4.837 4.837 0 0 1 4.833 4.833v7a4.833 4.833 0 0 1-4.833 4.834h-7a4.837 4.837 0 0 1-4.833-4.834v-7A4.833 4.833 0 0 1 6.5 1.666Zm-.167 1.667a3 3 0 0 0-3 3v7.333c0 1.658 1.342 3 3 3h7.334a3 3 0 0 0 3-3V6.333c0-1.659-1.342-3-3-3H6.333Zm8.042 1.25a1.042 1.042 0 1 1 0 2.084 1.042 1.042 0 0 1 0-2.084ZM10 5.833a4.167 4.167 0 1 1 0 8.333 4.167 4.167 0 0 1 0-8.333Zm0 1.666a2.5 2.5 0 1 0 0 5 2.5 2.5 0 0 0 0-5Z"/></symbol><symbol xmlns="http://www.w3.org/2000/svg" id="icon-tg-button" fill="currentColor" viewBox="0 0 20 20"><path fill="#000" d="M10 20c5.523 0 10-4.477 10-10S15.523 0 10 0 0 4.477 0 10s4.477 10 10 10Z"/><path fill="#fff" fill-rule="evenodd" d="M4.527 9.895a473.415 473.415 0 0 1 5.831-2.512c2.777-1.156 3.354-1.356 3.73-1.363.083-.001.268.02.388.116a.421.421 0 0 1 .142.271c.014.078.03.255.017.394-.15 1.581-.801 5.418-1.133 7.19-.14.749-.416 1-.683 1.025-.58.053-1.022-.384-1.584-.753-.88-.577-1.378-.936-2.232-1.499-.987-.65-.347-1.008.215-1.592.148-.154 2.706-2.48 2.756-2.692.006-.026.012-.125-.047-.177-.058-.052-.144-.034-.207-.02-.088.02-1.494.95-4.218 2.788-.399.274-.76.408-1.084.4-.357-.007-1.044-.201-1.555-.367-.626-.204-1.124-.311-1.08-.657.022-.18.27-.364.744-.552Z" clip-rule="evenodd"/></symbol><symbol xmlns="http://www.w3.org/2000/svg" id="icon-x-button" fill="none" viewBox="0 0 16 16"><path fill="#090D12" d="M9.583 7.05 15.065.819h-1.299L9.006 6.23 5.202.818H.818l5.75 8.184-5.75 6.536h1.3l5.026-5.715 4.016 5.715h4.385L9.582 7.05Zm-1.78 2.024-.582-.815-4.636-6.484h1.996l3.74 5.233.583.815 4.863 6.802H11.77l-3.968-5.55v-.001Z"/></symbol><symbol xmlns="http://www.w3.org/2000/svg" id="icon-youtube" fill="none" viewBox="0 0 20 20"><path fill="#000" d="m8.333 12.5 4.325-2.5-4.325-2.5v5Zm9.634-6.526c.108.392.183.917.233 1.584.058.666.083 1.241.083 1.741l.05.7c0 1.825-.133 3.167-.366 4.025-.209.75-.692 1.234-1.442 1.442-.392.108-1.108.183-2.208.233a55.475 55.475 0 0 1-2.992.084l-1.325.05c-3.492 0-5.667-.134-6.525-.367-.75-.208-1.233-.692-1.442-1.442-.108-.391-.183-.916-.233-1.583a20.053 20.053 0 0 1-.083-1.742l-.05-.7c0-1.825.133-3.166.366-4.025.209-.75.692-1.233 1.442-1.441.392-.109 1.108-.184 2.208-.234a55.545 55.545 0 0 1 2.992-.083L10 4.166c3.492 0 5.667.133 6.525.367.75.208 1.233.691 1.442 1.441Z"/></symbol><symbol xmlns="http://www.w3.org/2000/svg" id="icon-zendesk" fill="none" viewBox="0 0 40 40"><path fill="#FAFCFF" d="M36.667 18.333A8.333 8.333 0 0 0 28.333 10H11.667a8.333 8.333 0 0 0 0 16.667h16.666a8.333 8.333 0 0 0 8.334-8.334ZM30 36.667V30h-6.667L30 36.667Z"/><path fill="#FAFCFF" d="M36.667 18.333A8.333 8.333 0 0 0 28.333 10H11.667a8.333 8.333 0 0 0 0 16.667h16.666a8.333 8.333 0 0 0 8.334-8.334ZM30 36.667V30h-6.667L30 36.667Z"/></symbol></svg>