<svg width="0" height="0"><symbol xmlns="http://www.w3.org/2000/svg" id="eye-outline" fill="none" viewBox="0 0 24 24"><path stroke="#636466" stroke-linecap="round" stroke-linejoin="round" stroke-width="2" d="M15 12a3 3 0 1 1-6 0 3 3 0 0 1 6 0Z"/><path stroke="#636466" stroke-linecap="round" stroke-linejoin="round" stroke-width="2" d="M12.001 5C7.524 5 3.733 7.943 2.46 12c1.274 4.057 5.065 7 9.542 7 4.478 0 8.268-2.943 9.542-7-1.274-4.057-5.064-7-9.542-7Z"/></symbol><symbol xmlns="http://www.w3.org/2000/svg" id="eye-slash-outline" viewBox="0 0 24 24"><path stroke="#636466" stroke-linecap="round" stroke-linejoin="round" stroke-width="2" d="m2.999 3 18 18M9.843 9.914a3 3 0 0 0 4.265 4.22M6.5 6.646A10.024 10.024 0 0 0 2.457 12c1.274 4.057 5.065 7 9.542 7 1.99 0 3.842-.58 5.4-1.582m-6.4-12.369c.329-.032.663-.049 1-.049 4.478 0 8.268 2.943 9.542 7a9.954 9.954 0 0 1-1.189 2.5"/></symbol><symbol xmlns="http://www.w3.org/2000/svg" id="links" fill="none" viewBox="0 0 24 24"><circle cx="5" cy="5" r="2" fill="#090D12"/><circle cx="12" cy="5" r="2" fill="#090D12"/><circle cx="19" cy="5" r="2" fill="#090D12"/><circle cx="5" cy="12" r="2" fill="#090D12"/><circle cx="5" cy="19" r="2" fill="#090D12"/><circle cx="12" cy="12" r="2" fill="#090D12"/><circle cx="12" cy="19" r="2" fill="#090D12"/><circle cx="19" cy="12" r="2" fill="#090D12"/><circle cx="19" cy="19" r="2" fill="#090D12"/></symbol><symbol xmlns="http://www.w3.org/2000/svg" id="overview" fill="none" viewBox="0 0 24 24"><path stroke="currentColor" stroke-linecap="round" stroke-linejoin="round" stroke-width="2" d="M12 20V10m6 10V4M6 20v-4"/></symbol></svg>