<svg width="20" height="20" viewBox="0 0 20 20" fill="none" xmlns="http://www.w3.org/2000/svg">
<path fill-rule="evenodd" clip-rule="evenodd" d="M0 10C0 4.47715 4.47715 0 10 0C15.5228 0 20 4.47715 20 10C20 15.5228 15.5228 20 10 20C4.47715 20 0 15.5228 0 10ZM10 5C10.5523 5 11 5.44772 11 6V10C11 10.5523 10.5523 11 10 11C9.44771 11 9 10.5523 9 10V6C9 5.44772 9.44771 5 10 5ZM10 13C10.5523 13 11 13.4477 11 14V14.001C11 14.5533 10.5523 15.001 10 15.001C9.44771 15.001 9 14.5533 9 14.001V14C9 13.4477 9.44771 13 10 13Z" fill="currentColor"/>
</svg>
