<svg width="20" height="20" viewBox="0 0 20 20" fill="none" xmlns="http://www.w3.org/2000/svg">
<g clip-path="url(#clip0_2936_26)">
<path fill-rule="evenodd" clip-rule="evenodd" d="M10 20C15.5228 20 20 15.5228 20 10C20 4.47715 15.5228 0 10 0C4.47715 0 0 4.47715 0 10C0 15.5228 4.47715 20 10 20ZM14.4571 8.20711C14.8476 7.81658 14.8476 7.18342 14.4571 6.79289C14.0666 6.40237 13.4334 6.40237 13.0429 6.79289L8.29545 11.5403L6.95711 10.202C6.56658 9.81146 5.93342 9.81146 5.54289 10.202C5.15237 10.5925 5.15237 11.2257 5.54289 11.6162L7.58835 13.6617C7.77588 13.8492 8.03024 13.9545 8.29545 13.9545C8.56067 13.9545 8.81502 13.8492 9.00256 13.6617L14.4571 8.20711Z" fill="currentColor"/>
</g>
<defs>
<clipPath id="clip0_2936_26">
<rect width="20" height="20" fill="white"/>
</clipPath>
</defs>
</svg>
