<svg width="20" height="20" viewBox="0 0 20 20" fill="none" xmlns="http://www.w3.org/2000/svg">
<path fill-rule="evenodd" clip-rule="evenodd" d="M20 10C20 15.5228 15.5228 20 10 20C4.47715 20 0 15.5228 0 10C0 4.47715 4.47715 0 10 0C15.5228 0 20 4.47715 20 10ZM11 5C11 4.44772 10.5523 4 10 4C9.44771 4 9 4.44772 9 5V10C9 10.3788 9.214 10.725 9.55279 10.8944L12.8861 12.5611C13.3801 12.8081 13.9808 12.6079 14.2278 12.1139C14.4747 11.6199 14.2745 11.0192 13.7805 10.7722L11 9.38197V5Z" fill="#FFA64C"/>
</svg>
