<svg width="24" height="24" viewBox="0 0 24 24" fill="none" xmlns="http://www.w3.org/2000/svg">
<path d="M21.7846 5.57792L12.6669 0.314081C12.2562 0.0763876 11.7438 0.0763876 11.3308 0.314081L2.21308 5.57792C1.8 5.81561 1.54385 6.25868 1.54385 6.73638V17.2641C1.54385 17.7395 1.8 18.1825 2.21308 18.4225L11.3308 23.6865C11.5338 23.8042 11.7646 23.8642 12 23.8642C12.2354 23.8642 12.4662 23.8019 12.6692 23.6865L21.7869 18.4225C22.2 18.1848 22.4562 17.7418 22.4562 17.2641V6.73638C22.4562 6.26099 22.2 5.81792 21.7869 5.57792H21.7846ZM12.2054 11.3471C12.0785 11.421 11.9192 11.421 11.7923 11.3471L2.92846 6.23099L11.7923 1.11485C11.9169 1.04331 12.0808 1.04331 12.2054 1.11485L21.0692 6.23099L12.2054 11.3471ZM11.3308 12.1456C11.3954 12.1825 11.4646 12.2148 11.5385 12.2402V22.7356L2.67462 17.6218C2.54769 17.5479 2.46692 17.4118 2.46692 17.2641V7.02945L11.3308 12.1456Z" fill="currentColor"/>
</svg>
