<svg width="24" height="24" viewBox="0 0 24 24" fill="none" xmlns="http://www.w3.org/2000/svg">
<path d="M12 3.5C12 2.67157 12.6753 1.98848 13.4944 2.11228C15.0713 2.35062 16.5759 2.96393 17.8779 3.90983C19.5863 5.15111 20.858 6.9014 21.5106 8.90983C22.1631 10.9183 22.1631 13.0817 21.5106 15.0902C20.858 17.0986 19.5863 18.8489 17.8779 20.0902C16.1694 21.3315 14.1118 22 12 22C9.88821 22 7.83062 21.3314 6.12215 20.0902C4.41367 18.8489 3.14201 17.0986 2.48943 15.0902C1.99215 13.5597 1.87381 11.9391 2.13442 10.3658C2.2698 9.54852 3.12814 9.11736 3.91602 9.37335C4.7039 9.62935 5.11747 10.4778 5.03488 11.3021C4.93875 12.2614 5.04133 13.2359 5.3426 14.1631C5.79941 15.569 6.68957 16.7942 7.8855 17.6631C9.08144 18.532 10.5217 19 12 19C13.4783 19 14.9186 18.532 16.1145 17.6631C17.3104 16.7942 18.2006 15.569 18.6574 14.1631C19.1142 12.7572 19.1142 11.2428 18.6574 9.83688C18.2006 8.43098 17.3104 7.20578 16.1145 6.33688C15.3257 5.76382 14.4307 5.36515 13.4886 5.1601C12.6791 4.98393 12 4.32843 12 3.5Z" fill="currentColor">
<animateTransform
      attributeType="xml"
      attributeName="transform"
      type="rotate"
      from="0 12 12"
      to="360 12 12"
      dur="0.5s"
      repeatCount="indefinite"
    />
</path>
</svg>
