<svg width="24" height="24" viewBox="0 0 24 24" fill="none" xmlns="http://www.w3.org/2000/svg">
<g clip-path="url(#clip0_1677_28)">
<path fill-rule="evenodd" clip-rule="evenodd" d="M0 12C0 18.6274 5.37258 24 12 24C18.6274 24 24 18.6274 24 12C24 5.37258 18.6274 0 12 0C5.37258 0 0 5.37258 0 12ZM9.54 3.3915C10.3588 3.60438 11.5962 4.2918 12.51 5.04138C12.741 5.23086 13.2259 5.68494 13.5875 6.0504C13.9492 6.41592 14.2536 6.70638 14.2641 6.69588C14.2973 6.66264 14.5299 5.98182 14.6146 5.67C14.6593 5.505 14.7289 5.06532 14.7692 4.6929L14.784 4.55663C14.817 4.25148 15.0795 4.02325 15.3863 4.0329C15.6947 4.0426 15.9489 4.28243 15.9739 4.59C16.0721 5.79996 16.5337 7.00968 17.2739 7.99728C17.5672 8.38842 18.3501 9.1494 18.7605 9.44214C19.1554 9.72378 20.0155 10.148 20.52 10.3099C20.9787 10.4572 21.8827 10.6195 22.245 10.6198C22.3859 10.6199 22.5 10.7341 22.5 10.875V11.19V11.445C22.5 11.619 22.359 11.76 22.185 11.76C21.4946 11.7601 20.2262 12.1053 19.5298 12.4828C18.9961 12.7722 18.4086 13.1741 18.1903 13.3994C18.0701 13.5234 18.0214 13.7 18.0611 13.8681L18.1452 14.2242C18.7738 16.8856 18.484 19.0375 17.3458 20.1605C17.1281 20.3752 16.8283 20.6101 16.6794 20.6825C15.3695 21.3193 13.5133 21.1078 11.4 20.081C10.7836 19.7815 9.89856 19.2683 9.48 18.9679C8.4189 18.2061 7.7043 17.606 6.8991 16.8009C4.6599 14.5616 3.1605 12.0241 2.75358 9.78486C2.47536 8.25354 2.73576 7.10688 3.54636 6.29442C4.0182 5.8215 4.4022 5.64984 5.49 5.42568C5.57154 5.40888 5.68296 5.2461 5.83776 4.91772C6.2139 4.1196 6.85896 3.57462 7.72146 3.32628C8.0892 3.22044 9.009 3.25338 9.54 3.3915ZM8.04 3.84804C7.59546 3.92082 7.1352 4.15428 6.82566 4.46388C6.537 4.7526 6.20004 5.32692 6.27834 5.39676C6.30678 5.42208 6.546 5.47314 6.81 5.51022C7.48182 5.6046 7.57254 5.62494 8.07672 5.79414C9.51642 6.27744 11.0749 7.15674 12.4276 8.24892L12.6264 8.40947C12.7957 8.54611 13.0425 8.52513 13.1863 8.3619C13.5086 7.99614 13.92 7.38828 13.92 7.27782C13.92 7.14444 12.3791 5.63802 11.82 5.2248C10.7756 4.4529 9.88806 4.02492 9.01512 3.87222C8.72628 3.8217 8.463 3.78348 8.43 3.7872C8.397 3.79098 8.2215 3.81834 8.04 3.84804ZM5.04 6.08814C4.14234 6.34548 3.65676 6.79722 3.35598 7.65486C3.16476 8.19996 3.17682 9.24984 3.38364 10.067C4.15986 13.1339 6.86634 16.5914 10.1834 18.7536C10.6936 19.0862 11.8198 19.7002 11.855 19.6649C11.866 19.654 11.6806 19.4976 11.443 19.3175C10.9159 18.9181 9.75738 17.7722 9.26076 17.1593C7.44048 14.9125 6.03858 12.0425 5.5536 9.57C5.27778 8.16354 5.23776 7.02732 5.43276 6.135C5.46654 5.9805 5.43054 5.97618 5.04 6.08814ZM5.94882 6.41658C5.3094 10.2884 8.55804 16.7672 12.4268 19.3355C15.0441 21.073 17.0754 20.6884 17.7362 18.33C17.8876 17.7901 17.9195 16.2116 17.7946 15.4463C17.644 14.5243 17.5549 14.13 17.4968 14.13C17.4151 14.13 16.891 14.9186 16.6496 15.4047C16.2557 16.198 16.0372 16.9786 15.9778 17.805C15.9577 18.0839 15.7256 18.3 15.4459 18.3H15.3909C15.0771 18.3 14.8135 18.0639 14.7791 17.752L14.7684 17.655C14.7293 17.3002 14.6309 16.7805 14.5497 16.5C14.3629 15.8543 13.8922 14.9059 13.5054 14.3957C13.1332 13.9047 12.4322 13.2343 11.9458 12.904C11.0452 12.2924 9.80838 11.8532 8.775 11.7781C8.49601 11.7579 8.28 11.5256 8.28 11.2459V11.1811V10.875C8.28 10.7342 8.39416 10.62 8.535 10.6199C8.88852 10.6198 9.73374 10.4651 10.1957 10.316C10.9788 10.0632 12.0335 9.498 12.3485 9.16236C12.423 9.08297 12.4136 8.95684 12.3281 8.88942L11.9374 8.5812C10.7807 7.66884 9.19686 6.76734 8.09292 6.39318C7.48872 6.18834 6.63732 6.00294 6.29382 6.00132C6.13466 6.00056 5.99851 6.11552 5.97259 6.27256L5.94882 6.41658Z" fill="#0A0A0A"/>
</g>
<defs>
<clipPath id="clip0_1677_28">
<rect width="24" height="24" fill="white"/>
</clipPath>
</defs>
</svg>
