<svg width="24" height="24" viewBox="0 0 24 24" fill="none" xmlns="http://www.w3.org/2000/svg">
<path fill-rule="evenodd" clip-rule="evenodd" d="M8.00001 7.24615C8.00001 6.37465 8.01873 5.32735 8.49486 4.48783C8.90359 3.76715 9.77413 3 12 3C14.2259 3 15.0964 3.76715 15.5052 4.48783C15.9813 5.32735 16 6.37465 16 7.24615C16 8.26441 15.5846 9.48973 14.8359 10.4517C14.0944 11.4043 13.1107 12 12 12C10.8894 12 9.90562 11.4043 9.16414 10.4517C8.41539 9.48973 8.00001 8.26441 8.00001 7.24615ZM12 1C9.22589 1 7.59644 2.01783 6.75517 3.50118C5.99878 4.83486 5.99957 6.37036 5.99999 7.19044L6.00001 7.24615C6.00001 8.74218 6.58463 10.3938 7.58588 11.6802C8.5944 12.9759 10.1107 14 12 14C13.8894 14 15.4056 12.9759 16.4141 11.6802C17.4154 10.3938 18 8.74218 18 7.24615L18 7.19044C18.0005 6.37036 18.0012 4.83486 17.2449 3.50118C16.4036 2.01783 14.7741 1 12 1ZM5.21367 17.0576C6.30209 16.4909 7.60681 16.5302 8.65908 17.1616L8.89866 17.3053C10.8076 18.4507 13.1924 18.4507 15.1014 17.3053L15.3409 17.1616C16.3932 16.5302 17.6979 16.4909 18.7864 17.0576C19.6377 17.501 20.2708 18.2715 20.5415 19.1904C17.9332 20.3532 15.0435 21 12 21C8.95653 21 6.06677 20.3532 3.45853 19.1905C3.72918 18.2715 4.36234 17.501 5.21367 17.0576ZM9.68807 15.4466C8.0394 14.4574 5.99521 14.3957 4.28992 15.2838C2.92621 15.9939 1.91982 17.2399 1.51239 18.7224C1.26811 19.6114 1.68232 20.5841 2.56296 20.9808C5.44368 22.2784 8.63892 23 12 23C15.3611 23 18.5563 22.2784 21.4371 20.9807C22.3177 20.5841 22.7319 19.6114 22.4876 18.7224C22.0802 17.2399 21.0738 15.9939 19.7101 15.2838C18.0048 14.3957 15.9606 14.4574 14.3119 15.4466L14.0724 15.5903C12.7968 16.3557 11.2032 16.3557 9.92764 15.5903L9.68807 15.4466Z" fill="currentColor"/>
</svg>
