<svg width="24" height="24" viewBox="0 0 24 24" fill="none" xmlns="http://www.w3.org/2000/svg">
<path fill-rule="evenodd" clip-rule="evenodd" d="M6.29289 18.7071C6.68342 19.0976 7.31658 19.0976 7.70711 18.7071L10.7071 15.7071C11.0976 15.3166 11.0976 14.6834 10.7071 14.2929C10.3166 13.9024 9.68342 13.9024 9.29289 14.2929L8 15.5858L8 6C8 5.44771 7.55228 5 7 5C6.44771 5 6 5.44772 6 6L6 15.5858L4.70711 14.2929C4.31658 13.9024 3.68342 13.9024 3.29289 14.2929C2.90237 14.6834 2.90237 15.3166 3.29289 15.7071L6.29289 18.7071ZM13.2929 8.29289L16.2929 5.29289C16.6834 4.90237 17.3166 4.90237 17.7071 5.29289L20.7071 8.29289C21.0976 8.68342 21.0976 9.31658 20.7071 9.7071C20.3166 10.0976 19.6834 10.0976 19.2929 9.7071L18 8.41421L18 18C18 18.5523 17.5523 19 17 19C16.4477 19 16 18.5523 16 18L16 8.41421L14.7071 9.70711C14.3166 10.0976 13.6834 10.0976 13.2929 9.70711C12.9024 9.31658 12.9024 8.68342 13.2929 8.29289Z" fill="currentColor"/>
</svg>
