<svg width="26" height="26" viewBox="0 0 26 26" fill="none" xmlns="http://www.w3.org/2000/svg">
<path fill-rule="evenodd" clip-rule="evenodd" d="M12.6669 0.314081L21.7846 5.57792H21.7869C22.2 5.81792 22.4562 6.26099 22.4562 6.73638V12.3841C21.6823 12.1347 20.8569 12 20 12C15.5817 12 12 15.5817 12 20C12 21.2887 12.3047 22.5062 12.846 23.5844L12.6692 23.6865C12.4662 23.8019 12.2354 23.8642 12 23.8642C11.7646 23.8642 11.5339 23.8042 11.3308 23.6865L2.21308 18.4225C1.80001 18.1825 1.54385 17.7395 1.54385 17.2641V6.73638C1.54385 6.25868 1.80001 5.81561 2.21308 5.57792L11.3308 0.314081C11.7439 0.0763876 12.2562 0.0763876 12.6669 0.314081ZM11.7923 11.3471C11.9192 11.421 12.0785 11.421 12.2054 11.3471L21.0692 6.23099L12.2054 1.11485C12.0808 1.04331 11.9169 1.04331 11.7923 1.11485L2.92847 6.23099L11.7923 11.3471ZM11.5385 12.2402C11.4646 12.2148 11.3954 12.1825 11.3308 12.1456L2.46693 7.02945V17.2641C2.46693 17.4118 2.5477 17.5479 2.67462 17.6218L11.5385 22.7356V12.2402Z" fill="currentColor"/>
<path fill-rule="evenodd" clip-rule="evenodd" d="M20 14C16.6863 14 14 16.6863 14 20C14 23.3137 16.6863 26 20 26C23.3137 26 26 23.3137 26 20C26 16.6863 23.3137 14 20 14ZM18.8771 17.1612C18.8771 17.5202 19.1681 17.8112 19.5271 17.8112H21.2701L16.7016 22.3797C16.4478 22.6336 16.4478 23.0451 16.7016 23.299C16.9555 23.5528 17.367 23.5528 17.6208 23.299L22.1894 18.7305V20.4735C22.1894 20.8325 22.4804 21.1235 22.8394 21.1235C23.1983 21.1235 23.4894 20.8325 23.4894 20.4735V17.1612C23.4894 16.8022 23.1983 16.5112 22.8394 16.5112H19.5271C19.1681 16.5112 18.8771 16.8022 18.8771 17.1612Z" fill="currentColor"/>
</svg>
