<svg width="26" height="26" viewBox="0 0 26 26" fill="none" xmlns="http://www.w3.org/2000/svg">
<path d="M12 2L2 7L12 12L22 7L12 2Z" stroke="currentColor" stroke-width="2" stroke-linecap="round" stroke-linejoin="round"/>
<path d="M2 17L12 22" stroke="currentColor" stroke-width="2" stroke-linecap="round" stroke-linejoin="round"/>
<path d="M2 12L12 17" stroke="currentColor" stroke-width="2" stroke-linecap="round" stroke-linejoin="round"/>
<path fill-rule="evenodd" clip-rule="evenodd" d="M20 26C23.3137 26 26 23.3137 26 20C26 16.6863 23.3137 14 20 14C16.6863 14 14 16.6863 14 20C14 23.3137 16.6863 26 20 26ZM21.1229 22.8388C21.1229 22.4798 20.8319 22.1888 20.4729 22.1888H18.7299L23.2984 17.6203C23.5522 17.3664 23.5522 16.9549 23.2984 16.701C23.0445 16.4472 22.633 16.4472 22.3792 16.701L17.8106 21.2695V19.5265C17.8106 19.1675 17.5196 18.8765 17.1606 18.8765C16.8017 18.8765 16.5106 19.1675 16.5106 19.5265V22.8388C16.5106 23.1978 16.8017 23.4888 17.1606 23.4888H20.4729C20.8319 23.4888 21.1229 23.1978 21.1229 22.8388Z" fill="#FFA64D"/>
</svg>
