<svg width="20" height="20" viewBox="0 0 20 20" fill="none" xmlns="http://www.w3.org/2000/svg">
<path d="M6.50008 1.66602H13.5001C16.1667 1.66602 18.3334 3.83268 18.3334 6.49935V13.4993C18.3334 14.7812 17.8242 16.0106 16.9178 16.917C16.0113 17.8235 14.782 18.3327 13.5001 18.3327H6.50008C3.83341 18.3327 1.66675 16.166 1.66675 13.4993V6.49935C1.66675 5.21747 2.17597 3.98809 3.0824 3.08167C3.98882 2.17524 5.2182 1.66602 6.50008 1.66602ZM6.33341 3.33268C5.53777 3.33268 4.7747 3.64875 4.21209 4.21136C3.64949 4.77397 3.33341 5.53703 3.33341 6.33268V13.666C3.33341 15.3243 4.67508 16.666 6.33341 16.666H13.6667C14.4624 16.666 15.2255 16.3499 15.7881 15.7873C16.3507 15.2247 16.6667 14.4617 16.6667 13.666V6.33268C16.6667 4.67435 15.3251 3.33268 13.6667 3.33268H6.33341ZM14.3751 4.58268C14.6513 4.58268 14.9163 4.69243 15.1117 4.88778C15.307 5.08313 15.4167 5.34808 15.4167 5.62435C15.4167 5.90062 15.307 6.16557 15.1117 6.36092C14.9163 6.55627 14.6513 6.66602 14.3751 6.66602C14.0988 6.66602 13.8339 6.55627 13.6385 6.36092C13.4432 6.16557 13.3334 5.90062 13.3334 5.62435C13.3334 5.34808 13.4432 5.08313 13.6385 4.88778C13.8339 4.69243 14.0988 4.58268 14.3751 4.58268ZM10.0001 5.83268C11.1052 5.83268 12.165 6.27167 12.9464 7.05307C13.7278 7.83447 14.1667 8.89428 14.1667 9.99935C14.1667 11.1044 13.7278 12.1642 12.9464 12.9456C12.165 13.727 11.1052 14.166 10.0001 14.166C8.89501 14.166 7.8352 13.727 7.0538 12.9456C6.2724 12.1642 5.83341 11.1044 5.83341 9.99935C5.83341 8.89428 6.2724 7.83447 7.0538 7.05307C7.8352 6.27167 8.89501 5.83268 10.0001 5.83268ZM10.0001 7.49935C9.33704 7.49935 8.70115 7.76274 8.23231 8.23158C7.76347 8.70042 7.50008 9.33631 7.50008 9.99935C7.50008 10.6624 7.76347 11.2983 8.23231 11.7671C8.70115 12.236 9.33704 12.4993 10.0001 12.4993C10.6631 12.4993 11.299 12.236 11.7678 11.7671C12.2367 11.2983 12.5001 10.6624 12.5001 9.99935C12.5001 9.33631 12.2367 8.70042 11.7678 8.23158C11.299 7.76274 10.6631 7.49935 10.0001 7.49935Z" fill="black"/>
</svg>
