<svg width="64" height="64" viewBox="0 0 20 20" fill="currentColor" xmlns="http://www.w3.org/2000/svg">
<path d="M10 20C15.5228 20 20 15.5228 20 10C20 4.47715 15.5228 0 10 0C4.47715 0 0 4.47715 0 10C0 15.5228 4.47715 20 10 20Z" fill="black"/>
<path fill-rule="evenodd" clip-rule="evenodd" d="M4.52659 9.89454C7.4418 8.62445 9.38575 7.78714 10.3583 7.38258C13.1355 6.22749 13.7125 6.02684 14.0887 6.02021C14.1714 6.01875 14.3563 6.03925 14.4762 6.13647C14.5773 6.21856 14.6052 6.32945 14.6185 6.40729C14.6318 6.48511 14.6484 6.66241 14.6352 6.80095C14.4847 8.3822 13.8335 12.2195 13.5023 13.9905C13.3621 14.7398 13.0861 14.9911 12.8188 15.0157C12.2381 15.0691 11.7972 14.6319 11.2347 14.2632C10.3546 13.6863 9.85734 13.3271 9.003 12.7641C8.01572 12.1135 8.65575 11.756 9.21842 11.1715C9.36567 11.0185 11.9243 8.69129 11.9738 8.48012C11.9801 8.4537 11.9858 8.35529 11.9273 8.30335C11.8688 8.25137 11.7826 8.26915 11.7203 8.28328C11.632 8.30331 10.226 9.23262 7.50222 11.0713C7.10313 11.3453 6.74164 11.4789 6.41776 11.4719C6.06071 11.4641 5.37389 11.27 4.8633 11.104C4.23705 10.9005 3.73932 10.7928 3.78266 10.447C3.80524 10.267 4.05321 10.0828 4.52659 9.89454Z" fill="white"/>
</svg>