<svg width="40" height="40" viewBox="0 0 40 40" fill="none" xmlns="http://www.w3.org/2000/svg">
<path d="M36.6666 18.3333C36.6666 13.731 32.9356 10 28.3333 10H11.6666C7.06421 10 3.33325 13.731 3.33325 18.3333C3.33325 22.9357 7.06421 26.6667 11.6666 26.6667H28.3333C32.9356 26.6667 36.6666 22.9357 36.6666 18.3333ZM29.9999 36.6667V30H23.3333L29.9999 36.6667Z" fill="#FAFCFF"/>
<path d="M36.6666 18.3333C36.6666 13.731 32.9356 10 28.3333 10H11.6666C7.06421 10 3.33325 13.731 3.33325 18.3333C3.33325 22.9357 7.06421 26.6667 11.6666 26.6667H28.3333C32.9356 26.6667 36.6666 22.9357 36.6666 18.3333ZM29.9999 36.6667V30H23.3333L29.9999 36.6667Z" fill="#FAFCFF"/>
</svg>
