<svg width="20" height="20" viewBox="0 0 20 20" fill="none" xmlns="http://www.w3.org/2000/svg">
<path d="M8.33341 12.4993L12.6584 9.99935L8.33341 7.49935V12.4993ZM17.9667 5.97435C18.0751 6.36602 18.1501 6.89102 18.2001 7.55768C18.2584 8.22435 18.2834 8.79935 18.2834 9.29935L18.3334 9.99935C18.3334 11.8243 18.2001 13.166 17.9667 14.0243C17.7584 14.7743 17.2751 15.2577 16.5251 15.466C16.1334 15.5743 15.4167 15.6493 14.3167 15.6993C13.2334 15.7577 12.2417 15.7827 11.3251 15.7827L10.0001 15.8327C6.50841 15.8327 4.33341 15.6993 3.47508 15.466C2.72508 15.2577 2.24175 14.7743 2.03341 14.0243C1.92508 13.6327 1.85008 13.1077 1.80008 12.441C1.74175 11.7743 1.71675 11.1993 1.71675 10.6993L1.66675 9.99935C1.66675 8.17435 1.80008 6.83268 2.03341 5.97435C2.24175 5.22435 2.72508 4.74102 3.47508 4.53268C3.86675 4.42435 4.58341 4.34935 5.68341 4.29935C6.76675 4.24102 7.75841 4.21602 8.67508 4.21602L10.0001 4.16602C13.4917 4.16602 15.6667 4.29935 16.5251 4.53268C17.2751 4.74102 17.7584 5.22435 17.9667 5.97435Z" fill="black"/>
</svg>
