<svg width="20" height="20" viewBox="0 0 20 20" fill="none" xmlns="http://www.w3.org/2000/svg">
<path d="M16.0585 4.44232C14.9502 3.92565 13.7502 3.55065 12.5002 3.33398C12.4782 3.3343 12.4572 3.34328 12.4418 3.35898C12.2918 3.63398 12.1168 3.99232 12.0002 4.26732C10.6743 4.06744 9.32602 4.06744 8.00018 4.26732C7.88351 3.98398 7.70851 3.63398 7.55018 3.35898C7.54185 3.34232 7.51685 3.33398 7.49185 3.33398C6.24185 3.55065 5.05018 3.92565 3.93351 4.44232C3.92518 4.44232 3.91685 4.45065 3.90851 4.45898C1.64185 7.85065 1.01685 11.1507 1.32518 14.4173C1.32518 14.434 1.33351 14.4507 1.35018 14.459C2.85018 15.559 4.29185 16.2257 5.71685 16.6673C5.74185 16.6757 5.76685 16.6673 5.77518 16.6507C6.10851 16.1923 6.40851 15.709 6.66685 15.2007C6.68351 15.1673 6.66685 15.134 6.63351 15.1257C6.15851 14.9423 5.70851 14.7257 5.26685 14.4757C5.23351 14.459 5.23351 14.409 5.25851 14.384C5.35018 14.3173 5.44185 14.2423 5.53351 14.1757C5.55018 14.159 5.57518 14.159 5.59185 14.1673C8.45851 15.4757 11.5502 15.4757 14.3835 14.1673C14.4002 14.159 14.4252 14.159 14.4418 14.1757C14.5335 14.2507 14.6252 14.3173 14.7168 14.3923C14.7502 14.4173 14.7502 14.4673 14.7085 14.484C14.2752 14.7423 13.8168 14.9507 13.3418 15.134C13.3085 15.1423 13.3002 15.184 13.3085 15.209C13.5752 15.7173 13.8752 16.2007 14.2002 16.659C14.2252 16.6673 14.2502 16.6757 14.2752 16.6673C15.7085 16.2257 17.1502 15.559 18.6502 14.459C18.6668 14.4507 18.6752 14.434 18.6752 14.4173C19.0418 10.6423 18.0668 7.36732 16.0918 4.45898C16.0835 4.45065 16.0752 4.44232 16.0585 4.44232ZM7.10018 12.4257C6.24185 12.4257 5.52518 11.634 5.52518 10.659C5.52518 9.68398 6.22518 8.89232 7.10018 8.89232C7.98351 8.89232 8.68351 9.69232 8.67518 10.659C8.67518 11.634 7.97518 12.4257 7.10018 12.4257ZM12.9085 12.4257C12.0502 12.4257 11.3335 11.634 11.3335 10.659C11.3335 9.68398 12.0335 8.89232 12.9085 8.89232C13.7918 8.89232 14.4918 9.69232 14.4835 10.659C14.4835 11.634 13.7918 12.4257 12.9085 12.4257Z" fill="black"/>
</svg>
