<svg width="24" height="24" viewBox="0 0 24 24" fill="none" xmlns="http://www.w3.org/2000/svg">
<g clip-path="url(#clip0_17182_21540)">
<path d="M4.80731 3.67719L5.19698 6.01523C5.44826 7.52287 6.16432 8.91432 7.24509 9.99509L9.25 12L8.77654 12.9469C8.51186 13.4763 8.61561 14.1156 9.03411 14.5341L10.6806 16.1806C10.9385 16.4385 11.0833 16.7882 11.0833 17.1529V18.4835C11.0833 19.0043 11.3776 19.4805 11.8434 19.7134L12.0303 19.8068C12.5596 20.0715 13.1989 19.9677 13.6174 19.5492L14.5007 18.6659C15.8635 17.3032 16.8302 15.5957 17.2977 13.726C17.4214 13.2312 17.251 12.7091 16.8591 12.3826L15.2344 11.0286C14.9269 10.7724 14.5229 10.6628 14.1281 10.7287L12.698 10.967C12.26 11.04 11.8136 10.897 11.4997 10.583L11.1389 10.2223C10.602 9.6853 10.602 8.8147 11.1389 8.27773L11.2992 8.11744C11.7177 7.69894 12.3571 7.5952 12.8864 7.85988L13.6246 8.22894C13.7619 8.29759 13.9133 8.33333 14.0668 8.33333C14.8018 8.33333 15.2799 7.55978 14.9512 6.90233L14.75 6.5L16.2847 5.47686C17.0811 4.94593 17.7252 4.21636 18.1532 3.36026L18.3315 3.00374M4.80731 3.67719C2.47542 5.69423 1 8.67481 1 12C1 18.0751 5.92487 23 12 23C18.0751 23 23 18.0751 23 12C23 8.28201 21.1554 4.99485 18.3315 3.00374M4.80731 3.67719C6.7358 2.00909 9.25005 1 12 1C14.3571 1 16.5411 1.74141 18.3315 3.00374" stroke="currentColor" stroke-width="2" stroke-linecap="round" stroke-linejoin="round"/>
</g>
<defs>
<clipPath id="clip0_17182_21540">
<rect width="24" height="24" fill="white"/>
</clipPath>
</defs>
</svg>
