<svg width="56" height="56" viewBox="0 0 56 56" fill="none" xmlns="http://www.w3.org/2000/svg">
<path fill-rule="evenodd" clip-rule="evenodd" d="M0 28C0 12.536 12.536 0 28 0C43.464 0 56 12.536 56 28C56 43.464 43.464 56 28 56C12.536 56 0 43.464 0 28ZM39.7144 22.4322C40.4955 21.6512 40.4955 20.3848 39.7144 19.6038C38.9334 18.8227 37.6671 18.8227 36.886 19.6038L23.3182 33.1716L19.1142 28.9675C18.3331 28.1865 17.0668 28.1865 16.2858 28.9675C15.5047 29.7486 15.5047 31.0149 16.2858 31.796L21.904 37.4142C22.2791 37.7893 22.7878 38 23.3182 38C23.8487 38 24.3574 37.7893 24.7324 37.4142L39.7144 22.4322Z" fill="#36D987"/>
</svg>
