<svg width="0" height="0"><symbol xmlns="http://www.w3.org/2000/svg" id="loader-2" fill="none" viewBox="0 0 24 24"><path fill="currentColor" d="M12 3.5c0-.828.675-1.512 1.494-1.388a10 10 0 1 1-11.36 8.254c.136-.817.994-1.249 1.782-.993.788.256 1.201 1.105 1.119 1.93a7 7 0 1 0 8.454-6.143C12.679 4.984 12 4.328 12 3.5Z"><animateTransform attributeName="transform" attributeType="xml" dur="0.5s" from="0 12 12" repeatCount="indefinite" to="360 12 12" type="rotate"/></path></symbol><symbol xmlns="http://www.w3.org/2000/svg" id="loader" fill="none" viewBox="0 0 24 24"><path stroke="#090D12" stroke-linecap="round" stroke-linejoin="round" stroke-width="2" d="M12 6V3m0 18v-2m7-7h2M3 12h3m11.657-5.657.707-.707M5.636 18.364 7.05 16.95m9.9 0 1.414 1.414M5.636 5.636l2.121 2.121"/></symbol></svg>