<svg width="0" height="0"><symbol xmlns="http://www.w3.org/2000/svg" id="country_icon" fill="none" viewBox="0 0 24 24"><g clip-path="url(#a)"><path stroke="currentColor" stroke-linecap="round" stroke-linejoin="round" stroke-width="2" d="m4.807 3.677.39 2.338a7.333 7.333 0 0 0 2.048 3.98L9.25 12l-.473.947a1.375 1.375 0 0 0 .257 1.587l1.647 1.647c.258.258.402.607.402.972v1.33c0 .521.295.997.76 1.23l.187.094c.53.265 1.169.16 1.587-.258l.884-.883a10.633 10.633 0 0 0 2.797-4.94 1.33 1.33 0 0 0-.439-1.343l-1.625-1.354a1.375 1.375 0 0 0-1.106-.3l-1.43.238a1.375 1.375 0 0 1-1.198-.384l-.361-.36a1.375 1.375 0 0 1 0-1.945l.16-.16a1.375 1.375 0 0 1 1.587-.258l.739.369a.989.989 0 0 0 1.326-1.327L14.75 6.5l1.535-1.023a5.5 5.5 0 0 0 1.868-2.117l.178-.356m-13.524.673A10.975 10.975 0 0 0 1 12c0 6.075 4.925 11 11 11s11-4.925 11-11c0-3.718-1.845-7.005-4.669-8.996m-13.524.673A10.957 10.957 0 0 1 12 1c2.357 0 4.541.741 6.331 2.004"/></g><defs><clipPath id="a"><path fill="#fff" d="M0 0h24v24H0z"/></clipPath></defs></symbol><symbol xmlns="http://www.w3.org/2000/svg" id="currency_dollar" fill="none" viewBox="0 0 24 24"><path stroke="currentColor" stroke-linecap="round" stroke-linejoin="round" stroke-width="2" d="M12 5.333v13.334m-3.333-3.132.976.733c1.302.976 3.412.976 4.714 0 1.302-.977 1.302-2.56 0-3.536C13.707 12.244 12.853 12 12 12c-.806 0-1.61-.244-2.225-.732-1.23-.977-1.23-2.56 0-3.536 1.229-.976 3.221-.976 4.45 0l.461.366M22 12c0 5.523-4.477 10-10 10S2 17.523 2 12 6.477 2 12 2s10 4.477 10 10Z"/></symbol><symbol xmlns="http://www.w3.org/2000/svg" id="Gift" fill="none" viewBox="0 0 24 24"><path stroke="currentColor" stroke-linecap="round" stroke-linejoin="round" stroke-width="2" d="M21 11.25v8.25a1.5 1.5 0 0 1-1.5 1.5H5.25a1.5 1.5 0 0 1-1.5-1.5v-8.25M12 4.875A2.625 2.625 0 1 0 9.375 7.5H12m0-2.625V7.5m0-2.625A2.625 2.625 0 1 1 14.625 7.5H12m0 0V21m-8.625-9.75h18c.621 0 1.125-.504 1.125-1.125v-1.5c0-.621-.504-1.125-1.125-1.125h-18c-.621 0-1.125.504-1.125 1.125v1.5c0 .621.504 1.125 1.125 1.125Z"/></symbol><symbol xmlns="http://www.w3.org/2000/svg" id="globe" fill="none" viewBox="0 0 24 24"><path stroke="currentColor" stroke-linecap="round" stroke-linejoin="round" stroke-width="2" d="M12 22c5.523 0 10-4.477 10-10S17.523 2 12 2 2 6.477 2 12s4.477 10 10 10ZM2 12h20"/><path stroke="currentColor" stroke-linecap="round" stroke-linejoin="round" stroke-width="2" d="M12 2a15.3 15.3 0 0 1 4 10 15.3 15.3 0 0 1-4 10 15.3 15.3 0 0 1-4-10 15.3 15.3 0 0 1 4-10v0Z"/></symbol><symbol xmlns="http://www.w3.org/2000/svg" id="heleket_bucket_icon" fill="none" viewBox="0 0 24 24"><path fill="#090D12" d="M10.156 19.451a.41.41 0 0 1-.45-.367l-.734-7.02a.412.412 0 0 1 .364-.454l.408-.043a.41.41 0 0 1 .45.367l.735 7.02a.412.412 0 0 1-.365.454l-.408.043Zm3.69-.043a.412.412 0 0 1-.365-.454l.734-7.02a.41.41 0 0 1 .45-.367l.408.043a.412.412 0 0 1 .365.454l-.734 7.02a.41.41 0 0 1-.45.367l-.408-.043Z"/><path fill="#090D12" fill-rule="evenodd" d="M10.22.857a1.23 1.23 0 0 0-1.13.75l-.91 2.14H4.21c-.906 0-1.64.738-1.64 1.65v2.064c0 .84.625 1.535 1.434 1.637L6.539 22.48a.821.821 0 0 0 .804.663h10.1c.406 0 .75-.299.811-.703l1.843-13.358a1.648 1.648 0 0 0 1.331-1.621V5.397c0-.912-.734-1.65-1.64-1.65H15.82l-.91-2.14a1.23 1.23 0 0 0-1.13-.75h-3.56Zm3.815 2.89-.314-.739a.82.82 0 0 0-.753-.5H11.03a.82.82 0 0 0-.754.5l-.314.738h4.072Zm4.367 5.726a.343.343 0 0 0-.34-.39L6.098 9.11a.343.343 0 0 0-.336.407l2.122 11.277c.076.405.43.698.842.698h7.265c.428 0 .79-.315.849-.74l1.562-11.279Zm.567-2.012c.453 0 .82-.37.82-.826v-.412a.823.823 0 0 0-.82-.826H5.03c-.453 0-.82.37-.82.825v.413c0 .456.367.826.82.826h13.938Z" clip-rule="evenodd"/></symbol><symbol xmlns="http://www.w3.org/2000/svg" id="moon" fill="none" viewBox="0 0 24 24"><path fill="currentColor" fill-rule="evenodd" d="M12.081 2.509a1 1 0 0 1-.067 1.085 6 6 0 0 0 8.392 8.392 1 1 0 0 1 1.59.896A10 10 0 1 1 11.118 2.004a1 1 0 0 1 .963.505Zm-2.765 1.93a8 8 0 1 0 10.245 10.245A7.999 7.999 0 0 1 9.316 4.439Z" clip-rule="evenodd"/></symbol><symbol xmlns="http://www.w3.org/2000/svg" id="notification_icon" fill="none" viewBox="0 0 24 24"><path stroke="currentColor" stroke-width="2" d="M12 2C8 2 5.5 5.5 5.5 9c0 2.492-2.754 2.648-2 5 .671 2.094 4.585 3.5 8.5 3.5 3.914 0 7.829-1.406 8.5-3.5.754-2.352-2-2.508-2-5 0-3.5-2.5-7-6.5-7Z"/><path stroke="currentColor" stroke-linecap="round" stroke-width="2" d="M14 20.5c-1.105 1.333-2.895 1.333-4 0"/></symbol><symbol xmlns="http://www.w3.org/2000/svg" id="promocode_icon" fill="none" viewBox="0 0 24 24"><path stroke="currentColor" stroke-linecap="round" stroke-linejoin="round" stroke-width="2" d="m20.59 13.41-7.17 7.17a1.998 1.998 0 0 1-2.83 0L2 12V2h10l8.59 8.59a2 2 0 0 1 0 2.82ZM7 7h.01"/></symbol><symbol xmlns="http://www.w3.org/2000/svg" id="Refferal2" fill="none" viewBox="0 0 24 24"><path fill="currentColor" fill-rule="evenodd" d="M1.464 15.464A5 5 0 0 1 5 14h7a5 5 0 0 1 5 5 3 3 0 0 1-3 3H3a3 3 0 0 1-3-3 5 5 0 0 1 1.464-3.536ZM5 16a3 3 0 0 0-3 3 1 1 0 0 0 1 1h11a1 1 0 0 0 1-1 3 3 0 0 0-3-3H5ZM8.5 4a3 3 0 1 0 0 6 3 3 0 0 0 0-6Zm-5 3a5 5 0 1 1 10 0 5 5 0 0 1-10 0ZM20 7a1 1 0 0 1 1 1v6a1 1 0 1 1-2 0V8a1 1 0 0 1 1-1Z" clip-rule="evenodd"/><path fill="currentColor" fill-rule="evenodd" d="M16 11a1 1 0 0 1 1-1h6a1 1 0 1 1 0 2h-6a1 1 0 0 1-1-1Z" clip-rule="evenodd"/></symbol><symbol xmlns="http://www.w3.org/2000/svg" id="time_zone_icon" fill="none" viewBox="0 0 24 24"><path stroke="currentColor" stroke-linecap="round" stroke-linejoin="round" stroke-width="2" d="M12 6v6h4.5m4.5 0a9 9 0 1 1-18 0 9 9 0 0 1 18 0Z"/></symbol></svg>