<svg width="0" height="0"><symbol xmlns="http://www.w3.org/2000/svg" id="2 Chevron" fill="none" viewBox="0 0 24 24"><path fill="currentColor" fill-rule="evenodd" d="M12.36 18.768a1 1 0 0 1-.128-1.408L16.698 12l-4.466-5.36a1 1 0 0 1 1.536-1.28l5 6a1 1 0 0 1 0 1.28l-5 6a1 1 0 0 1-1.408.128Z" clip-rule="evenodd"/><path fill="currentColor" fill-rule="evenodd" d="M5.36 18.768a1 1 0 0 1-.128-1.408L9.698 12 5.232 6.64a1 1 0 0 1 1.536-1.28l5 6a1 1 0 0 1 0 1.28l-5 6a1 1 0 0 1-1.408.128Z" clip-rule="evenodd"/></symbol><symbol xmlns="http://www.w3.org/2000/svg" id="alert_circle" fill="none" viewBox="0 0 20 20"><path fill="currentColor" fill-rule="evenodd" d="M0 10C0 4.477 4.477 0 10 0s10 4.477 10 10-4.477 10-10 10S0 15.523 0 10Zm10-5a1 1 0 0 1 1 1v4a1 1 0 1 1-2 0V6a1 1 0 0 1 1-1Zm0 8a1 1 0 0 1 1 1v.001a1 1 0 1 1-2 0V14a1 1 0 0 1 1-1Z" clip-rule="evenodd"/></symbol><symbol xmlns="http://www.w3.org/2000/svg" id="alert-circle" fill="none" viewBox="0 0 24 24"><path fill="#FF3D4D" fill-rule="evenodd" d="M1.1 12C1.1 5.98 5.98 1.1 12 1.1c6.02 0 10.9 4.88 10.9 10.9 0 6.02-4.88 10.9-10.9 10.9-6.02 0-10.9-4.88-10.9-10.9ZM12 6.6a1 1 0 0 1 1 1V12a1 1 0 1 1-2 0V7.6a1 1 0 0 1 1-1Zm0 8.8a1 1 0 0 1 1 1v.001a1 1 0 1 1-2 0V16.4a1 1 0 0 1 1-1Z" clip-rule="evenodd"/></symbol><symbol xmlns="http://www.w3.org/2000/svg" id="alertCircle2" fill="none" viewBox="0 0 20 20"><path fill="currentColor" fill-rule="evenodd" d="M0 10C0 4.477 4.477 0 10 0s10 4.477 10 10-4.477 10-10 10S0 15.523 0 10Zm10-5a1 1 0 0 1 1 1v4a1 1 0 1 1-2 0V6a1 1 0 0 1 1-1Zm0 8a1 1 0 0 1 1 1v.001a1 1 0 1 1-2 0V14a1 1 0 0 1 1-1Z" clip-rule="evenodd"/></symbol><symbol xmlns="http://www.w3.org/2000/svg" id="approve" fill="none" viewBox="0 0 20 20"><g clip-path="url(#a)"><path fill="currentColor" fill-rule="evenodd" d="M10 20c5.523 0 10-4.477 10-10S15.523 0 10 0 0 4.477 0 10s4.477 10 10 10Zm4.457-11.793a1 1 0 0 0-1.414-1.414L8.295 11.54l-1.338-1.338a1 1 0 1 0-1.414 1.414l2.045 2.046a1 1 0 0 0 1.415 0l5.454-5.455Z" clip-rule="evenodd"/></g><defs><clipPath id="a"><path fill="#fff" d="M0 0h20v20H0z"/></clipPath></defs></symbol><symbol xmlns="http://www.w3.org/2000/svg" id="arrow-down-left" fill="none" viewBox="0 0 24 24"><path fill="currentColor" fill-rule="evenodd" d="M18.707 5.293a1 1 0 0 1 0 1.414L8.414 17H13a1 1 0 1 1 0 2H6a1 1 0 0 1-1-1v-7a1 1 0 1 1 2 0v4.586L17.293 5.293a1 1 0 0 1 1.414 0Z" clip-rule="evenodd"/></symbol><symbol xmlns="http://www.w3.org/2000/svg" id="arrow-up-right" fill="none" viewBox="0 0 24 24"><path stroke="currentColor" stroke-linecap="round" stroke-linejoin="round" stroke-width="2" d="M18 6v7m0-7h-7m7 0L6 18"/></symbol><symbol xmlns="http://www.w3.org/2000/svg" id="Check" fill="none" viewBox="0 0 24 24"><path fill="currentColor" fill-rule="evenodd" d="M19.798 6.475a1 1 0 0 1 0 1.414L9.162 18.525a1 1 0 0 1-1.414 0L4.202 14.98a1 1 0 0 1 1.414-1.414l2.839 2.838 9.93-9.93a1 1 0 0 1 1.413 0Z" clip-rule="evenodd"/></symbol><symbol xmlns="http://www.w3.org/2000/svg" id="Chevron-down" fill="none" viewBox="0 0 24 24"><path fill="currentColor" fill-rule="evenodd" d="M5.232 9.36a1 1 0 0 1 1.408-.128L12 13.698l5.36-4.466a1 1 0 0 1 1.28 1.536l-6 5a1 1 0 0 1-1.28 0l-6-5a1 1 0 0 1-.128-1.408Z" clip-rule="evenodd"/></symbol><symbol xmlns="http://www.w3.org/2000/svg" id="Chevron-right" fill="none" viewBox="0 0 24 24"><path fill="currentColor" fill-rule="evenodd" d="M9.36 18.768a1 1 0 0 1-.128-1.408L13.698 12 9.232 6.64a1 1 0 0 1 1.536-1.28l5 6a1 1 0 0 1 0 1.28l-5 6a1 1 0 0 1-1.408.128Z" clip-rule="evenodd"/></symbol><symbol xmlns="http://www.w3.org/2000/svg" id="clock" fill="none" viewBox="0 0 20 20"><path fill="#FFA64C" fill-rule="evenodd" d="M20 10c0 5.523-4.477 10-10 10S0 15.523 0 10 4.477 0 10 0s10 4.477 10 10Zm-9-5a1 1 0 1 0-2 0v5a1 1 0 0 0 .553.894l3.333 1.667a1 1 0 1 0 .895-1.789L11 9.382V5Z" clip-rule="evenodd"/></symbol><symbol xmlns="http://www.w3.org/2000/svg" id="Close" fill="none" viewBox="0 0 24 24"><path fill="currentColor" fill-rule="evenodd" d="M5.293 5.293a1 1 0 0 1 1.414 0L12 10.586l5.293-5.293a1 1 0 1 1 1.414 1.414L13.414 12l5.293 5.293a1 1 0 0 1-1.414 1.414L12 13.414l-5.293 5.293a1 1 0 0 1-1.414-1.414L10.586 12 5.293 6.707a1 1 0 0 1 0-1.414Z" clip-rule="evenodd"/></symbol><symbol xmlns="http://www.w3.org/2000/svg" id="copy2" fill="none" viewBox="0 0 24 24"><path stroke="currentColor" stroke-linecap="round" stroke-linejoin="round" stroke-width="2" d="M18.462 10h-6.923c-.85 0-1.539.689-1.539 1.539v6.923c0 .85.689 1.538 1.539 1.538h6.923c.85 0 1.538-.689 1.538-1.538v-6.923c0-.85-.689-1.539-1.538-1.539ZM6.308 14h-.77A1.539 1.539 0 0 1 4 12.461V5.538A1.539 1.539 0 0 1 5.538 4h6.923A1.538 1.538 0 0 1 14 5.538v.77"/></symbol><symbol xmlns="http://www.w3.org/2000/svg" id="Cryptomus" fill="none" viewBox="0 0 24 24"><path fill="currentColor" d="M21.785 5.578 12.667.314a1.34 1.34 0 0 0-1.336 0L2.213 5.578c-.413.238-.67.68-.67 1.158v10.528c0 .476.257.919.67 1.159l9.118 5.264a1.356 1.356 0 0 0 1.338 0l9.118-5.265c.413-.237.67-.68.67-1.158V6.736c0-.475-.257-.918-.67-1.158h-.002Zm-9.58 5.77a.413.413 0 0 1-.413 0L2.928 6.23l8.864-5.116a.424.424 0 0 1 .413 0L21.07 6.23l-8.864 5.116Zm-.874.798c.064.036.134.069.208.094v10.496l-8.864-5.114a.416.416 0 0 1-.208-.358V7.03l8.864 5.117Z"/></symbol><symbol xmlns="http://www.w3.org/2000/svg" id="Download" fill="none" viewBox="0 0 24 24"><path stroke="currentColor" stroke-linecap="round" stroke-linejoin="round" stroke-width="2" d="M21 15v4a2 2 0 0 1-2 2H5a2 2 0 0 1-2-2v-4m4-5 5 5 5-5m-5 5V3"/></symbol><symbol xmlns="http://www.w3.org/2000/svg" id="filter_icon" fill="none" viewBox="0 0 24 24"><path stroke="#090D12" stroke-linecap="round" stroke-width="2" d="M12 7h8M4 7h4m9 10h3M4 17h8"/><circle cx="10" cy="7" r="2" stroke="#090D12" stroke-linecap="round" stroke-width="2" transform="rotate(90 10 7)"/><circle cx="15" cy="17" r="2" stroke="#090D12" stroke-linecap="round" stroke-width="2" transform="rotate(90 15 17)"/></symbol><symbol xmlns="http://www.w3.org/2000/svg" id="icon-check" fill="none" viewBox="0 0 8 8"><path stroke="currentColor" stroke-linecap="round" stroke-linejoin="round" stroke-width="2" d="M7 1.818 2.636 6.182 1 4.545"/></symbol><symbol xmlns="http://www.w3.org/2000/svg" id="Limit convert" fill="none" viewBox="0 0 24 24"><path stroke="currentColor" stroke-linecap="round" stroke-linejoin="round" stroke-width="2" d="M1 5v5h5m17 9v-5h-5"/><path stroke="currentColor" stroke-linecap="round" stroke-linejoin="round" stroke-width="2" d="M20.49 9A9 9 0 0 0 5.64 5.64L1 10m22 4-4.64 4.36A9 9 0 0 1 3.51 15"/><path stroke="currentColor" stroke-linecap="round" stroke-linejoin="round" stroke-width="2" d="M11 9v4.5l3 1.5"/></symbol><symbol xmlns="http://www.w3.org/2000/svg" id="link2" fill="none" viewBox="0 0 24 24"><path stroke="currentColor" stroke-linecap="round" stroke-linejoin="round" stroke-width="2" d="M18 13v6a2 2 0 0 1-2 2H5a2 2 0 0 1-2-2V8a2 2 0 0 1 2-2h6m4-3h6v6m-11 5L21 3"/></symbol><symbol xmlns="http://www.w3.org/2000/svg" id="Loader3" fill="none" viewBox="0 0 24 24"><path fill="currentColor" d="M12 3.5c0-.828.675-1.512 1.494-1.388a10 10 0 1 1-11.36 8.254c.136-.817.994-1.249 1.782-.993.788.256 1.201 1.105 1.119 1.93a7 7 0 1 0 8.454-6.143C12.679 4.984 12 4.328 12 3.5Z"><animateTransform attributeName="transform" attributeType="xml" dur="0.5s" from="0 12 12" repeatCount="indefinite" to="360 12 12" type="rotate"/></path></symbol><symbol xmlns="http://www.w3.org/2000/svg" id="Locked" fill="none" viewBox="0 0 24 24"><path stroke="#FF3D4D" stroke-linecap="round" stroke-linejoin="round" stroke-width="2" d="M16.5 10.5V6.75a4.5 4.5 0 1 0-9 0v3.75m-.75 11.25h10.5a2.25 2.25 0 0 0 2.25-2.25v-6.75a2.25 2.25 0 0 0-2.25-2.25H6.75a2.25 2.25 0 0 0-2.25 2.25v6.75a2.25 2.25 0 0 0 2.25 2.25Z"/></symbol><symbol xmlns="http://www.w3.org/2000/svg" id="Mercurio" fill="none" viewBox="0 0 24 24"><g clip-path="url(#a)"><path fill="#0A0A0A" fill-rule="evenodd" d="M0 12c0 6.627 5.373 12 12 12s12-5.373 12-12S18.627 0 12 0 0 5.373 0 12Zm9.54-8.608c.819.212 2.056.9 2.97 1.65.231.189.716.643 1.078 1.008.361.366.666.656.676.646.033-.033.266-.714.35-1.026.045-.165.115-.605.155-.977l.015-.136a.587.587 0 0 1 .602-.524.61.61 0 0 1 .588.557c.098 1.21.56 2.42 1.3 3.407.293.391 1.076 1.152 1.486 1.445.395.282 1.255.706 1.76.868.459.147 1.363.31 1.725.31.14 0 .255.114.255.255v.57a.315.315 0 0 1-.315.315c-.69 0-1.959.345-2.655.723-.534.29-1.121.691-1.34.916a.506.506 0 0 0-.129.47l.084.355c.629 2.662.339 4.814-.8 5.936-.217.215-.517.45-.666.523-1.31.636-3.166.425-5.279-.602-.616-.3-1.501-.813-1.92-1.113-1.061-.762-1.776-1.362-2.58-2.167-2.24-2.24-3.74-4.777-4.146-7.016-.279-1.531-.018-2.678.792-3.49.472-.473.856-.645 1.944-.87.082-.016.193-.179.348-.507.376-.798 1.021-1.343 1.883-1.592.368-.106 1.288-.073 1.819.066Zm-1.5.456a2.32 2.32 0 0 0-1.214.616c-.289.289-.626.863-.548.933.029.025.268.076.532.113.672.095.763.115 1.267.284 1.44.483 2.998 1.363 4.35 2.455l.2.16a.406.406 0 0 0 .56-.047c.322-.366.733-.974.733-1.084 0-.134-1.54-1.64-2.1-2.053-1.044-.772-1.932-1.2-2.805-1.353a6.148 6.148 0 0 0-.585-.085c-.033.004-.208.031-.39.061Zm-3 2.24c-.898.257-1.383.71-1.684 1.567-.191.545-.18 1.595.028 2.412.776 3.067 3.482 6.524 6.8 8.687.51.332 1.636.946 1.671.91.011-.01-.174-.166-.412-.347-.527-.399-1.686-1.545-2.182-2.158-1.82-2.246-3.222-5.116-3.707-7.589-.276-1.406-.316-2.543-.121-3.435.034-.154-.002-.159-.393-.047Zm.909.329c-.64 3.871 2.609 10.35 6.478 12.918 2.617 1.738 4.648 1.353 5.31-1.005.15-.54.183-2.118.058-2.884-.151-.922-.24-1.316-.298-1.316-.082 0-.606.789-.847 1.275a6.316 6.316 0 0 0-.672 2.4.533.533 0 0 1-.532.495h-.055a.616.616 0 0 1-.612-.548l-.01-.097a8.342 8.342 0 0 0-.22-1.155c-.186-.646-.657-1.594-1.044-2.104-.372-.491-1.073-1.162-1.56-1.492-.9-.612-2.137-1.05-3.17-1.126a.534.534 0 0 1-.495-.532v-.371c0-.14.114-.255.255-.255.354 0 1.199-.155 1.66-.304.784-.253 1.838-.818 2.153-1.154a.186.186 0 0 0-.02-.273l-.39-.308C10.78 7.67 9.196 6.767 8.092 6.393c-.604-.205-1.456-.39-1.8-.392a.324.324 0 0 0-.32.272l-.024.144Z" clip-rule="evenodd"/></g></symbol><symbol xmlns="http://www.w3.org/2000/svg" id="P2P" fill="none" viewBox="0 0 24 24"><path stroke="currentColor" stroke-linecap="round" stroke-linejoin="round" stroke-width="2" d="M8 3H4a1 1 0 0 0-1 1v4a1 1 0 0 0 1 1h4a1 1 0 0 0 1-1V4a1 1 0 0 0-1-1Z"/><path stroke="currentColor" stroke-width="2" d="M6 8.352v7m12-7v7M16 6H9m6.819 12h-7"/><path stroke="currentColor" stroke-linecap="round" stroke-linejoin="round" stroke-width="2" d="M20 3h-4a1 1 0 0 0-1 1v4a1 1 0 0 0 1 1h4a1 1 0 0 0 1-1V4a1 1 0 0 0-1-1ZM8 15H4a1 1 0 0 0-1 1v4a1 1 0 0 0 1 1h4a1 1 0 0 0 1-1v-4a1 1 0 0 0-1-1Zm12 0h-4a1 1 0 0 0-1 1v4a1 1 0 0 0 1 1h4a1 1 0 0 0 1-1v-4a1 1 0 0 0-1-1Z"/></symbol><symbol xmlns="http://www.w3.org/2000/svg" id="P2PTrade" fill="none" viewBox="0 0 24 24"><path stroke="currentColor" stroke-linecap="round" stroke-linejoin="round" stroke-width="2" d="M19 10v8a2 2 0 0 1-2 2H5"/><path stroke="currentColor" stroke-linecap="round" stroke-linejoin="round" stroke-width="2" d="m16 11 3-3 3 3M5 14V6a2 2 0 0 1 2-2h12"/><path stroke="currentColor" stroke-linecap="round" stroke-linejoin="round" stroke-width="2" d="m8 13-3 3-3-3"/></symbol><symbol xmlns="http://www.w3.org/2000/svg" id="Profile" fill="none" viewBox="0 0 24 24"><path fill="currentColor" fill-rule="evenodd" d="M8 7.246c0-.871.019-1.919.495-2.758C8.904 3.768 9.775 3 12 3c2.226 0 3.096.767 3.505 1.488.476.84.495 1.887.495 2.758 0 1.018-.415 2.244-1.164 3.206C14.094 11.404 13.11 12 12 12c-1.11 0-2.094-.596-2.836-1.548C8.415 9.49 8 8.264 8 7.246ZM12 1C9.226 1 7.596 2.018 6.755 3.501 6 4.835 6 6.371 6 7.191v.055c0 1.496.585 3.148 1.586 4.434C8.594 12.976 10.11 14 12 14c1.89 0 3.406-1.024 4.414-2.32C17.415 10.394 18 8.742 18 7.246V7.19c0-.82.001-2.355-.755-3.689C16.404 2.018 14.775 1 12 1ZM5.214 17.058a3.529 3.529 0 0 1 3.445.104l.24.143a6.028 6.028 0 0 0 6.202 0l.24-.143a3.53 3.53 0 0 1 5.2 2.028A20.922 20.922 0 0 1 12 21c-3.043 0-5.933-.647-8.541-1.81a3.53 3.53 0 0 1 1.755-2.132Zm4.474-1.611a5.529 5.529 0 0 0-8.176 3.275 1.915 1.915 0 0 0 1.051 2.259A22.922 22.922 0 0 0 12 23c3.361 0 6.556-.722 9.437-2.02a1.914 1.914 0 0 0 1.05-2.258 5.529 5.529 0 0 0-8.175-3.275l-.24.143a4.028 4.028 0 0 1-4.144 0l-.24-.143Z" clip-rule="evenodd"/></symbol><symbol xmlns="http://www.w3.org/2000/svg" id="Refresh-CCW" fill="none" viewBox="0 0 24 24"><path stroke="currentColor" stroke-linecap="round" stroke-linejoin="round" stroke-width="2" d="M1 5v5h5m17 9v-5h-5"/><path stroke="currentColor" stroke-linecap="round" stroke-linejoin="round" stroke-width="2" d="M20.49 9A9 9 0 0 0 5.64 5.64L1 10m22 4-4.64 4.36A9 9 0 0 1 3.51 15"/><path stroke="currentColor" stroke-linecap="round" stroke-linejoin="round" stroke-width="2" d="M11 9v4.5l3 1.5"/></symbol><symbol xmlns="http://www.w3.org/2000/svg" id="refresh" fill="none" viewBox="0 0 24 24"><path stroke="currentColor" stroke-linecap="round" stroke-linejoin="round" stroke-width="2" d="M1 4v6h6m16 10v-6h-6"/><path stroke="currentColor" stroke-linecap="round" stroke-linejoin="round" stroke-width="2" d="M20.49 9A9 9 0 0 0 5.64 5.64L1 10m22 4-4.64 4.36A9 9 0 0 1 3.51 15"/></symbol><symbol xmlns="http://www.w3.org/2000/svg" id="Reward-for-staking" fill="none" viewBox="0 0 26 26"><path stroke="currentColor" stroke-linecap="round" stroke-linejoin="round" stroke-width="2" d="M12 2 2 7l10 5 10-5-10-5ZM2 17l10 5M2 12l10 5"/><path fill="currentColor" fill-rule="evenodd" d="M20 14a6 6 0 1 0 0 12 6 6 0 0 0 0-12Zm2.46 3.54a.65.65 0 0 0-.92 0l-4 4a.65.65 0 1 0 .92.92l4-4a.65.65 0 0 0 0-.92ZM18 19a1 1 0 1 0 0-2 1 1 0 0 0 0 2Zm5 3a1 1 0 1 1-2 0 1 1 0 0 1 2 0Z" clip-rule="evenodd"/></symbol><symbol xmlns="http://www.w3.org/2000/svg" id="search_icon" fill="none" viewBox="0 0 24 24"><circle cx="11" cy="11" r="7" stroke="#090D12" stroke-width="2"/><path stroke="#090D12" stroke-linecap="round" stroke-width="2" d="m20 20-3-3"/></symbol><symbol xmlns="http://www.w3.org/2000/svg" id="Settings vertical" fill="none" viewBox="0 0 24 24"><path stroke="currentColor" stroke-linecap="round" stroke-linejoin="round" stroke-width="2" d="M6 13.5V3.75m0 9.75a1.5 1.5 0 0 1 0 3m0-3a1.5 1.5 0 0 0 0 3m0 3.75V16.5m12-3V3.75m0 9.75a1.5 1.5 0 0 1 0 3m0-3a1.5 1.5 0 0 0 0 3m0 3.75V16.5m-6-9V3.75m0 3.75a1.5 1.5 0 0 1 0 3m0-3a1.5 1.5 0 0 0 0 3m0 9.75V10.5"/></symbol><symbol xmlns="http://www.w3.org/2000/svg" id="Staked" fill="none" viewBox="0 0 26 26"><path stroke="currentColor" stroke-linecap="round" stroke-linejoin="round" stroke-width="2" d="M12 2 2 7l10 5 10-5-10-5ZM2 17l10 5M2 12l10 5"/><path fill="currentColor" fill-rule="evenodd" d="M20 14a6 6 0 1 0 0 12 6 6 0 0 0 0-12Zm-1.123 3.161c0 .36.291.65.65.65h1.743l-4.568 4.569a.65.65 0 0 0 .919.919l4.568-4.569v1.744a.65.65 0 1 0 1.3 0V17.16a.65.65 0 0 0-.65-.65h-3.312a.65.65 0 0 0-.65.65Z" clip-rule="evenodd"/></symbol><symbol xmlns="http://www.w3.org/2000/svg" id="Swap-2" fill="none" viewBox="0 0 24 24"><path fill="currentColor" fill-rule="evenodd" d="M6.293 18.707a1 1 0 0 0 1.414 0l3-3a1 1 0 0 0-1.414-1.414L8 15.586V6a1 1 0 1 0-2 0v9.586l-1.293-1.293a1 1 0 0 0-1.414 1.414l3 3Zm7-10.414 3-3a1 1 0 0 1 1.414 0l3 3a1 1 0 0 1-1.414 1.414L18 8.414V18a1 1 0 1 1-2 0V8.414l-1.293 1.293a1 1 0 0 1-1.414-1.414Z" clip-rule="evenodd"/></symbol><symbol xmlns="http://www.w3.org/2000/svg" id="Swap" fill="none" viewBox="0 0 24 24"><path stroke="currentColor" stroke-linecap="round" stroke-linejoin="round" stroke-width="2" d="M7 10 4 7l3-3m10 16 3-3-3-3M5 7h15m-1 10H4"/></symbol><symbol xmlns="http://www.w3.org/2000/svg" id="Swift-received" fill="none" viewBox="0 0 26 26"><path fill="currentColor" fill-rule="evenodd" d="m12.667.314 9.118 5.264h.002c.413.24.67.683.67 1.158v5.648a8 8 0 0 0-9.61 11.2l-.178.102a1.356 1.356 0 0 1-1.338 0l-9.118-5.264a1.344 1.344 0 0 1-.67-1.158V6.736c0-.477.257-.92.67-1.158L11.331.314a1.34 1.34 0 0 1 1.336 0Zm-.875 11.033a.413.413 0 0 0 .413 0l8.864-5.116-8.864-5.116a.424.424 0 0 0-.413 0L2.928 6.23l8.864 5.116Zm-.253.893a1.215 1.215 0 0 1-.208-.094L2.467 7.029v10.235c0 .148.08.284.208.358l8.864 5.114V12.24Z" clip-rule="evenodd"/><path fill="currentColor" fill-rule="evenodd" d="M20 26a6 6 0 1 0 0-12 6 6 0 0 0 0 12Zm1.123-3.161a.65.65 0 0 0-.65-.65H18.73l4.568-4.569a.65.65 0 0 0-.919-.919l-4.568 4.569v-1.744a.65.65 0 1 0-1.3 0v3.313c0 .359.29.65.65.65h3.312a.65.65 0 0 0 .65-.65Z" clip-rule="evenodd"/></symbol><symbol xmlns="http://www.w3.org/2000/svg" id="Swift-sent" fill="none" viewBox="0 0 26 26"><path fill="currentColor" fill-rule="evenodd" d="m12.667.314 9.118 5.264h.002c.413.24.67.683.67 1.158v5.648a8 8 0 0 0-9.61 11.2l-.178.102a1.356 1.356 0 0 1-1.338 0l-9.118-5.264a1.344 1.344 0 0 1-.67-1.158V6.736c0-.477.257-.92.67-1.158L11.331.314a1.34 1.34 0 0 1 1.336 0Zm-.875 11.033a.413.413 0 0 0 .413 0l8.864-5.116-8.864-5.116a.424.424 0 0 0-.413 0L2.928 6.23l8.864 5.116Zm-.253.893a1.215 1.215 0 0 1-.208-.094L2.467 7.029v10.235c0 .148.08.284.208.358l8.864 5.114V12.24Z" clip-rule="evenodd"/><path fill="currentColor" fill-rule="evenodd" d="M20 14a6 6 0 1 0 0 12 6 6 0 0 0 0-12Zm-1.123 3.161c0 .36.291.65.65.65h1.743l-4.568 4.569a.65.65 0 0 0 .919.919l4.568-4.569v1.744a.65.65 0 1 0 1.3 0V17.16a.65.65 0 0 0-.65-.65h-3.312a.65.65 0 0 0-.65.65Z" clip-rule="evenodd"/></symbol><symbol xmlns="http://www.w3.org/2000/svg" id="trading-chart" fill="none" viewBox="0 0 24 24"><path stroke="currentColor" stroke-linecap="round" stroke-linejoin="round" stroke-width="2" d="M21 21H6.2c-1.12 0-1.68 0-2.108-.218a2 2 0 0 1-.874-.874C3 19.48 3 18.92 3 17.8V3m4 12 5-6 4 4 5-6"/></symbol><symbol xmlns="http://www.w3.org/2000/svg" id="transfer" viewBox="0 0 24 24"><path stroke="currentColor" stroke-linecap="round" stroke-linejoin="round" stroke-width="2" d="M7 10 4 7l3-3m10 16 3-3-3-3M5 7h15m-1 10H4"/></symbol><symbol xmlns="http://www.w3.org/2000/svg" id="Unstaked" fill="none" viewBox="0 0 26 26"><path stroke="currentColor" stroke-linecap="round" stroke-linejoin="round" stroke-width="2" d="M12 2 2 7l10 5 10-5-10-5ZM2 17l10 5M2 12l10 5"/><path fill="#FFA64D" fill-rule="evenodd" d="M20 26a6 6 0 1 0 0-12 6 6 0 0 0 0 12Zm1.123-3.161a.65.65 0 0 0-.65-.65H18.73l4.568-4.569a.65.65 0 0 0-.919-.919l-4.568 4.569v-1.744a.65.65 0 1 0-1.3 0v3.313c0 .359.29.65.65.65h3.312a.65.65 0 0 0 .65-.65Z" clip-rule="evenodd"/></symbol></svg>