<svg xmlns="http://www.w3.org/2000/svg" width="116" height="20" viewBox="0 0 116 20" fill="none">
  <path d="M42.9 19.5H47.5L44 16.1H42.9C42.5372 16.1 42.2402 15.9771 41.9816 15.7184C41.7229 15.4598 41.6 15.1628 41.6 14.8V0.5H38.2V14.8C38.2 15.6658 38.4042 16.4647 38.8185 17.1852L38.8223 17.1917L38.8262 17.198C39.253 17.8916 39.8233 18.4524 40.5307 18.8768L40.5388 18.8815C41.2577 19.2948 42.0482 19.5 42.9 19.5Z" fill="#F21818"/>
  <path d="M77.0029 19.5H82.0161L72.7131 11.9188L80.7854 5.30004H75.9417L67.8871 12.027V0.500035H64.4871V19.5H67.8871V15.8768L70.1738 14.0041L77.0029 19.5Z" fill="#F21818"/>
  <path d="M105.407 19.5H102.007V8.70003H98.407V5.30004H102.007V0.500035H105.407V5.30004H116V8.70003H105.407V19.5Z" fill="#F21818"/>
  <path fill-rule="evenodd" clip-rule="evenodd" d="M36.3552 12.3652C35.9444 13.0781 35.3802 13.6502 34.6692 14.0767L34.666 14.0787C33.9588 14.4958 33.1657 14.7 32.3 14.7H24.001C24.2432 15.0092 24.5342 15.28 24.8757 15.5135C25.4624 15.904 26.1165 16.1 26.852 16.1H36V19.5H26.852C25.877 19.5 24.9548 19.32 24.0904 18.957L24.0791 18.9523C23.2397 18.5754 22.4934 18.0605 21.8424 17.4096L21.8377 17.4048C21.2027 16.7526 20.7045 16.0051 20.3444 15.165L20.343 15.1616C19.9799 14.2972 19.8 13.375 19.8 12.4C19.8 11.4257 19.9797 10.5108 20.3437 9.66082C20.7033 8.80508 21.2015 8.04865 21.8378 7.39519L21.8424 7.39041C22.4945 6.73837 23.2428 6.23056 24.0849 5.86936C24.9504 5.48888 25.8746 5.3 26.852 5.3H32.3C33.1672 5.3 33.9609 5.51298 34.6677 5.94626C35.3791 6.35677 35.9433 6.92093 36.3538 7.63237C36.787 8.33912 37 9.13284 37 9.99999C37 10.8543 36.7856 11.6462 36.3552 12.3652ZM25.1483 9.11848C25.6632 8.84071 26.2281 8.7 26.852 8.7H32.3C32.6628 8.7 32.9598 8.82293 33.2184 9.08155C33.4771 9.34017 33.6 9.63715 33.6 9.99999C33.6 10.3628 33.4771 10.6598 33.2184 10.9184C32.9598 11.1771 32.6628 11.3 32.3 11.3H23.3688C23.4815 10.9287 23.6507 10.5842 23.8765 10.2643C24.2171 9.78187 24.6398 9.40144 25.1483 9.11848Z" fill="#F21818"/>
  <path d="M15.336 19.5V12.3H2.5V8.89999H15.336V1.7H18.736V19.5H15.336Z" fill="#F21818"/>
  <path d="M0 19.5H3.4V1.7H0V19.5Z" fill="#F21818"/>
  <path fill-rule="evenodd" clip-rule="evenodd" d="M62.0552 12.3652C61.6444 13.0781 61.0802 13.6502 60.3692 14.0767L60.366 14.0787C59.6588 14.4958 58.8657 14.7 58 14.7H49.701C49.9432 15.0092 50.2342 15.28 50.5757 15.5135C51.1624 15.904 51.8165 16.1 52.552 16.1H61.7V19.5H52.552C51.577 19.5 50.6548 19.32 49.7904 18.957L49.7791 18.9523C48.9397 18.5754 48.1934 18.0605 47.5424 17.4096L47.5377 17.4048C46.9027 16.7526 46.4045 16.0051 46.0444 15.165L46.043 15.1616C45.6799 14.2972 45.5 13.375 45.5 12.4C45.5 11.4257 45.6797 10.5108 46.0437 9.66082C46.4033 8.80508 46.9015 8.04865 47.5378 7.39519L47.5424 7.39041C48.1945 6.73837 48.9428 6.23056 49.7849 5.86936C50.6504 5.48888 51.5746 5.3 52.552 5.3H58C58.8672 5.3 59.6609 5.51298 60.3677 5.94626C61.0791 6.35677 61.6433 6.92093 62.0538 7.63237C62.487 8.33912 62.7 9.13284 62.7 9.99999C62.7 10.8543 62.4856 11.6462 62.0552 12.3652ZM50.8483 9.11848C51.3632 8.84071 51.9281 8.7 52.552 8.7H58C58.3629 8.7 58.6598 8.82293 58.9184 9.08155C59.1771 9.34017 59.3 9.63715 59.3 9.99999C59.3 10.3628 59.1771 10.6598 58.9184 10.9184C58.6598 11.1771 58.3629 11.3 58 11.3H49.0688C49.1815 10.9287 49.3507 10.5842 49.5765 10.2643C49.9171 9.78187 50.3398 9.40144 50.8483 9.11848Z" fill="#F21818"/>
  <path fill-rule="evenodd" clip-rule="evenodd" d="M96.5552 12.3652C96.1444 13.0781 95.5802 13.6502 94.8692 14.0767L94.866 14.0787C94.1588 14.4958 93.3657 14.7 92.5 14.7H84.201C84.4432 15.0092 84.7342 15.28 85.0757 15.5135C85.6624 15.904 86.3165 16.1 87.052 16.1H96.2V19.5H87.052C86.077 19.5 85.1548 19.32 84.2904 18.957L84.2791 18.9523C83.4397 18.5754 82.6934 18.0605 82.0424 17.4096L82.0377 17.4048C81.4027 16.7526 80.9045 16.0051 80.5444 15.165L80.543 15.1616C80.1799 14.2972 80 13.375 80 12.4C80 11.4257 80.1797 10.5108 80.5437 9.66082C80.9033 8.80508 81.4015 8.04865 82.0378 7.39519L82.0424 7.39041C82.6945 6.73837 83.4428 6.23056 84.2849 5.86936C85.1505 5.48888 86.0746 5.3 87.052 5.3H92.5C93.3672 5.3 94.1609 5.51298 94.8677 5.94626C95.5791 6.35677 96.1433 6.92093 96.5538 7.63237C96.987 8.33912 97.2 9.13284 97.2 9.99999C97.2 10.8543 96.9856 11.6462 96.5552 12.3652ZM85.3483 9.11848C85.8632 8.84071 86.4281 8.7 87.052 8.7H92.5C92.8629 8.7 93.1598 8.82293 93.4184 9.08155C93.6771 9.34017 93.8 9.63715 93.8 9.99999C93.8 10.3628 93.6771 10.6598 93.4184 10.9184C93.1598 11.1771 92.8629 11.3 92.5 11.3H83.5688C83.6815 10.9287 83.8507 10.5842 84.0765 10.2643C84.4171 9.78187 84.8398 9.40144 85.3483 9.11848Z" fill="#F21818"/>
</svg>